<svg 
 xmlns="http://www.w3.org/2000/svg"
 xmlns:xlink="http://www.w3.org/1999/xlink"
 width="96px" height="107px">
<path fill-rule="evenodd"  fill="rgb(50, 55, 63)"
 d="M95.769,106.362 L13.999,106.362 L13.999,0.0 L70.216,0.0 L95.769,25.324 L95.769,106.362 Z"/>
<path fill-rule="evenodd"  fill="rgb(209, 209, 209)"
 d="M92.275,28.58 L67.999,28.58 L67.999,3.999 L92.275,28.58 Z"/>
<path fill-rule="evenodd"  fill="rgb(0, 0, 0)"
 d="M0.0,19.999 C0.0,17.790 1.790,15.999 3.999,15.999 L50.999,15.999 C53.209,15.999 54.999,17.790 54.999,19.999 L54.999,39.999 C54.999,42.209 53.209,43.999 50.999,43.999 L3.999,43.999 C1.790,43.999 0.0,42.209 0.0,39.999 L0.0,19.999 Z"/>
<text kerning="auto" font-family="DejaVuSans" fill="rgb(0, 0, 0)" font-size="18px" x="9px" y="38.7139999999999px"><tspan font-size="18px" font-family="Roboto" font-weight="bold" fill="#D1D1D1">ACC</tspan></text>
<path fill-rule="evenodd"  fill="rgb(209, 209, 209)"
 d="M73.425,79.773 C72.371,82.210 70.941,84.332 69.136,86.136 C67.331,87.941 65.210,89.371 62.773,90.425 C60.335,91.480 57.746,92.7 55.3,92.7 C52.238,92.7 49.642,91.480 47.216,90.425 C44.790,89.371 42.669,87.941 40.853,86.136 C39.36,84.332 37.607,82.210 36.564,79.773 C35.521,77.335 34.999,74.746 34.999,72.3 C34.999,69.238 35.521,66.642 36.564,64.216 C37.607,61.790 39.36,59.669 40.853,57.853 C42.669,56.37 44.790,54.607 47.216,53.564 C49.642,52.521 52.238,51.999 55.3,51.999 C57.746,51.999 60.335,52.521 62.773,53.564 C65.210,54.607 67.331,56.37 69.136,57.853 C70.941,59.669 72.371,61.790 73.425,64.216 C74.480,66.642 75.7,69.238 75.7,72.3 C75.7,74.746 74.480,77.335 73.425,79.773 ZM62.984,61.984 L55.3,61.984 L55.3,72.988 C54.582,72.683 54.119,72.443 53.615,72.267 C53.111,72.91 52.566,72.3 51.980,72.3 C50.597,72.3 49.419,72.490 48.447,73.462 C47.474,74.435 46.988,75.613 46.988,76.996 C46.988,78.378 47.474,79.556 48.447,80.529 C49.419,81.501 50.597,81.988 51.980,81.988 C53.363,81.988 54.546,81.501 55.531,80.529 C56.515,79.556 57.7,78.378 57.7,76.996 L57.7,65.992 L62.984,65.992 L62.984,61.984 Z"/>
</svg>