<svg 
 xmlns="http://www.w3.org/2000/svg"
 xmlns:xlink="http://www.w3.org/1999/xlink"
 width="96px" height="107px">
<path fill-rule="evenodd"  fill="rgb(77, 0, 141)"
 d="M95.769,106.362 L13.999,106.362 L13.999,0.0 L70.216,0.0 L95.769,25.324 L95.769,106.362 Z"/>
<path fill-rule="evenodd"  fill="rgb(219, 167, 255)"
 d="M92.275,28.58 L67.999,28.58 L67.999,3.999 L92.275,28.58 Z"/>
<path fill-rule="evenodd"  fill="rgb(44, 0, 80)"
 d="M0.0,19.999 C0.0,17.790 1.790,15.999 3.999,15.999 L50.999,15.999 C53.209,15.999 54.999,17.790 54.999,19.999 L54.999,39.999 C54.999,42.209 53.209,43.999 50.999,43.999 L3.999,43.999 C1.790,43.999 0.0,42.209 0.0,39.999 L0.0,19.999 Z"/>
<path fill-rule="evenodd"  fill="rgb(219, 167, 255)"
 d="M37.399,34.881 L37.399,36.999 L28.821,36.999 L28.821,24.203 L37.382,24.203 L37.382,26.338 L31.458,26.338 L31.458,29.388 L36.521,29.388 L36.521,31.454 L31.458,31.454 L31.458,34.881 L37.399,34.881 ZM24.367,34.363 L19.744,34.363 L18.865,36.999 L16.61,36.999 L20.825,24.203 L23.268,24.203 L28.58,36.999 L25.254,36.999 L24.367,34.363 ZM22.46,27.437 L20.455,32.227 L23.655,32.227 L22.46,27.437 Z"/>
<path fill-rule="evenodd"  fill="rgb(219, 167, 255)"
 d="M73.829,91.830 C73.44,92.615 72.101,93.7 70.999,93.7 L55.3,93.7 C53.878,93.7 52.929,92.615 52.156,91.830 C51.382,91.44 50.996,90.101 50.996,88.999 L50.996,73.3 C50.996,71.878 51.382,70.929 52.156,70.156 C52.929,69.382 53.878,68.996 55.3,68.996 L70.999,68.996 C72.101,68.996 73.44,69.382 73.829,70.156 C74.615,70.929 75.7,71.878 75.7,73.3 L75.7,88.999 C75.7,90.101 74.615,91.44 73.829,91.830 ZM46.988,84.992 L42.980,84.992 L42.980,64.988 C42.980,63.886 43.373,62.943 44.158,62.158 C44.943,61.373 45.886,60.980 46.988,60.980 L66.992,60.980 L66.992,64.988 L46.988,64.988 L46.988,84.992 ZM39.7,76.976 L34.999,76.976 L34.999,57.7 C34.999,55.882 35.386,54.933 36.160,54.160 C36.933,53.386 37.882,52.999 39.7,52.999 L58.976,52.999 L58.976,57.7 L39.7,57.7 L39.7,76.976 Z"/>
</svg>