<svg 
 xmlns="http://www.w3.org/2000/svg"
 xmlns:xlink="http://www.w3.org/1999/xlink"
 width="96px" height="107px">
<path fill-rule="evenodd"  fill="rgb(208, 112, 18)"
 d="M95.769,106.362 L13.999,106.362 L13.999,0.0 L70.216,0.0 L95.769,25.324 L95.769,106.362 Z"/>
<path fill-rule="evenodd"  fill="rgb(255, 173, 93)"
 d="M92.275,28.58 L67.999,28.58 L67.999,3.999 L92.275,28.58 Z"/>
<path fill-rule="evenodd"  fill="rgb(167, 84, 2)"
 d="M0.0,19.999 C0.0,17.790 1.790,15.999 3.999,15.999 L50.999,15.999 C53.209,15.999 54.999,17.790 54.999,19.999 L54.999,39.999 C54.999,42.209 53.209,43.999 50.999,43.999 L3.999,43.999 C1.790,43.999 0.0,42.209 0.0,39.999 L0.0,19.999 Z"/>
<path fill-rule="evenodd"  fill="rgb(255, 173, 93)"
 d="M34.93,24.978 C33.833,25.224 33.488,25.347 33.61,25.347 C32.633,25.347 32.289,25.224 32.28,24.978 C31.767,24.732 31.637,24.416 31.637,24.29 C31.637,23.648 31.764,23.334 32.19,23.88 C32.274,22.842 32.621,22.719 33.61,22.719 C33.494,22.719 33.840,22.842 34.98,23.88 C34.355,23.334 34.484,23.648 34.484,24.29 C34.484,24.416 34.354,24.732 34.93,24.978 ZM27.367,33.363 L22.744,33.363 L21.865,35.999 L19.61,35.999 L23.825,23.203 L26.268,23.203 L31.58,35.999 L28.254,35.999 L27.367,33.363 ZM25.46,26.437 L23.455,31.227 L26.655,31.227 L25.46,26.437 ZM34.335,35.999 L31.786,35.999 L31.786,26.490 L34.335,26.490 L34.335,35.999 Z"/>
<path fill-rule="evenodd"  fill="rgb(255, 173, 93)"
 d="M74.7,64.992 C72.718,64.992 71.447,65.85 70.193,65.273 C68.939,65.460 67.726,65.724 66.554,66.64 C65.382,66.404 64.245,66.831 63.144,67.347 C62.42,67.863 60.988,68.437 59.980,69.70 C59.980,70.171 59.775,71.203 59.365,72.164 C58.955,73.124 58.392,73.962 57.677,74.677 C56.962,75.392 56.124,75.954 55.163,76.365 C54.203,76.775 53.171,76.980 52.70,76.980 C51.437,77.988 50.863,79.42 50.347,80.144 C49.831,81.246 49.404,82.382 49.64,83.554 C48.724,84.726 48.460,85.939 48.273,87.193 C48.85,88.447 47.992,89.718 47.992,91.7 L48.62,92.976 L44.54,92.976 L43.984,91.7 C43.984,89.624 44.78,88.271 44.265,86.947 C44.453,85.622 44.716,84.333 45.56,83.80 C45.396,81.826 45.812,80.607 46.304,79.423 C46.796,78.240 47.359,77.97 47.992,75.996 L47.78,75.328 L39.695,82.675 C39.789,82.886 39.859,83.103 39.906,83.326 C39.953,83.548 39.976,83.765 39.976,83.976 C39.976,84.820 39.689,85.535 39.115,86.121 C38.540,86.707 37.831,86.999 36.988,86.999 C36.167,86.999 35.464,86.707 34.878,86.121 C34.292,85.535 33.999,84.820 33.999,83.976 C33.999,83.156 34.292,82.453 34.878,81.867 C35.464,81.281 36.167,80.988 36.988,80.988 C37.222,80.988 37.451,81.11 37.673,81.58 C37.896,81.105 38.101,81.187 38.289,81.304 L45.671,73.886 C45.132,73.230 44.716,72.480 44.423,71.636 C44.130,70.792 43.984,69.913 43.984,68.999 C43.984,67.898 44.195,66.861 44.617,65.888 C45.38,64.915 45.613,64.66 46.339,63.339 C47.66,62.613 47.915,62.38 48.888,61.617 C49.861,61.195 50.898,60.984 51.999,60.984 C52.913,60.984 53.792,61.130 54.636,61.423 C55.480,61.716 56.230,62.132 56.886,62.671 L64.304,55.288 C64.187,55.101 64.105,54.896 64.58,54.673 C64.11,54.451 63.988,54.222 63.988,53.988 C63.988,53.167 64.281,52.464 64.867,51.878 C65.453,51.292 66.156,50.999 66.976,50.999 C67.820,50.999 68.535,51.292 69.121,51.878 C69.707,52.464 69.999,53.167 69.999,53.988 C69.999,54.831 69.707,55.540 69.121,56.115 C68.535,56.689 67.820,56.976 66.976,56.976 C66.765,56.976 66.548,56.953 66.326,56.906 C66.103,56.859 65.886,56.788 65.675,56.695 L58.328,64.78 L58.996,64.992 C60.97,64.359 61.240,63.796 62.423,63.304 C63.607,62.812 64.826,62.396 66.80,62.56 C67.333,61.716 68.622,61.453 69.947,61.265 C71.271,61.78 72.624,60.984 74.7,60.984 L75.976,61.54 L75.976,65.62 L74.7,64.992 ZM54.829,66.169 C54.44,65.384 53.101,64.992 51.999,64.992 C50.898,64.992 49.955,65.384 49.169,66.169 C48.384,66.954 47.992,67.898 47.992,68.999 C47.992,70.101 48.384,71.44 49.169,71.830 C49.955,72.615 50.898,73.7 51.999,73.7 C53.101,73.7 54.44,72.615 54.829,71.830 C55.615,71.44 56.7,70.101 56.7,68.999 C56.7,67.898 55.615,66.954 54.829,66.169 Z"/>
</svg>