<svg 
 xmlns="http://www.w3.org/2000/svg"
 xmlns:xlink="http://www.w3.org/1999/xlink"
 width="96px" height="107px">
<path fill-rule="evenodd"  fill="rgb(82, 19, 8)"
 d="M95.769,106.362 L13.999,106.362 L13.999,0.0 L70.216,0.0 L95.769,25.324 L95.769,106.362 Z"/>
<path fill-rule="evenodd"  fill="rgb(254, 71, 38)"
 d="M92.275,28.58 L67.999,28.58 L67.999,3.999 L92.275,28.58 Z"/>
<path fill-rule="evenodd"  fill="rgb(55, 13, 6)"
 d="M0.0,19.999 C0.0,17.790 1.790,15.999 3.999,15.999 L50.999,15.999 C53.209,15.999 54.999,17.790 54.999,19.999 L54.999,39.999 C54.999,42.209 53.209,43.999 50.999,43.999 L3.999,43.999 C1.790,43.999 0.0,42.209 0.0,39.999 L0.0,19.999 Z"/>
<path fill-rule="evenodd"  fill="rgb(254, 71, 38)"
 d="M36.529,36.796 L31.397,28.376 L31.397,36.796 L28.760,36.796 L28.760,23.999 L31.397,23.999 L36.538,32.437 L36.538,23.999 L39.166,23.999 L39.166,36.796 L36.529,36.796 ZM24.305,34.160 L19.682,34.160 L18.803,36.796 L15.999,36.796 L20.763,23.999 L23.206,23.999 L27.997,36.796 L25.193,36.796 L24.305,34.160 ZM21.985,27.234 L20.394,32.24 L23.593,32.24 L21.985,27.234 Z"/>
<path fill-rule="evenodd"  fill="rgb(254, 71, 38)"
 d="M66.995,78.976 L66.995,88.996 L53.3,88.996 L53.3,78.976 L32.999,78.976 L32.999,64.984 L42.984,64.984 L42.984,54.999 L57.11,54.999 L57.11,64.984 L76.980,64.984 L76.980,78.976 L66.995,78.976 ZM42.984,68.992 L37.7,68.992 L37.7,74.968 L42.984,74.968 L42.984,68.992 ZM53.3,58.972 L46.992,58.972 L46.992,64.984 L53.3,64.984 L53.3,58.972 ZM53.3,68.992 L46.992,68.992 L46.992,74.968 L53.3,74.968 L53.3,68.992 ZM62.988,68.992 L57.11,68.992 L57.11,74.968 L62.988,74.968 L62.988,68.992 ZM62.988,78.976 L57.11,78.976 L57.11,84.988 L62.988,84.988 L62.988,78.976 ZM73.7,68.992 L66.995,68.992 L66.995,74.968 L73.7,74.968 L73.7,68.992 Z"/>
</svg>