<svg 
 xmlns="http://www.w3.org/2000/svg"
 xmlns:xlink="http://www.w3.org/1999/xlink"
 width="96px" height="107px">
<path fill-rule="evenodd"  fill="rgb(121, 169, 46)"
 d="M95.769,106.362 L13.999,106.362 L13.999,0.0 L70.216,0.0 L95.769,25.324 L95.769,106.362 Z"/>
<path fill-rule="evenodd"  fill="rgb(153, 205, 72)"
 d="M92.275,27.58 L67.999,27.58 L67.999,2.999 L92.275,27.58 Z"/>
<path fill-rule="evenodd"  fill="rgb(101, 140, 40)"
 d="M0.0,19.999 C0.0,17.790 1.790,15.999 3.999,15.999 L50.999,15.999 C53.209,15.999 54.999,17.790 54.999,19.999 L54.999,39.999 C54.999,42.209 53.209,43.999 50.999,43.999 L3.999,43.999 C1.790,43.999 0.0,42.209 0.0,39.999 L0.0,19.999 Z"/>
<path fill-rule="evenodd"  fill="rgb(153, 205, 72)"
 d="M39.229,36.999 L36.478,36.999 L32.40,24.203 L34.967,24.203 L37.849,33.827 L40.750,24.203 L43.685,24.203 L39.229,36.999 ZM27.462,29.450 C28.962,29.901 30.55,30.460 30.740,31.128 C31.426,31.796 31.769,32.628 31.769,33.624 C31.769,34.732 31.350,35.601 30.512,36.230 C29.674,36.860 28.546,37.175 27.128,37.175 C26.144,37.175 25.247,36.995 24.439,36.635 C23.630,36.274 23.13,35.781 22.588,35.154 C22.164,34.527 21.951,33.800 21.951,32.974 L24.597,32.974 C24.597,34.386 25.440,35.92 27.128,35.92 C27.755,35.92 28.244,34.965 28.596,34.710 C28.947,34.455 29.123,34.99 29.123,33.642 C29.123,33.144 28.947,32.762 28.596,32.495 C28.244,32.228 27.611,31.947 26.697,31.651 C25.783,31.355 25.60,31.64 24.526,30.777 C23.73,29.992 22.347,28.934 22.347,27.604 C22.347,26.913 22.541,26.296 22.931,25.754 C23.321,25.212 23.880,24.788 24.610,24.484 C25.339,24.179 26.158,24.27 27.67,24.27 C27.981,24.27 28.795,24.192 29.510,24.523 C30.225,24.854 30.780,25.322 31.175,25.925 C31.571,26.529 31.769,27.214 31.769,27.982 L29.132,27.982 C29.132,27.396 28.947,26.940 28.578,26.615 C28.209,26.290 27.690,26.127 27.22,26.127 C26.378,26.127 25.877,26.264 25.520,26.536 C25.162,26.809 24.983,27.167 24.983,27.613 C24.983,28.29 25.193,28.377 25.612,28.659 C26.31,28.940 26.648,29.204 27.462,29.450 ZM17.879,26.747 C17.483,26.375 16.881,26.189 16.73,26.189 C15.194,26.189 14.536,26.504 14.100,27.134 C13.663,27.764 13.439,28.741 13.427,30.65 L13.427,31.32 C13.427,32.414 13.637,33.425 14.56,34.64 C14.475,34.703 15.135,35.22 16.38,35.22 C16.852,35.22 17.460,34.836 17.861,34.464 C18.263,34.92 18.493,33.516 18.551,32.737 L21.188,32.737 C21.88,34.114 20.580,35.198 19.663,35.989 C18.746,36.780 17.537,37.175 16.38,37.175 C14.397,37.175 13.106,36.623 12.166,35.518 C11.225,34.414 10.755,32.898 10.755,30.970 L10.755,30.188 C10.755,28.957 10.972,27.874 11.406,26.936 C11.839,25.998 12.459,25.279 13.265,24.778 C14.70,24.277 15.6,24.27 16.73,24.27 C17.549,24.27 18.739,24.422 19.641,25.213 C20.543,26.4 21.65,27.115 21.206,28.544 L18.569,28.544 C18.504,27.718 18.274,27.119 17.879,26.747 Z"/>
<path fill-rule="evenodd"  fill="rgb(153, 205, 72)"
 d="M73.562,56.999 L59.374,56.999 L59.374,64.124 L62.874,64.124 L55.812,70.62 L48.687,64.124 L52.249,64.124 L52.249,56.999 L37.999,56.999 L37.999,64.124 L41.562,64.124 L52.249,72.999 L41.562,81.874 L37.999,81.874 L37.999,88.999 L52.249,88.999 L52.249,81.874 L48.687,81.874 L55.812,75.937 L62.874,81.874 L59.374,81.874 L59.374,88.999 L73.562,88.999 L73.562,81.874 L69.999,81.874 L59.374,72.999 L69.999,64.124 L73.562,64.124 L73.562,56.999 Z"/>
</svg>