<svg 
 xmlns="http://www.w3.org/2000/svg"
 xmlns:xlink="http://www.w3.org/1999/xlink"
 width="96px" height="107px">
<path fill-rule="evenodd"  fill="rgb(17, 144, 124)"
 d="M95.769,106.362 L13.999,106.362 L13.999,0.0 L70.216,0.0 L95.769,25.324 L95.769,106.362 Z"/>
<path fill-rule="evenodd"  fill="rgb(55, 210, 186)"
 d="M92.275,28.58 L67.999,28.58 L67.999,3.999 L92.275,28.58 Z"/>
<path fill-rule="evenodd"  fill="rgb(13, 98, 84)"
 d="M0.0,19.999 C0.0,17.790 1.790,15.999 3.999,15.999 L50.999,15.999 C53.209,15.999 54.999,17.790 54.999,19.999 L54.999,39.999 C54.999,42.209 53.209,43.999 50.999,43.999 L3.999,43.999 C1.790,43.999 0.0,42.209 0.0,39.999 L0.0,19.999 Z"/>
<path fill-rule="evenodd"  fill="rgb(55, 210, 186)"
 d="M38.926,25.931 L38.926,35.999 L36.436,35.999 L36.436,25.931 L32.784,25.931 L32.784,23.914 L42.629,23.914 L42.629,25.931 L38.926,25.931 ZM31.182,35.999 L30.344,33.509 L25.978,33.509 L25.148,35.999 L22.499,35.999 L26.999,23.914 L29.306,23.914 L33.830,35.999 L31.182,35.999 ZM28.152,26.968 L26.650,31.492 L29.671,31.492 L28.152,26.968 ZM19.669,35.269 C18.828,35.750 17.879,35.994 16.822,35.999 L13.78,35.999 L13.78,23.914 L16.797,23.914 C17.860,23.914 18.810,24.153 19.649,24.632 C20.487,25.110 21.141,25.791 21.612,26.674 C22.82,27.556 22.317,28.559 22.317,29.683 L22.317,30.239 C22.317,31.362 22.86,32.361 21.624,33.235 C21.162,34.110 20.511,34.788 19.669,35.269 ZM19.794,29.674 C19.794,28.446 19.539,27.515 19.30,26.881 C18.521,26.247 17.777,25.931 16.797,25.931 L15.569,25.931 L15.569,33.999 L16.772,33.999 C17.746,33.999 18.491,33.681 19.5,33.44 C19.520,32.408 19.783,31.498 19.794,30.313 L19.794,29.674 Z"/>
<path fill-rule="evenodd"  fill="rgb(55, 210, 186)"
 d="M62.671,86.953 L56.976,81.257 L66.327,71.976 L56.976,62.624 L62.671,56.999 L77.648,71.976 L62.671,86.953 ZM47.976,86.953 L32.999,71.976 L47.976,56.999 L53.671,62.624 L44.320,71.976 L53.671,81.257 L47.976,86.953 Z"/>
</svg>