<svg 
 xmlns="http://www.w3.org/2000/svg"
 xmlns:xlink="http://www.w3.org/1999/xlink"
 width="96px" height="107px">
<path fill-rule="evenodd"  fill="rgb(60, 151, 164)"
 d="M95.769,106.362 L13.999,106.362 L13.999,0.0 L70.216,0.0 L95.769,25.324 L95.769,106.362 Z"/>
<path fill-rule="evenodd"  fill="rgb(25, 226, 255)"
 d="M92.275,28.58 L67.999,28.58 L67.999,3.999 L92.275,28.58 Z"/>
<path fill-rule="evenodd"  fill="rgb(43, 116, 127)"
 d="M0.0,19.999 C0.0,17.790 1.790,15.999 3.999,15.999 L50.999,15.999 C53.209,15.999 54.999,17.790 54.999,19.999 L54.999,39.999 C54.999,42.209 53.209,43.999 50.999,43.999 L3.999,43.999 C1.790,43.999 0.0,42.209 0.0,39.999 L0.0,19.999 Z"/>
<text kerning="auto" font-family="DejaVuSans" fill="rgb(0, 0, 0)" font-size="18px" x="10px" y="38.7140000000001px"><tspan font-size="18px" font-family="Roboto" font-weight="bold" fill="#23DCFF">DGN</tspan></text>
<path fill-rule="evenodd"  fill="rgb(25, 226, 255)"
 d="M66.597,88.999 L57.773,72.581 C58.476,72.394 59.126,72.148 59.724,71.843 C60.322,71.539 60.878,71.187 61.394,70.788 L70.992,88.788 L70.992,93.7 L66.597,88.999 ZM59.249,67.273 C58.101,68.421 56.683,68.996 54.995,68.996 L54.187,68.996 L43.394,88.999 L38.999,93.7 L38.999,88.788 L50.601,66.992 C50.85,66.499 49.687,65.908 49.406,65.216 C49.124,64.525 48.984,63.781 48.984,62.984 C48.984,61.695 49.435,60.541 50.337,59.521 C51.240,58.501 52.792,57.792 54.995,57.394 L54.995,52.999 C55.581,52.999 56.62,53.181 56.437,53.544 C56.812,53.908 56.999,54.394 56.999,55.3 L56.999,57.394 C58.195,57.792 59.156,58.501 59.882,59.521 C60.609,60.541 60.972,61.695 60.972,62.984 C60.972,64.695 60.398,66.124 59.249,67.273 ZM56.437,61.542 C56.62,61.167 55.581,60.980 54.995,60.980 C54.597,60.980 54.246,61.74 53.941,61.261 C53.636,61.449 53.378,61.695 53.167,61.999 C53.167,62.187 53.138,62.351 53.80,62.492 C53.21,62.632 52.992,62.796 52.992,62.984 C52.992,63.593 53.173,64.80 53.537,64.443 C53.900,64.806 54.386,64.988 54.995,64.988 C55.394,64.988 55.740,64.894 56.33,64.706 C56.326,64.519 56.578,64.285 56.788,64.3 C56.788,63.792 56.824,63.623 56.894,63.494 C56.964,63.365 56.999,63.195 56.999,62.984 C56.999,62.398 56.812,61.917 56.437,61.542 Z"/>
</svg>