<svg 
 xmlns="http://www.w3.org/2000/svg"
 xmlns:xlink="http://www.w3.org/1999/xlink"
 width="96px" height="107px">
<path fill-rule="evenodd"  fill="rgb(28, 93, 164)"
 d="M95.769,106.362 L13.999,106.362 L13.999,0.0 L70.216,0.0 L95.769,25.324 L95.769,106.362 Z"/>
<path fill-rule="evenodd"  fill="rgb(123, 182, 246)"
 d="M92.60,27.566 L67.784,27.566 L67.784,3.508 L92.60,27.566 Z"/>
<path fill-rule="evenodd"  fill="rgb(44, 122, 205)"
 d="M0.0,19.999 C0.0,17.790 1.790,15.999 3.999,15.999 L50.999,15.999 C53.209,15.999 54.999,17.790 54.999,19.999 L54.999,39.999 C54.999,42.209 53.209,43.999 50.999,43.999 L3.999,43.999 C1.790,43.999 0.0,42.209 0.0,39.999 L0.0,19.999 Z"/>
<path fill-rule="evenodd"  fill="rgb(123, 182, 246)"
 d="M40.831,28.544 C40.766,27.718 40.536,27.119 40.141,26.747 C39.745,26.375 39.143,26.189 38.335,26.189 C37.456,26.189 36.798,26.504 36.361,27.134 C35.925,27.764 35.701,28.741 35.689,30.65 L35.689,31.32 C35.689,32.414 35.899,33.425 36.318,34.64 C36.736,34.703 37.397,35.22 38.299,35.22 C39.114,35.22 39.722,34.836 40.123,34.464 C40.525,34.92 40.755,33.516 40.813,32.737 L43.450,32.737 C43.350,34.114 42.842,35.198 41.925,35.989 C41.8,36.780 39.800,37.175 38.299,37.175 C36.659,37.175 35.368,36.623 34.428,35.518 C33.488,34.414 33.17,32.898 33.17,30.970 L33.17,30.188 C33.17,28.957 33.234,27.873 33.668,26.936 C34.101,25.998 34.721,25.279 35.527,24.778 C36.332,24.277 37.268,24.27 38.335,24.27 C39.811,24.27 41.1,24.422 41.903,25.213 C42.805,26.4 43.327,27.115 43.467,28.544 L40.831,28.544 ZM29.340,36.402 C28.511,36.917 27.561,37.175 26.488,37.175 C25.428,37.175 24.482,36.920 23.649,36.411 C22.817,35.901 22.173,35.173 21.716,34.227 C21.259,33.280 21.27,32.192 21.21,30.961 L21.21,30.329 C21.21,29.69 21.249,27.960 21.703,27.2 C22.157,26.44 22.798,25.308 23.627,24.796 C24.457,24.283 25.404,24.27 26.471,24.27 C27.537,24.27 28.485,24.283 29.314,24.796 C30.143,25.308 30.785,26.44 31.239,27.2 C31.693,27.960 31.920,29.66 31.920,30.320 L31.920,30.891 C31.920,32.151 31.697,33.255 31.252,34.205 C30.807,35.154 30.169,35.886 29.340,36.402 ZM29.248,30.311 C29.248,28.969 29.8,27.950 28.527,27.252 C28.47,26.555 27.361,26.206 26.471,26.206 C25.586,26.206 24.903,26.551 24.423,27.239 C23.942,27.928 23.699,28.937 23.693,30.267 L23.693,30.891 C23.693,32.198 23.934,33.211 24.414,33.932 C24.895,34.653 25.586,35.13 26.488,35.13 C27.373,35.13 28.53,34.666 28.527,33.972 C29.2,33.277 29.242,32.265 29.248,30.935 L29.248,30.311 ZM17.121,36.226 C16.230,36.736 15.225,36.994 14.106,36.999 L10.142,36.999 L10.142,24.203 L14.80,24.203 C15.205,24.203 16.211,24.456 17.99,24.963 C17.986,25.470 18.679,26.190 19.177,27.125 C19.675,28.60 19.924,29.121 19.924,30.311 L19.924,30.900 C19.924,32.89 19.680,33.147 19.190,34.73 C18.701,34.998 18.11,35.716 17.121,36.226 ZM17.252,30.302 C17.252,29.1 16.983,28.16 16.444,27.345 C15.905,26.674 15.117,26.338 14.80,26.338 L12.779,26.338 L12.779,34.881 L14.53,34.881 C15.84,34.881 15.873,34.544 16.417,33.871 C16.962,33.197 17.241,32.233 17.252,30.979 L17.252,30.302 Z"/>
<path fill-rule="evenodd"  fill="rgb(123, 182, 246)"
 d="M34.999,63.900 L37.600,63.900 L37.600,87.307 L46.52,87.307 L52.554,75.739 L52.554,87.307 L60.356,87.307 L72.59,63.900 L74.659,63.900 L74.659,59.999 L62.957,59.999 L62.957,63.900 L64.907,63.900 L60.356,72.867 L60.356,59.999 L51.254,59.999 L43.451,74.683 L43.451,63.900 L46.52,63.900 L46.52,59.999 L34.999,59.999 L34.999,63.900 Z"/>
</svg>