<svg 
 xmlns="http://www.w3.org/2000/svg"
 xmlns:xlink="http://www.w3.org/1999/xlink"
 width="96px" height="107px">
<path fill-rule="evenodd"  fill="rgb(28, 93, 164)"
 d="M95.769,106.362 L13.999,106.362 L13.999,0.0 L70.216,0.0 L95.769,25.324 L95.769,106.362 Z"/>
<path fill-rule="evenodd"  fill="rgb(123, 182, 246)"
 d="M92.60,27.566 L67.784,27.566 L67.784,3.508 L92.60,27.566 Z"/>
<path fill-rule="evenodd"  fill="rgb(44, 122, 205)"
 d="M0.0,19.999 C0.0,17.790 1.790,15.999 3.999,15.999 L50.999,15.999 C53.209,15.999 54.999,17.790 54.999,19.999 L54.999,39.999 C54.999,42.209 53.209,43.999 50.999,43.999 L3.999,43.999 C1.790,43.999 0.0,42.209 0.0,39.999 L0.0,19.999 Z"/>
<path fill-rule="evenodd"  fill="rgb(123, 182, 246)"
 d="M46.909,35.999 L46.909,32.696 L47.158,26.993 L43.896,35.999 L42.186,35.999 L38.932,27.1 L39.181,32.696 L39.181,35.999 L36.691,35.999 L36.691,23.913 L39.945,23.913 L43.50,32.679 L46.138,23.913 L49.408,23.913 L49.408,35.999 L46.909,35.999 ZM32.363,26.317 C31.989,25.965 31.421,25.790 30.657,25.790 C29.827,25.790 29.206,26.87 28.793,26.682 C28.381,27.277 28.169,28.200 28.158,29.450 L28.158,30.363 C28.158,31.669 28.356,32.624 28.752,33.227 C29.148,33.830 29.772,34.132 30.624,34.132 C31.393,34.132 31.967,33.956 32.346,33.605 C32.725,33.253 32.942,32.710 32.998,31.974 L35.488,31.974 C35.394,33.274 34.914,34.298 34.48,35.45 C33.182,35.792 32.40,36.165 30.624,36.165 C29.74,36.165 27.855,35.644 26.967,34.601 C26.79,33.558 25.635,32.126 25.635,30.305 L25.635,29.566 C25.635,28.404 25.840,27.380 26.249,26.495 C26.659,25.610 27.244,24.930 28.5,24.457 C28.766,23.984 29.650,23.748 30.657,23.748 C32.51,23.748 33.175,24.121 34.27,24.868 C34.879,25.615 35.372,26.664 35.505,28.14 L33.14,28.14 C32.953,27.234 32.736,26.668 32.363,26.317 ZM22.186,35.435 C21.403,35.922 20.505,36.165 19.493,36.165 C18.491,36.165 17.597,35.925 16.812,35.443 C16.26,34.962 15.417,34.274 14.985,33.381 C14.554,32.487 14.335,31.459 14.330,30.297 L14.330,29.699 C14.330,28.509 14.544,27.462 14.973,26.557 C15.402,25.653 16.8,24.958 16.791,24.474 C17.574,23.990 18.469,23.748 19.476,23.748 C20.483,23.748 21.378,23.990 22.161,24.474 C22.945,24.958 23.550,25.653 23.979,26.557 C24.408,27.462 24.623,28.507 24.623,29.691 L24.623,30.230 C24.623,31.420 24.412,32.463 23.992,33.360 C23.571,34.256 22.969,34.948 22.186,35.435 ZM22.99,29.683 C22.99,28.415 21.872,27.452 21.419,26.794 C20.965,26.135 20.317,25.806 19.476,25.806 C18.641,25.806 17.996,26.131 17.542,26.781 C17.88,27.432 16.859,28.385 16.853,29.641 L16.853,30.230 C16.853,31.465 17.80,32.422 17.534,33.102 C17.988,33.783 18.641,34.123 19.493,34.123 C20.328,34.123 20.970,33.796 21.419,33.140 C21.867,32.484 22.94,31.528 22.99,30.272 L22.99,29.683 ZM10.669,35.269 C9.828,35.750 8.879,35.994 7.822,35.999 L4.78,35.999 L4.78,23.913 L7.797,23.913 C8.860,23.913 9.810,24.153 10.649,24.632 C11.487,25.110 12.141,25.791 12.612,26.674 C13.82,27.556 13.317,28.559 13.317,29.683 L13.317,30.239 C13.317,31.362 13.86,32.361 12.624,33.235 C12.162,34.110 11.511,34.788 10.669,35.269 ZM10.794,29.674 C10.794,28.446 10.539,27.515 10.30,26.881 C9.521,26.247 8.777,25.931 7.797,25.931 L6.569,25.931 L6.569,33.999 L7.772,33.999 C8.746,33.999 9.491,33.681 10.5,33.44 C10.520,32.408 10.783,31.498 10.794,30.313 L10.794,29.674 Z"/>
<path fill-rule="evenodd"  fill="rgb(123, 182, 246)"
 d="M34.999,63.900 L37.600,63.900 L37.600,87.307 L46.52,87.307 L52.554,75.739 L52.554,87.307 L60.356,87.307 L72.59,63.900 L74.659,63.900 L74.659,59.999 L62.957,59.999 L62.957,63.900 L64.907,63.900 L60.356,72.867 L60.356,59.999 L51.254,59.999 L43.451,74.683 L43.451,63.900 L46.52,63.900 L46.52,59.999 L34.999,59.999 L34.999,63.900 Z"/>
</svg>