<svg 
 xmlns="http://www.w3.org/2000/svg"
 xmlns:xlink="http://www.w3.org/1999/xlink"
 width="96px" height="107px">
<path fill-rule="evenodd"  fill="rgb(28, 93, 164)"
 d="M95.769,106.362 L13.999,106.362 L13.999,0.0 L70.216,0.0 L95.769,25.324 L95.769,106.362 Z"/>
<path fill-rule="evenodd"  fill="rgb(123, 182, 246)"
 d="M92.60,27.566 L67.784,27.566 L67.784,3.508 L92.60,27.566 Z"/>
<path fill-rule="evenodd"  fill="rgb(44, 122, 205)"
 d="M0.0,19.999 C0.0,17.790 1.790,15.999 3.999,15.999 L50.999,15.999 C53.209,15.999 54.999,17.790 54.999,19.999 L54.999,39.999 C54.999,42.209 53.209,43.999 50.999,43.999 L3.999,43.999 C1.790,43.999 0.0,42.209 0.0,39.999 L0.0,19.999 Z"/>
<path fill-rule="evenodd"  fill="rgb(123, 182, 246)"
 d="M48.237,36.999 L45.340,36.999 L43.16,32.766 L40.692,36.999 L37.795,36.999 L41.406,30.907 L37.886,24.914 L40.750,24.914 L43.16,29.80 L45.282,24.914 L48.146,24.914 L44.626,30.907 L48.237,36.999 ZM34.363,27.317 C33.989,26.965 33.421,26.789 32.657,26.789 C31.827,26.789 31.206,27.87 30.793,27.682 C30.381,28.277 30.169,29.199 30.158,30.450 L30.158,31.363 C30.158,32.669 30.356,33.624 30.752,34.227 C31.148,34.830 31.771,35.132 32.624,35.132 C33.393,35.132 33.967,34.956 34.346,34.605 C34.725,34.253 34.942,33.710 34.998,32.974 L37.488,32.974 C37.394,34.274 36.914,35.298 36.48,36.45 C35.182,36.792 34.40,37.165 32.624,37.165 C31.74,37.165 29.855,36.644 28.967,35.601 C28.79,34.558 27.635,33.126 27.635,31.305 L27.635,30.566 C27.635,29.404 27.840,28.380 28.249,27.495 C28.659,26.610 29.244,25.930 30.5,25.457 C30.766,24.984 31.650,24.747 32.657,24.747 C34.51,24.747 35.175,25.121 36.27,25.868 C36.879,26.615 37.372,27.664 37.504,29.14 L35.14,29.14 C34.954,28.234 34.736,27.668 34.363,27.317 ZM24.186,36.435 C23.403,36.922 22.505,37.165 21.493,37.165 C20.491,37.165 19.597,36.925 18.811,36.443 C18.26,35.962 17.417,35.274 16.985,34.381 C16.554,33.487 16.335,32.459 16.330,31.297 L16.330,30.699 C16.330,29.509 16.544,28.462 16.973,27.557 C17.402,26.653 18.8,25.958 18.791,25.474 C19.574,24.990 20.469,24.747 21.476,24.747 C22.483,24.747 23.378,24.990 24.161,25.474 C24.944,25.958 25.550,26.653 25.979,27.557 C26.408,28.462 26.623,29.507 26.623,30.691 L26.623,31.230 C26.623,32.420 26.412,33.463 25.992,34.360 C25.571,35.256 24.969,35.948 24.186,36.435 ZM24.99,30.683 C24.99,29.415 23.872,28.452 23.419,27.794 C22.965,27.135 22.317,26.806 21.476,26.806 C20.640,26.806 19.996,27.131 19.542,27.781 C19.88,28.432 18.859,29.385 18.853,30.641 L18.853,31.230 C18.853,32.464 19.80,33.422 19.534,34.102 C19.987,34.783 20.640,35.123 21.493,35.123 C22.328,35.123 22.970,34.796 23.419,34.140 C23.867,33.484 24.94,32.528 24.99,31.272 L24.99,30.683 ZM12.669,36.269 C11.828,36.750 10.879,36.994 9.822,36.999 L6.79,36.999 L6.79,24.914 L9.797,24.914 C10.860,24.914 11.810,25.153 12.649,25.631 C13.487,26.110 14.141,26.791 14.612,27.673 C15.82,28.556 15.317,29.559 15.317,30.683 L15.317,31.239 C15.317,32.362 15.86,33.361 14.624,34.235 C14.162,35.110 13.510,35.787 12.669,36.269 ZM12.794,30.674 C12.794,29.446 12.539,28.515 12.30,27.881 C11.521,27.247 10.777,26.931 9.797,26.931 L8.569,26.931 L8.569,34.999 L9.772,34.999 C10.746,34.999 11.491,34.681 12.5,34.44 C12.520,33.408 12.783,32.498 12.794,31.313 L12.794,30.674 Z"/>
<path fill-rule="evenodd"  fill="rgb(123, 182, 246)"
 d="M34.999,63.900 L37.600,63.900 L37.600,87.307 L46.52,87.307 L52.554,75.739 L52.554,87.307 L60.356,87.307 L72.59,63.900 L74.659,63.900 L74.659,59.999 L62.957,59.999 L62.957,63.900 L64.907,63.900 L60.356,72.867 L60.356,59.999 L51.254,59.999 L43.451,74.683 L43.451,63.900 L46.52,63.900 L46.52,59.999 L34.999,59.999 L34.999,63.900 Z"/>
</svg>