<svg 
 xmlns="http://www.w3.org/2000/svg"
 xmlns:xlink="http://www.w3.org/1999/xlink"
 width="96px" height="107px">
<path fill-rule="evenodd"  fill="rgb(28, 93, 164)"
 d="M95.769,106.362 L13.999,106.362 L13.999,0.0 L70.216,0.0 L95.769,25.324 L95.769,106.362 Z"/>
<path fill-rule="evenodd"  fill="rgb(123, 182, 246)"
 d="M92.60,27.566 L67.784,27.566 L67.784,3.508 L92.60,27.566 Z"/>
<path fill-rule="evenodd"  fill="rgb(44, 122, 205)"
 d="M0.0,19.999 C0.0,17.790 1.790,15.999 3.999,15.999 L50.999,15.999 C53.209,15.999 54.999,17.790 54.999,19.999 L54.999,39.999 C54.999,42.209 53.209,43.999 50.999,43.999 L3.999,43.999 C1.790,43.999 0.0,42.209 0.0,39.999 L0.0,19.999 Z"/>
<text kerning="auto" font-family="DejaVuSans" fill="rgb(0, 0, 0)" font-size="17px" x="7px" y="37.841px"><tspan font-size="17px" font-family="Roboto" font-weight="bold" fill="#69A5F3">DOTH</tspan></text>
<path fill-rule="evenodd"  fill="rgb(123, 182, 246)"
 d="M34.999,63.900 L37.600,63.900 L37.600,87.307 L46.52,87.307 L52.554,75.739 L52.554,87.307 L60.356,87.307 L72.59,63.900 L74.659,63.900 L74.659,59.999 L62.957,59.999 L62.957,63.900 L64.907,63.900 L60.356,72.867 L60.356,59.999 L51.254,59.999 L43.451,74.683 L43.451,63.900 L46.52,63.900 L46.52,59.999 L34.999,59.999 L34.999,63.900 Z"/>
</svg>