<svg 
 xmlns="http://www.w3.org/2000/svg"
 xmlns:xlink="http://www.w3.org/1999/xlink"
 width="96px" height="107px">
<path fill-rule="evenodd"  fill="rgb(11, 49, 1)"
 d="M95.769,106.362 L13.999,106.362 L13.999,0.0 L70.216,0.0 L95.769,25.324 L95.769,106.362 Z"/>
<path fill-rule="evenodd"  fill="rgb(52, 248, 0)"
 d="M92.275,28.58 L67.999,28.58 L67.999,3.999 L92.275,28.58 Z"/>
<path fill-rule="evenodd"  fill="rgb(0, 0, 0)"
 d="M0.0,19.999 C0.0,17.790 1.790,15.999 3.999,15.999 L50.999,15.999 C53.209,15.999 54.999,17.790 54.999,19.999 L54.999,39.999 C54.999,42.209 53.209,43.999 50.999,43.999 L3.999,43.999 C1.790,43.999 0.0,42.209 0.0,39.999 L0.0,19.999 Z"/>
<path fill-rule="evenodd"  fill="rgb(52, 248, 0)"
 d="M37.789,36.999 L35.134,36.999 L33.52,28.439 L30.968,36.999 L28.314,36.999 L25.475,24.203 L28.103,24.203 L29.835,33.290 L31.944,24.203 L34.177,24.203 L36.277,33.308 L38.0,24.203 L40.628,24.203 L37.789,36.999 ZM21.121,36.226 C20.230,36.736 19.225,36.994 18.106,36.999 L14.142,36.999 L14.142,24.203 L18.79,24.203 C19.205,24.203 20.211,24.456 21.99,24.963 C21.986,25.470 22.679,26.190 23.177,27.125 C23.675,28.60 23.924,29.121 23.924,30.311 L23.924,30.900 C23.924,32.89 23.680,33.147 23.190,34.73 C22.701,34.998 22.11,35.716 21.121,36.226 ZM21.252,30.302 C21.252,29.1 20.983,28.16 20.444,27.345 C19.905,26.674 19.117,26.338 18.79,26.338 L16.779,26.338 L16.779,34.881 L18.53,34.881 C19.84,34.881 19.872,34.544 20.417,33.871 C20.962,33.197 21.241,32.233 21.252,30.979 L21.252,30.302 Z"/>
<path fill-rule="evenodd"  fill="rgb(52, 248, 0)"
 d="M70.996,74.3 C69.894,74.3 68.951,74.390 68.165,75.163 C67.380,75.937 66.988,76.874 66.988,77.976 L66.988,85.992 C66.988,87.93 66.595,88.37 65.810,88.822 C65.25,89.607 64.81,89.999 62.980,89.999 L58.972,89.999 L58.972,85.992 L62.980,85.992 L62.980,75.972 C62.980,74.894 63.372,73.962 64.158,73.177 C64.943,72.392 65.886,71.999 66.988,71.999 C65.886,71.999 64.943,71.607 64.158,70.822 C63.372,70.37 62.980,69.93 62.980,67.992 L62.980,57.972 L58.972,57.972 L58.972,53.999 L62.980,53.999 C64.81,53.999 65.25,54.392 65.810,55.177 C66.595,55.962 66.988,56.894 66.988,57.972 L66.988,65.988 C66.988,67.89 67.380,68.33 68.165,68.818 C68.951,69.603 69.894,69.996 70.996,69.996 L72.999,69.996 L72.999,74.3 L70.996,74.3 ZM44.154,88.822 C43.369,88.37 42.976,87.93 42.976,85.992 L42.976,77.976 C42.976,76.874 42.583,75.937 41.798,75.163 C41.13,74.390 40.81,74.3 39.3,74.3 L36.999,74.3 L36.999,69.996 L39.3,69.996 C40.81,69.996 41.13,69.603 41.798,68.818 C42.583,68.33 42.976,67.89 42.976,65.988 L42.976,57.972 C42.976,56.894 43.369,55.962 44.154,55.177 C44.939,54.392 45.882,53.999 46.984,53.999 L50.992,53.999 L50.992,57.972 L46.984,57.972 L46.984,67.992 C46.984,69.93 46.591,70.37 45.806,70.822 C45.21,71.607 44.78,71.999 42.976,71.999 C44.78,71.999 45.21,72.392 45.806,73.177 C46.591,73.962 46.984,74.894 46.984,75.972 L46.984,85.992 L50.992,85.992 L50.992,89.999 L46.984,89.999 C45.882,89.999 44.939,89.607 44.154,88.822 Z"/>
</svg>