<svg 
 xmlns="http://www.w3.org/2000/svg"
 xmlns:xlink="http://www.w3.org/1999/xlink"
 width="96px" height="107px">
<path fill-rule="evenodd"  fill="rgb(208, 112, 18)"
 d="M95.769,106.362 L13.999,106.362 L13.999,0.0 L70.216,0.0 L95.769,25.324 L95.769,106.362 Z"/>
<path fill-rule="evenodd"  fill="rgb(255, 173, 93)"
 d="M92.275,28.58 L67.999,28.58 L67.999,3.999 L92.275,28.58 Z"/>
<path fill-rule="evenodd"  fill="rgb(167, 84, 2)"
 d="M0.0,19.999 C0.0,17.790 1.790,15.999 3.999,15.999 L50.999,15.999 C53.209,15.999 54.999,17.790 54.999,19.999 L54.999,39.999 C54.999,42.209 53.209,43.999 50.999,43.999 L3.999,43.999 C1.790,43.999 0.0,42.209 0.0,39.999 L0.0,19.999 Z"/>
<path fill-rule="evenodd"  fill="rgb(255, 173, 93)"
 d="M39.104,25.615 C38.735,25.290 38.217,25.127 37.549,25.127 C36.904,25.127 36.403,25.264 36.46,25.536 C35.688,25.809 35.509,26.167 35.509,26.613 C35.509,27.29 35.719,27.377 36.138,27.659 C36.557,27.940 37.173,28.204 37.988,28.450 C39.488,28.901 40.581,29.460 41.266,30.128 C41.952,30.796 42.295,31.628 42.295,32.624 C42.295,33.732 41.876,34.600 41.38,35.230 C40.200,35.860 39.72,36.175 37.654,36.175 C36.670,36.175 35.773,35.995 34.964,35.635 C34.156,35.274 33.539,34.781 33.114,34.154 C32.690,33.527 32.477,32.800 32.477,31.974 L35.123,31.974 C35.123,33.386 35.967,34.92 37.654,34.92 C38.281,34.92 38.770,33.965 39.122,33.710 C39.473,33.455 39.649,33.99 39.649,32.642 C39.649,32.144 39.473,31.762 39.122,31.495 C38.770,31.228 38.137,30.947 37.223,30.651 C36.309,30.355 35.586,30.64 35.52,29.777 C33.599,28.992 32.873,27.934 32.873,26.604 C32.873,25.913 33.68,25.296 33.457,24.754 C33.847,24.212 34.406,23.789 35.136,23.484 C35.865,23.179 36.684,23.27 37.592,23.27 C38.507,23.27 39.321,23.192 40.36,23.523 C40.751,23.854 41.306,24.322 41.701,24.925 C42.97,25.529 42.295,26.214 42.295,26.982 L39.658,26.982 C39.658,26.396 39.473,25.940 39.104,25.615 ZM26.783,31.491 L24.472,31.491 L24.472,35.999 L21.835,35.999 L21.835,23.203 L26.827,23.203 C27.788,23.203 28.633,23.378 29.363,23.730 C30.92,24.82 30.653,24.581 31.46,25.228 C31.439,25.876 31.635,26.613 31.635,27.439 C31.635,28.693 31.206,29.682 30.347,30.405 C29.489,31.129 28.301,31.491 26.783,31.491 ZM28.418,25.936 C28.49,25.549 27.539,25.350 26.889,25.338 L24.472,25.338 L24.472,29.355 L26.827,29.355 C27.524,29.355 28.56,29.191 28.422,28.863 C28.789,28.535 28.972,28.66 28.972,27.456 C28.972,26.830 28.787,26.323 28.418,25.936 ZM12.142,23.203 L20.703,23.203 L20.703,25.338 L14.779,25.338 L14.779,28.388 L19.841,28.388 L19.841,30.454 L14.779,30.454 L14.779,33.881 L20.720,33.881 L20.720,35.999 L12.142,35.999 L12.142,23.203 Z"/>
<path fill-rule="evenodd"  fill="rgb(255, 173, 93)"
 d="M74.7,64.992 C72.718,64.992 71.447,65.85 70.193,65.273 C68.939,65.460 67.726,65.724 66.554,66.64 C65.382,66.404 64.246,66.831 63.144,67.347 C62.42,67.863 60.988,68.437 59.980,69.70 C59.980,70.171 59.775,71.203 59.365,72.164 C58.955,73.125 58.392,73.962 57.677,74.677 C56.962,75.392 56.124,75.955 55.164,76.365 C54.202,76.775 53.171,76.980 52.70,76.980 C51.437,77.988 50.863,79.42 50.347,80.144 C49.831,81.246 49.404,82.382 49.64,83.554 C48.724,84.726 48.460,85.939 48.273,87.193 C48.85,88.447 47.992,89.718 47.992,91.7 L48.62,92.976 L44.54,92.976 L43.984,91.7 C43.984,89.624 44.77,88.271 44.265,86.947 C44.453,85.622 44.716,84.333 45.56,83.80 C45.396,81.826 45.812,80.607 46.304,79.423 C46.796,78.240 47.359,77.97 47.992,75.996 L47.78,75.328 L39.695,82.675 C39.788,82.886 39.859,83.103 39.906,83.326 C39.953,83.548 39.976,83.765 39.976,83.976 C39.976,84.820 39.689,85.535 39.115,86.121 C38.540,86.707 37.832,86.999 36.988,86.999 C36.167,86.999 35.464,86.707 34.878,86.121 C34.292,85.535 33.999,84.820 33.999,83.976 C33.999,83.156 34.292,82.453 34.878,81.867 C35.464,81.281 36.167,80.988 36.988,80.988 C37.222,80.988 37.451,81.11 37.673,81.58 C37.896,81.105 38.101,81.187 38.289,81.304 L45.671,73.886 C45.132,73.230 44.716,72.480 44.423,71.636 C44.130,70.792 43.984,69.913 43.984,68.999 C43.984,67.898 44.195,66.861 44.617,65.888 C45.39,64.916 45.613,64.66 46.339,63.339 C47.66,62.613 47.915,62.38 48.888,61.617 C49.861,61.195 50.898,60.984 51.999,60.984 C52.914,60.984 53.792,61.130 54.636,61.423 C55.480,61.716 56.230,62.132 56.886,62.671 L64.304,55.288 C64.187,55.101 64.105,54.896 64.58,54.673 C64.11,54.451 63.988,54.222 63.988,53.988 C63.988,53.167 64.281,52.464 64.867,51.878 C65.453,51.292 66.156,50.999 66.976,50.999 C67.820,50.999 68.535,51.292 69.121,51.878 C69.706,52.464 69.999,53.167 69.999,53.988 C69.999,54.831 69.706,55.540 69.121,56.115 C68.535,56.689 67.820,56.976 66.976,56.976 C66.765,56.976 66.548,56.953 66.326,56.906 C66.103,56.859 65.886,56.788 65.675,56.695 L58.328,64.78 L58.996,64.992 C60.97,64.359 61.240,63.796 62.423,63.304 C63.607,62.812 64.826,62.396 66.79,62.56 C67.333,61.716 68.623,61.453 69.947,61.265 C71.271,61.78 72.624,60.984 74.7,60.984 L75.976,61.54 L75.976,65.62 L74.7,64.992 ZM54.829,66.169 C54.44,65.384 53.101,64.992 51.999,64.992 C50.898,64.992 49.955,65.384 49.169,66.169 C48.384,66.954 47.992,67.898 47.992,68.999 C47.992,70.101 48.384,71.44 49.169,71.830 C49.955,72.615 50.898,73.7 51.999,73.7 C53.101,73.7 54.44,72.615 54.829,71.830 C55.615,71.44 56.7,70.101 56.7,68.999 C56.7,67.898 55.615,66.954 54.829,66.169 Z"/>
</svg>