<svg 
 xmlns="http://www.w3.org/2000/svg"
 xmlns:xlink="http://www.w3.org/1999/xlink"
 width="96px" height="107px">
<path fill-rule="evenodd"  fill="rgb(123, 182, 246)"
 d="M92.275,28.58 L67.999,28.58 L67.999,3.999 L92.275,28.58 Z"/>
<path fill-rule="evenodd"  fill="rgb(44, 122, 205)"
 d="M0.0,19.999 C0.0,17.790 1.790,15.999 3.999,15.999 L50.999,15.999 C53.209,15.999 54.999,17.790 54.999,19.999 L54.999,39.999 C54.999,42.209 53.209,43.999 50.999,43.999 L3.999,43.999 C1.790,43.999 0.0,42.209 0.0,39.999 L0.0,19.999 Z"/>
<text kerning="auto" font-family="DejaVuSans" fill="rgb(0, 0, 0)" font-size="18px" x="10px" y="38.7139999999999px"><tspan font-size="18px" font-family="Roboto" font-weight="bold" fill="#69A5F3">DO</tspan><tspan font-size="18px" font-family="Roboto" font-weight="bold" fill="#69A5F3">C</tspan></text>
<path fill-rule="evenodd"  fill="rgb(118, 177, 241)"
 d="M39.999,67.917 L41.944,67.917 L41.944,85.422 L48.266,85.422 L53.128,76.771 L53.128,85.422 L58.963,85.422 L67.716,67.917 L69.661,67.917 L69.661,64.999 L60.908,64.999 L60.908,67.917 L62.367,67.917 L58.963,74.623 L58.963,64.999 L52.156,64.999 L46.321,75.981 L46.321,67.917 L48.266,67.917 L48.266,64.999 L39.999,64.999 L39.999,67.917 Z"/>
<path fill-rule="evenodd"  fill="rgb(123, 182, 246)"
 d="M92.275,28.58 L67.999,28.58 L67.999,3.999 L92.275,28.58 Z"/>
<path fill-rule="evenodd"  fill="rgb(44, 122, 205)"
 d="M0.0,19.999 C0.0,17.790 1.790,15.999 3.999,15.999 L50.999,15.999 C53.209,15.999 54.999,17.790 54.999,19.999 L54.999,39.999 C54.999,42.209 53.209,43.999 50.999,43.999 L3.999,43.999 C1.790,43.999 0.0,42.209 0.0,39.999 L0.0,19.999 Z"/>
<text kerning="auto" font-family="DejaVuSans" fill="rgb(0, 0, 0)" font-size="18px" x="10px" y="38.7139999999999px"><tspan font-size="18px" font-family="Roboto" font-weight="bold" fill="#69A5F3">DO</tspan><tspan font-size="18px" font-family="Roboto" font-weight="bold" fill="#69A5F3">C</tspan></text>
<path fill-rule="evenodd"  fill="rgb(255, 255, 255)"
 d="M34.999,63.900 L37.600,63.900 L37.600,87.306 L46.52,87.306 L52.554,75.739 L52.554,87.306 L60.356,87.306 L72.59,63.900 L74.659,63.900 L74.659,59.999 L62.957,59.999 L62.957,63.900 L64.907,63.900 L60.356,72.867 L60.356,59.999 L51.254,59.999 L43.451,74.683 L43.451,63.900 L46.52,63.900 L46.52,59.999 L34.999,59.999 L34.999,63.900 Z"/>
<path fill-rule="evenodd"  fill="rgb(123, 182, 246)"
 d="M92.275,28.58 L67.999,28.58 L67.999,3.999 L92.275,28.58 Z"/>
<path fill-rule="evenodd"  fill="rgb(44, 122, 205)"
 d="M0.0,19.999 C0.0,17.790 1.790,15.999 3.999,15.999 L50.999,15.999 C53.209,15.999 54.999,17.790 54.999,19.999 L54.999,39.999 C54.999,42.209 53.209,43.999 50.999,43.999 L3.999,43.999 C1.790,43.999 0.0,42.209 0.0,39.999 L0.0,19.999 Z"/>
<text kerning="auto" font-family="DejaVuSans" fill="rgb(0, 0, 0)" font-size="18px" x="10px" y="38.7139999999999px"><tspan font-size="18px" font-family="Roboto" font-weight="bold" fill="#69A5F3">DO</tspan><tspan font-size="18px" font-family="Roboto" font-weight="bold" fill="#69A5F3">C</tspan></text>
<path fill-rule="evenodd"  fill="rgb(118, 177, 241)"
 d="M39.999,67.917 L41.944,67.917 L41.944,85.422 L48.266,85.422 L53.128,76.771 L53.128,85.422 L58.963,85.422 L67.716,67.917 L69.661,67.917 L69.661,64.999 L60.908,64.999 L60.908,67.917 L62.367,67.917 L58.963,74.623 L58.963,64.999 L52.156,64.999 L46.321,75.981 L46.321,67.917 L48.266,67.917 L48.266,64.999 L39.999,64.999 L39.999,67.917 Z"/>
<path fill-rule="evenodd"  fill="rgb(185, 184, 162)"
 d="M95.769,106.362 L13.999,106.362 L13.999,0.0 L70.216,0.0 L95.769,25.324 L95.769,106.362 Z"/>
<path fill-rule="evenodd"  fill="rgb(226, 224, 193)"
 d="M92.275,28.58 L67.999,28.58 L67.999,3.999 L92.275,28.58 Z"/>
<path fill-rule="evenodd"  fill="rgb(126, 127, 114)"
 d="M0.0,19.999 C0.0,17.790 1.790,15.999 3.999,15.999 L50.999,15.999 C53.209,15.999 54.999,17.790 54.999,19.999 L54.999,39.999 C54.999,42.209 53.209,43.999 50.999,43.999 L3.999,43.999 C1.790,43.999 0.0,42.209 0.0,39.999 L0.0,19.999 Z"/>
<text kerning="auto" font-family="DejaVuSans" fill="rgb(0, 0, 0)" font-size="17px" x="11px" y="37.2070000000001px"><tspan font-size="17px" font-family="Roboto" font-weight="bold" fill="#E2E0C1">FILE</tspan></text>
</svg>