<svg 
 xmlns="http://www.w3.org/2000/svg"
 xmlns:xlink="http://www.w3.org/1999/xlink"
 width="96px" height="107px">
<path fill-rule="evenodd"  fill="rgb(70, 42, 4)"
 d="M95.769,106.362 L13.999,106.362 L13.999,0.0 L70.216,0.0 L95.769,25.324 L95.769,106.362 Z"/>
<path fill-rule="evenodd"  fill="rgb(255, 153, 15)"
 d="M92.275,28.58 L67.999,28.58 L67.999,3.999 L92.275,28.58 Z"/>
<path fill-rule="evenodd"  fill="rgb(11, 6, 1)"
 d="M0.0,19.999 C0.0,17.790 1.790,15.999 3.999,15.999 L50.999,15.999 C53.209,15.999 54.999,17.790 54.999,19.999 L54.999,39.999 C54.999,42.209 53.209,43.999 50.999,43.999 L3.999,43.999 C1.790,43.999 0.0,42.209 0.0,39.999 L0.0,19.999 Z"/>
<path fill-rule="evenodd"  fill="rgb(255, 153, 12)"
 d="M33.662,26.615 C33.293,26.290 32.774,26.127 32.107,26.127 C31.462,26.127 30.961,26.264 30.604,26.536 C30.246,26.809 30.67,27.167 30.67,27.613 C30.67,28.29 30.277,28.377 30.696,28.659 C31.115,28.940 31.732,29.204 32.546,29.450 C34.46,29.901 35.139,30.460 35.824,31.128 C36.510,31.796 36.853,32.628 36.853,33.624 C36.853,34.732 36.434,35.601 35.596,36.230 C34.758,36.860 33.630,37.175 32.212,37.175 C31.228,37.175 30.331,36.995 29.523,36.635 C28.714,36.274 28.97,35.781 27.672,35.154 C27.248,34.527 27.35,33.800 27.35,32.974 L29.681,32.974 C29.681,34.386 30.524,35.92 32.212,35.92 C32.839,35.92 33.328,34.965 33.680,34.710 C34.31,34.455 34.207,34.99 34.207,33.642 C34.207,33.144 34.31,32.762 33.680,32.495 C33.328,32.228 32.695,31.947 31.781,31.651 C30.867,31.355 30.144,31.64 29.610,30.777 C28.157,29.992 27.431,28.934 27.431,27.604 C27.431,26.913 27.626,26.296 28.15,25.754 C28.405,25.212 28.964,24.789 29.694,24.484 C30.423,24.179 31.242,24.27 32.150,24.27 C33.65,24.27 33.879,24.192 34.594,24.523 C35.309,24.854 35.864,25.322 36.259,25.925 C36.655,26.529 36.853,27.214 36.853,27.982 L34.216,27.982 C34.216,27.396 34.31,26.940 33.662,26.615 ZM20.779,29.643 L25.841,29.643 L25.841,31.770 L20.779,31.770 L20.779,36.999 L18.142,36.999 L18.142,24.203 L26.474,24.203 L26.474,26.338 L20.779,26.338 L20.779,29.643 Z"/>
<path fill-rule="evenodd"  fill="rgb(255, 153, 12)"
 d="M70.814,66.587 C70.29,67.654 69.27,68.363 67.808,68.714 C67.667,69.417 67.427,70.249 67.87,71.210 C66.747,72.171 66.208,73.79 65.470,73.935 C64.732,74.790 63.759,75.511 62.552,76.97 C61.345,76.683 59.828,76.976 57.999,76.976 C54.624,76.976 52.263,77.503 50.916,78.558 C49.568,79.613 48.706,80.585 48.331,81.476 C49.410,81.945 50.289,82.671 50.968,83.656 C51.648,84.640 51.988,85.753 51.988,86.996 C51.988,88.660 51.402,90.78 50.230,91.249 C49.58,92.421 47.640,93.7 45.976,93.7 C44.312,93.7 42.900,92.421 41.740,91.249 C40.580,90.78 39.999,88.660 39.999,86.996 C39.999,85.683 40.369,84.511 41.107,83.480 C41.845,82.449 42.800,81.734 43.972,81.335 L43.972,64.636 C42.800,64.238 41.845,63.523 41.107,62.492 C40.369,61.460 39.999,60.288 39.999,58.976 C39.999,57.335 40.580,55.929 41.740,54.757 C42.900,53.585 44.312,52.999 45.976,52.999 C47.640,52.999 49.58,53.585 50.230,54.757 C51.402,55.929 51.988,57.335 51.988,58.976 C51.988,60.288 51.613,61.460 50.863,62.492 C50.113,63.523 49.152,64.238 47.980,64.636 L47.980,75.218 C48.871,74.585 49.966,74.58 51.267,73.636 C52.568,73.214 54.144,73.3 55.995,73.3 C58.667,73.3 60.542,72.482 61.620,71.439 C62.699,70.396 63.390,69.429 63.695,68.539 C62.617,68.93 61.726,67.372 61.23,66.376 C60.320,65.380 59.968,64.249 59.968,62.984 C59.968,61.320 60.554,59.908 61.726,58.748 C62.898,57.587 64.316,57.7 65.980,57.7 C67.644,57.7 69.62,57.587 70.234,58.748 C71.406,59.908 71.992,61.320 71.992,62.984 C71.992,64.320 71.599,65.521 70.814,66.587 ZM47.400,57.587 C47.13,57.201 46.538,57.7 45.976,57.7 C45.437,57.7 44.968,57.201 44.570,57.587 C44.171,57.974 43.972,58.437 43.972,58.976 C43.972,59.539 44.171,60.13 44.570,60.400 C44.968,60.787 45.437,60.980 45.976,60.980 C46.538,60.980 47.13,60.787 47.400,60.400 C47.787,60.13 47.980,59.539 47.980,58.976 C47.980,58.437 47.787,57.974 47.400,57.587 ZM47.400,85.572 C47.13,85.185 46.538,84.992 45.976,84.992 C45.437,84.992 44.968,85.185 44.570,85.572 C44.171,85.958 43.972,86.433 43.972,86.996 C43.972,87.535 44.171,88.3 44.570,88.402 C44.968,88.800 45.437,88.999 45.976,88.999 C46.538,88.999 47.13,88.800 47.400,88.402 C47.787,88.3 47.980,87.535 47.980,86.996 C47.980,86.433 47.787,85.958 47.400,85.572 ZM67.404,61.578 C67.17,61.179 66.542,60.980 65.980,60.980 C65.441,60.980 64.972,61.179 64.574,61.578 C64.175,61.976 63.976,62.445 63.976,62.984 C63.976,63.546 64.175,64.21 64.574,64.408 C64.972,64.794 65.441,64.988 65.980,64.988 C66.542,64.988 67.17,64.794 67.404,64.408 C67.790,64.21 67.984,63.546 67.984,62.984 C67.984,62.445 67.790,61.976 67.404,61.578 Z"/>
</svg>