<svg 
 xmlns="http://www.w3.org/2000/svg"
 xmlns:xlink="http://www.w3.org/1999/xlink"
 width="96px" height="107px">
<path fill-rule="evenodd"  fill="rgb(17, 144, 124)"
 d="M95.769,106.362 L13.999,106.362 L13.999,0.0 L70.216,0.0 L95.769,25.324 L95.769,106.362 Z"/>
<path fill-rule="evenodd"  fill="rgb(55, 210, 186)"
 d="M92.275,28.58 L67.999,28.58 L67.999,3.999 L92.275,28.58 Z"/>
<path fill-rule="evenodd"  fill="rgb(13, 98, 84)"
 d="M0.0,19.999 C0.0,17.790 1.790,15.999 3.999,15.999 L50.999,15.999 C53.209,15.999 54.999,17.790 54.999,19.999 L54.999,39.999 C54.999,42.209 53.209,43.999 50.999,43.999 L3.999,43.999 C1.790,43.999 0.0,42.209 0.0,39.999 L0.0,19.999 Z"/>
<path fill-rule="evenodd"  fill="rgb(55, 210, 186)"
 d="M41.962,35.999 L41.962,23.913 L44.452,23.913 L44.452,33.999 L49.740,33.999 L49.740,35.999 L41.962,35.999 ZM37.720,32.696 L37.969,26.993 L34.707,35.999 L32.997,35.999 L29.743,27.1 L29.992,32.696 L29.992,35.999 L27.502,35.999 L27.502,23.913 L30.756,23.913 L33.861,32.679 L36.948,23.913 L40.219,23.913 L40.219,35.999 L37.720,35.999 L37.720,32.696 ZM22.813,35.999 L20.322,35.999 L20.322,25.931 L16.670,25.931 L16.670,23.913 L26.515,23.913 L26.515,25.931 L22.813,25.931 L22.813,35.999 ZM13.425,30.820 L8.569,30.820 L8.569,35.999 L6.79,35.999 L6.79,23.913 L8.569,23.913 L8.569,28.811 L13.425,28.811 L13.425,23.913 L15.915,23.913 L15.915,35.999 L13.425,35.999 L13.425,30.820 Z"/>
<path fill-rule="evenodd"  fill="rgb(55, 210, 186)"
 d="M62.671,86.953 L56.976,81.257 L66.328,71.976 L56.976,62.624 L62.671,56.999 L77.648,71.976 L62.671,86.953 ZM47.976,86.953 L32.999,71.976 L47.976,56.999 L53.671,62.624 L44.320,71.976 L53.671,81.257 L47.976,86.953 Z"/>
</svg>