<svg 
 xmlns="http://www.w3.org/2000/svg"
 xmlns:xlink="http://www.w3.org/1999/xlink"
 width="96px" height="107px">
<path fill-rule="evenodd"  fill="rgb(139, 25, 77)"
 d="M95.769,106.362 L13.999,106.362 L13.999,0.0 L70.216,0.0 L95.769,25.324 L95.769,106.362 Z"/>
<path fill-rule="evenodd"  fill="rgb(255, 44, 142)"
 d="M92.275,28.58 L67.999,28.58 L67.999,3.999 L92.275,28.58 Z"/>
<path fill-rule="evenodd"  fill="rgb(94, 16, 52)"
 d="M0.0,19.999 C0.0,17.790 1.790,15.999 3.999,15.999 L50.999,15.999 C53.209,15.999 54.999,17.790 54.999,19.999 L54.999,39.999 C54.999,42.209 53.209,43.999 50.999,43.999 L3.999,43.999 C1.790,43.999 0.0,42.209 0.0,39.999 L0.0,19.999 Z"/>
<path fill-rule="evenodd"  fill="rgb(255, 47, 143)"
 d="M40.282,34.73 C39.793,34.998 39.103,35.716 38.213,36.226 C37.322,36.736 36.317,36.994 35.198,36.999 L31.234,36.999 L31.234,24.203 L35.172,24.203 C36.297,24.203 37.303,24.456 38.191,24.963 C39.78,25.470 39.771,26.190 40.269,27.125 C40.767,28.60 41.16,29.121 41.16,30.311 L41.16,30.900 C41.16,32.89 40.772,33.147 40.282,34.73 ZM38.344,30.302 C38.344,29.1 38.75,28.16 37.536,27.345 C36.997,26.674 36.209,26.338 35.172,26.338 L33.871,26.338 L33.871,34.881 L35.145,34.881 C36.176,34.881 36.964,34.544 37.509,33.871 C38.54,33.197 38.333,32.233 38.344,30.979 L38.344,30.302 ZM21.594,28.580 L21.594,36.999 L18.957,36.999 L18.957,24.203 L21.594,24.203 L26.735,32.640 L26.735,24.203 L29.363,24.203 L29.363,36.999 L26.727,36.999 L21.594,28.580 ZM14.309,24.203 L16.946,24.203 L16.946,36.999 L14.309,36.999 L14.309,24.203 Z"/>
<path fill-rule="evenodd"  fill="rgb(255, 44, 142)"
 d="M75.406,88.934 C75.221,89.129 75.10,89.227 74.772,89.227 C74.685,89.227 74.609,89.232 74.544,89.243 C74.479,89.254 74.403,89.238 74.316,89.194 C73.15,88.500 71.606,87.996 70.89,87.682 C68.571,87.368 67.53,87.211 65.536,87.211 C64.734,87.211 63.872,87.281 62.950,87.422 C62.29,87.563 61.108,87.758 60.186,88.7 C59.265,88.257 58.381,88.549 57.536,88.885 C56.690,89.221 55.964,89.595 55.357,90.7 C54.685,89.487 53.942,89.53 53.129,88.706 C52.316,88.360 51.471,88.72 50.593,87.845 C49.715,87.617 48.815,87.454 47.894,87.357 C46.972,87.259 46.67,87.211 45.178,87.211 C43.834,87.211 42.344,87.395 40.707,87.763 C39.70,88.132 37.633,88.620 36.398,89.227 C36.289,89.227 36.208,89.248 36.154,89.292 C36.100,89.335 36.18,89.357 35.910,89.357 C35.693,89.357 35.487,89.259 35.292,89.64 C35.97,88.869 34.999,88.663 34.999,88.446 L34.999,61.325 C35.671,60.804 36.409,60.371 37.211,60.24 C38.13,59.677 38.853,59.395 39.731,59.178 C40.609,58.961 41.509,58.799 42.430,58.690 C43.352,58.582 44.268,58.528 45.178,58.528 C46.67,58.528 46.972,58.582 47.894,58.690 C48.815,58.799 49.715,58.961 50.593,59.178 C51.471,59.395 52.316,59.677 53.129,60.24 C53.942,60.371 54.685,60.804 55.357,61.325 L55.357,86.300 C55.964,85.910 56.690,85.541 57.536,85.194 C58.381,84.847 59.265,84.555 60.186,84.316 C61.108,84.78 62.29,83.883 62.950,83.731 C63.872,83.579 64.734,83.503 65.536,83.503 C66.641,83.503 67.742,83.579 68.837,83.731 C69.931,83.883 70.988,84.121 72.7,84.446 L72.7,59.471 C72.701,59.709 73.351,59.975 73.958,60.268 C74.566,60.560 75.140,60.913 75.682,61.325 L75.682,88.316 C75.682,88.533 75.590,88.739 75.406,88.934 ZM59.32,61.325 L68.300,52.999 L68.300,73.357 L59.32,81.682 L59.32,61.325 Z"/>
</svg>