<svg 
 xmlns="http://www.w3.org/2000/svg"
 xmlns:xlink="http://www.w3.org/1999/xlink"
 width="96px" height="107px">
<path fill-rule="evenodd"  fill="rgb(203, 166, 16)"
 d="M95.769,106.362 L13.999,106.362 L13.999,0.0 L70.216,0.0 L95.769,25.324 L95.769,106.362 Z"/>
<path fill-rule="evenodd"  fill="rgb(243, 206, 56)"
 d="M92.275,28.58 L67.999,28.58 L67.999,3.999 L92.275,28.58 Z"/>
<path fill-rule="evenodd"  fill="rgb(175, 143, 14)"
 d="M0.0,19.999 C0.0,17.790 1.790,15.999 3.999,15.999 L50.999,15.999 C53.209,15.999 54.999,17.790 54.999,19.999 L54.999,39.999 C54.999,42.209 53.209,43.999 50.999,43.999 L3.999,43.999 C1.790,43.999 0.0,42.209 0.0,39.999 L0.0,19.999 Z"/>
<text kerning="auto" font-family="DejaVuSans" fill="rgb(0, 0, 0)" font-size="18px" x="9px" y="38.7139999999999px"><tspan font-size="18px" font-family="Roboto" font-weight="bold" fill="#F3CE38">JPP</tspan></text>
<path fill-rule="evenodd"  fill="rgb(243, 206, 56)"
 d="M71.822,90.822 C71.37,91.607 70.93,91.999 68.992,91.999 L40.972,91.999 C39.894,91.999 38.962,91.607 38.177,90.822 C37.392,90.37 36.999,89.93 36.999,87.992 L36.999,59.972 C36.999,58.894 37.392,57.962 38.177,57.177 C38.962,56.392 39.894,55.999 40.972,55.999 L68.992,55.999 C70.93,55.999 71.37,56.386 71.822,57.160 C72.607,57.933 72.999,58.871 72.999,59.972 L72.999,87.992 C72.999,89.93 72.607,90.37 71.822,90.822 ZM59.992,73.999 L52.996,82.999 L48.3,76.988 L40.972,85.988 L68.992,85.988 L59.992,73.999 Z"/>
</svg>