<svg 
 xmlns="http://www.w3.org/2000/svg"
 xmlns:xlink="http://www.w3.org/1999/xlink"
 width="96px" height="107px">
<path fill-rule="evenodd"  fill="rgb(8, 37, 49)"
 d="M95.769,106.362 L13.999,106.362 L13.999,0.0 L70.216,0.0 L95.769,25.324 L95.769,106.362 Z"/>
<path fill-rule="evenodd"  fill="rgb(167, 207, 233)"
 d="M92.275,28.58 L67.999,28.58 L67.999,3.999 L92.275,28.58 Z"/>
<path fill-rule="evenodd"  fill="rgb(0, 0, 0)"
 d="M0.0,19.999 C0.0,17.790 1.790,15.999 3.999,15.999 L50.999,15.999 C53.209,15.999 54.999,17.790 54.999,19.999 L54.999,39.999 C54.999,42.209 53.209,43.999 50.999,43.999 L3.999,43.999 C1.790,43.999 0.0,42.209 0.0,39.999 L0.0,19.999 Z"/>
<path fill-rule="evenodd"  fill="rgb(167, 207, 233)"
 d="M36.424,36.999 L33.594,36.999 L31.194,32.315 L29.94,32.315 L29.94,36.999 L26.457,36.999 L26.457,24.203 L31.212,24.203 C32.724,24.203 33.890,24.539 34.710,25.213 C35.530,25.887 35.940,26.839 35.940,28.70 C35.940,28.943 35.751,29.671 35.374,30.254 C34.996,30.837 34.423,31.301 33.655,31.647 L36.424,36.876 L36.424,36.999 ZM32.790,26.857 C32.447,26.511 31.921,26.338 31.212,26.338 L29.94,26.338 L29.94,30.179 L31.221,30.179 C31.883,30.179 32.396,30.11 32.759,29.674 C33.122,29.337 33.304,28.872 33.304,28.281 C33.304,27.677 33.132,27.203 32.790,26.857 ZM17.142,24.203 L19.779,24.203 L19.779,34.881 L25.377,34.881 L25.377,36.999 L17.142,36.999 L17.142,24.203 Z"/>
<path fill-rule="evenodd"  fill="rgb(167, 207, 233)"
 d="M68.597,69.437 C68.316,70.538 67.912,71.582 67.384,72.566 C66.857,73.550 66.224,74.453 65.486,75.273 C64.747,76.93 63.921,76.832 63.7,77.488 L63.7,81.988 C63.7,82.550 62.814,83.25 62.427,83.412 C62.40,83.798 61.566,83.992 61.3,83.992 L49.15,83.992 C48.476,83.992 48.7,83.798 47.609,83.412 C47.210,83.25 47.11,82.550 47.11,81.988 L47.11,77.488 C46.97,76.832 45.277,76.93 44.550,75.273 C43.824,74.453 43.197,73.550 42.669,72.566 C42.142,71.582 41.732,70.538 41.439,69.437 C41.146,68.335 40.999,67.187 40.999,65.992 C40.999,64.46 41.369,62.224 42.107,60.525 C42.845,58.826 43.847,57.343 45.113,56.78 C46.378,54.812 47.861,53.816 49.560,53.89 C51.259,52.363 53.81,51.999 55.27,51.999 C56.949,51.999 58.759,52.363 60.458,53.89 C62.158,53.816 63.640,54.812 64.906,56.78 C66.171,57.343 67.173,58.826 67.912,60.525 C68.650,62.224 69.19,64.46 69.19,65.992 C69.19,67.187 68.878,68.335 68.597,69.437 ZM64.220,62.107 C63.693,60.900 62.978,59.839 62.76,58.925 C61.173,58.11 60.119,57.296 58.912,56.781 C57.705,56.265 56.410,56.7 55.27,56.7 C53.644,56.7 52.343,56.265 51.124,56.781 C49.906,57.296 48.845,58.11 47.943,58.925 C47.40,59.839 46.326,60.900 45.798,62.107 C45.271,63.314 45.7,64.609 45.7,65.992 C45.7,67.23 45.154,68.7 45.447,68.945 C45.740,69.882 46.150,70.744 46.677,71.529 C47.205,72.314 47.837,73.17 48.576,73.638 C49.314,74.259 50.128,74.769 51.19,75.167 L51.19,79.984 L58.999,79.984 L58.999,75.167 C59.890,74.769 60.705,74.259 61.443,73.638 C62.181,73.17 62.814,72.314 63.341,71.529 C63.869,70.744 64.279,69.882 64.572,68.945 C64.865,68.7 65.11,67.23 65.11,65.992 C65.11,64.609 64.747,63.314 64.220,62.107 ZM61.3,90.3 C61.3,90.542 60.810,91.11 60.423,91.410 C60.37,91.808 59.562,92.7 58.999,92.7 L51.19,92.7 C50.456,92.7 49.982,91.808 49.595,91.410 C49.208,91.11 49.15,90.542 49.15,90.3 L49.15,87.999 L61.3,87.999 L61.3,90.3 Z"/>
</svg>