<svg 
 xmlns="http://www.w3.org/2000/svg"
 xmlns:xlink="http://www.w3.org/1999/xlink"
 width="96px" height="107px">
<path fill-rule="evenodd"  fill="rgb(166, 58, 61)"
 d="M95.769,106.362 L13.999,106.362 L13.999,0.0 L70.216,0.0 L95.769,25.324 L95.769,106.362 Z"/>
<path fill-rule="evenodd"  fill="rgb(235, 109, 113)"
 d="M92.275,28.58 L67.999,28.58 L67.999,3.999 L92.275,28.58 Z"/>
<path fill-rule="evenodd"  fill="rgb(92, 28, 30)"
 d="M0.0,19.999 C0.0,17.790 1.790,15.999 3.999,15.999 L50.999,15.999 C53.209,15.999 54.999,17.790 54.999,19.999 L54.999,39.999 C54.999,42.209 53.209,43.999 50.999,43.999 L3.999,43.999 C1.790,43.999 0.0,42.209 0.0,39.999 L0.0,19.999 Z"/>
<path fill-rule="evenodd"  fill="rgb(235, 109, 113)"
 d="M43.135,29.782 C43.755,29.937 44.244,30.250 44.601,30.720 C44.957,31.191 45.136,31.766 45.136,32.447 C45.136,33.609 44.765,34.489 44.24,35.86 C43.282,35.684 42.225,35.988 40.853,35.999 L36.155,35.999 L36.155,23.913 L40.388,23.913 C41.854,23.913 42.967,24.194 43.725,24.756 C44.483,25.318 44.862,26.141 44.862,27.226 C44.862,27.818 44.710,28.339 44.405,28.790 C44.101,29.241 43.678,29.572 43.135,29.782 ZM41.894,26.292 C41.576,26.51 41.74,25.931 40.388,25.931 L38.645,25.931 L38.645,28.977 L40.487,28.977 C41.744,28.955 42.372,28.454 42.372,27.475 C42.372,26.927 42.213,26.532 41.894,26.292 ZM40.927,30.737 L38.645,30.737 L38.645,33.999 L40.778,33.999 C41.365,33.999 41.823,33.859 42.152,33.580 C42.481,33.300 42.646,32.914 42.646,32.422 C42.646,31.315 42.73,30.753 40.927,30.737 ZM32.129,35.269 C31.288,35.750 30.339,35.994 29.282,35.999 L25.538,35.999 L25.538,23.913 L29.257,23.913 C30.319,23.913 31.270,24.153 32.108,24.632 C32.947,25.110 33.601,25.791 34.71,26.674 C34.542,27.556 34.777,28.559 34.777,29.683 L34.777,30.239 C34.777,31.362 34.546,32.361 34.84,33.235 C33.622,34.110 32.970,34.788 32.129,35.269 ZM32.253,29.674 C32.253,28.446 31.999,27.515 31.490,26.881 C30.981,26.247 30.236,25.931 29.257,25.931 L28.28,25.931 L28.28,33.999 L29.232,33.999 C30.206,33.999 30.950,33.681 31.465,33.44 C31.980,32.408 32.242,31.498 32.253,30.313 L32.253,29.674 ZM21.297,32.696 L21.546,26.993 L18.284,35.999 L16.574,35.999 L13.320,27.1 L13.569,32.696 L13.569,35.999 L11.79,35.999 L11.79,23.913 L14.332,23.913 L17.437,32.679 L20.525,23.913 L23.795,23.913 L23.795,35.999 L21.297,35.999 L21.297,32.696 Z"/>
<path fill-rule="evenodd"  fill="rgb(235, 109, 113)"
 d="M74.322,86.35 C73.865,87.347 73.232,88.537 72.423,89.603 C71.615,90.669 70.665,91.589 69.576,92.363 C68.486,93.136 67.296,93.675 66.7,93.980 C64.718,93.675 63.523,93.136 62.421,92.363 C61.320,91.589 60.365,90.669 59.556,89.603 C58.747,88.537 58.120,87.347 57.675,86.35 C57.230,84.722 57.7,83.374 57.7,81.992 L57.7,75.980 L66.7,72.7 L75.7,75.980 L75.7,81.992 C75.7,83.374 74.779,84.722 74.322,86.35 ZM66.7,75.874 L60.980,78.124 L60.980,83.433 C60.980,84.980 61.460,86.392 62.421,87.669 C63.382,88.947 64.578,89.761 66.7,90.113 L66.7,75.874 ZM52.999,72.886 L52.999,77.984 L37.3,77.984 C36.441,77.984 35.966,77.790 35.580,77.404 C35.193,77.17 34.999,76.542 34.999,75.980 L34.999,67.999 C34.999,67.437 35.193,66.962 35.580,66.576 C35.966,66.189 36.441,65.996 37.3,65.996 L68.996,65.996 C69.535,65.996 70.3,66.189 70.402,66.576 C70.800,66.962 70.999,67.437 70.999,67.999 L70.999,69.335 L66.7,67.121 L52.999,72.886 ZM42.980,70.3 L39.7,70.3 L39.7,74.11 L42.980,74.11 L42.980,70.3 ZM48.992,70.3 L46.988,70.3 L46.988,74.11 L48.992,74.11 L48.992,70.3 ZM68.996,61.988 L37.3,61.988 C36.441,61.988 35.966,61.794 35.580,61.408 C35.193,61.21 34.999,60.546 34.999,59.984 L34.999,52.3 C34.999,51.441 35.193,50.966 35.580,50.580 C35.966,50.193 36.441,49.999 37.3,49.999 L68.996,49.999 C69.535,49.999 70.3,50.193 70.402,50.580 C70.800,50.966 70.999,51.441 70.999,52.3 L70.999,59.984 C70.999,60.546 70.800,61.21 70.402,61.408 C70.3,61.794 69.535,61.988 68.996,61.988 ZM42.980,54.7 L39.7,54.7 L39.7,57.980 L42.980,57.980 L42.980,54.7 ZM48.992,54.7 L46.988,54.7 L46.988,57.980 L48.992,57.980 L48.992,54.7 ZM37.3,81.992 L52.999,81.992 C53.23,83.117 53.158,84.224 53.404,85.314 C53.650,86.404 53.984,87.458 54.406,88.478 C54.828,89.497 55.337,90.470 55.935,91.396 C56.533,92.322 57.195,93.183 57.921,93.980 L37.3,93.980 C36.441,93.980 35.966,93.787 35.580,93.400 C35.193,93.13 34.999,92.550 34.999,92.11 L34.999,83.996 C34.999,83.456 35.193,82.988 35.580,82.589 C35.966,82.191 36.441,81.992 37.3,81.992 ZM46.988,90.7 L48.992,90.7 L48.992,85.999 L46.988,85.999 L46.988,90.7 ZM39.7,90.7 L42.980,90.7 L42.980,85.999 L39.7,85.999 L39.7,90.7 Z"/>
</svg>