<svg 
 xmlns="http://www.w3.org/2000/svg"
 xmlns:xlink="http://www.w3.org/1999/xlink"
 width="96px" height="107px">
<path fill-rule="evenodd"  fill="rgb(121, 169, 46)"
 d="M95.769,106.362 L13.999,106.362 L13.999,0.0 L70.216,0.0 L95.769,25.324 L95.769,106.362 Z"/>
<path fill-rule="evenodd"  fill="rgb(153, 205, 72)"
 d="M92.275,28.58 L67.999,28.58 L67.999,3.999 L92.275,28.58 Z"/>
<path fill-rule="evenodd"  fill="rgb(101, 140, 40)"
 d="M0.0,19.999 C0.0,17.790 1.790,15.999 3.999,15.999 L50.999,15.999 C53.209,15.999 54.999,17.790 54.999,19.999 L54.999,39.999 C54.999,42.209 53.209,43.999 50.999,43.999 L3.999,43.999 C1.790,43.999 0.0,42.209 0.0,39.999 L0.0,19.999 Z"/>
<path fill-rule="evenodd"  fill="rgb(153, 205, 72)"
 d="M40.495,26.615 C40.126,26.290 39.607,26.127 38.939,26.127 C38.295,26.127 37.794,26.264 37.436,26.536 C37.79,26.809 36.900,27.167 36.900,27.613 C36.900,28.29 37.110,28.377 37.529,28.659 C37.947,28.940 38.564,29.204 39.379,29.450 C40.879,29.901 41.971,30.460 42.657,31.128 C43.343,31.796 43.685,32.628 43.685,33.624 C43.685,34.732 43.266,35.601 42.428,36.230 C41.591,36.860 40.463,37.175 39.45,37.175 C38.60,37.175 37.164,36.995 36.355,36.635 C35.547,36.274 34.930,35.781 34.505,35.154 C34.80,34.527 33.868,33.800 33.868,32.974 L36.513,32.974 C36.513,34.386 37.357,35.92 39.45,35.92 C39.672,35.92 40.161,34.965 40.512,34.710 C40.864,34.455 41.40,34.99 41.40,33.642 C41.40,33.144 40.864,32.762 40.512,32.495 C40.161,32.228 39.528,31.947 38.614,31.651 C37.700,31.355 36.976,31.64 36.443,30.777 C34.990,29.992 34.263,28.934 34.263,27.604 C34.263,26.913 34.458,26.296 34.848,25.754 C35.238,25.212 35.797,24.788 36.526,24.484 C37.256,24.179 38.75,24.27 38.983,24.27 C39.897,24.27 40.712,24.192 41.426,24.523 C42.141,24.854 42.696,25.322 43.92,25.925 C43.487,26.529 43.685,27.214 43.685,27.982 L41.48,27.982 C41.48,27.396 40.864,26.940 40.495,26.615 ZM30.116,36.226 C29.226,36.736 28.221,36.994 27.102,36.999 L23.138,36.999 L23.138,24.203 L27.75,24.203 C28.200,24.203 29.207,24.456 30.94,24.963 C30.982,25.470 31.675,26.190 32.173,27.125 C32.671,28.60 32.920,29.121 32.920,30.311 L32.920,30.900 C32.920,32.89 32.675,33.147 32.186,34.73 C31.697,34.998 31.7,35.716 30.116,36.226 ZM30.248,30.302 C30.248,29.1 29.979,28.16 29.440,27.345 C28.900,26.674 28.112,26.338 27.75,26.338 L25.775,26.338 L25.775,34.881 L27.49,34.881 C28.80,34.881 28.868,34.544 29.413,33.871 C29.958,33.197 30.236,32.233 30.248,30.979 L30.248,30.302 ZM19.74,36.402 C18.245,36.917 17.294,37.175 16.222,37.175 C15.161,37.175 14.215,36.920 13.383,36.411 C12.551,35.901 11.907,35.173 11.450,34.227 C10.993,33.280 10.761,32.192 10.755,30.961 L10.755,30.329 C10.755,29.69 10.982,27.960 11.436,27.2 C11.891,26.44 12.532,25.308 13.361,24.796 C14.190,24.283 15.138,24.27 16.204,24.27 C17.271,24.27 18.219,24.283 19.48,24.796 C19.877,25.308 20.518,26.44 20.973,27.2 C21.427,27.960 21.654,29.66 21.654,30.320 L21.654,30.891 C21.654,32.151 21.431,33.255 20.986,34.205 C20.540,35.154 19.903,35.886 19.74,36.402 ZM18.982,30.311 C18.982,28.969 18.742,27.950 18.261,27.252 C17.781,26.555 17.95,26.206 16.204,26.206 C15.320,26.206 14.637,26.551 14.157,27.239 C13.676,27.928 13.433,28.937 13.427,30.267 L13.427,30.891 C13.427,32.198 13.667,33.211 14.148,33.932 C14.628,34.653 15.320,35.13 16.222,35.13 C17.107,35.13 17.787,34.666 18.261,33.972 C18.736,33.277 18.976,32.265 18.982,30.935 L18.982,30.311 Z"/>
<path fill-rule="evenodd"  fill="rgb(153, 205, 72)"
 d="M73.562,56.999 L59.374,56.999 L59.374,64.124 L62.874,64.124 L55.812,70.62 L48.687,64.124 L52.249,64.124 L52.249,56.999 L37.999,56.999 L37.999,64.124 L41.562,64.124 L52.249,72.999 L41.562,81.874 L37.999,81.874 L37.999,88.999 L52.249,88.999 L52.249,81.874 L48.687,81.874 L55.812,75.937 L62.874,81.874 L59.374,81.874 L59.374,88.999 L73.562,88.999 L73.562,81.874 L69.999,81.874 L59.374,72.999 L69.999,64.124 L73.562,64.124 L73.562,56.999 Z"/>
</svg>