<svg 
 xmlns="http://www.w3.org/2000/svg"
 xmlns:xlink="http://www.w3.org/1999/xlink"
 width="96px" height="107px">
<path fill-rule="evenodd"  fill="rgb(123, 182, 246)"
 d="M92.275,28.58 L67.999,28.58 L67.999,3.999 L92.275,28.58 Z"/>
<path fill-rule="evenodd"  fill="rgb(44, 122, 205)"
 d="M0.0,19.999 C0.0,17.790 1.790,15.999 3.999,15.999 L50.999,15.999 C53.209,15.999 54.999,17.790 54.999,19.999 L54.999,39.999 C54.999,42.209 53.209,43.999 50.999,43.999 L3.999,43.999 C1.790,43.999 0.0,42.209 0.0,39.999 L0.0,19.999 Z"/>
<text kerning="auto" font-family="DejaVuSans" fill="rgb(0, 0, 0)" font-size="18px" x="10px" y="38.7140000000001px"><tspan font-size="18px" font-family="Roboto" font-weight="bold" fill="#69A5F3">DO</tspan><tspan font-size="18px" font-family="Roboto" font-weight="bold" fill="#69A5F3">C</tspan></text>
<path fill-rule="evenodd"  fill="rgb(118, 177, 241)"
 d="M39.999,67.917 L41.944,67.917 L41.944,85.422 L48.266,85.422 L53.128,76.771 L53.128,85.422 L58.963,85.422 L67.716,67.917 L69.661,67.917 L69.661,64.999 L60.908,64.999 L60.908,67.917 L62.367,67.917 L58.963,74.623 L58.963,64.999 L52.156,64.999 L46.321,75.981 L46.321,67.917 L48.266,67.917 L48.266,64.999 L39.999,64.999 L39.999,67.917 Z"/>
<path fill-rule="evenodd"  fill="rgb(123, 182, 246)"
 d="M92.275,28.58 L67.999,28.58 L67.999,3.999 L92.275,28.58 Z"/>
<path fill-rule="evenodd"  fill="rgb(44, 122, 205)"
 d="M0.0,19.999 C0.0,17.790 1.790,15.999 3.999,15.999 L50.999,15.999 C53.209,15.999 54.999,17.790 54.999,19.999 L54.999,39.999 C54.999,42.209 53.209,43.999 50.999,43.999 L3.999,43.999 C1.790,43.999 0.0,42.209 0.0,39.999 L0.0,19.999 Z"/>
<text kerning="auto" font-family="DejaVuSans" fill="rgb(0, 0, 0)" font-size="18px" x="10px" y="38.7140000000001px"><tspan font-size="18px" font-family="Roboto" font-weight="bold" fill="#69A5F3">DO</tspan><tspan font-size="18px" font-family="Roboto" font-weight="bold" fill="#69A5F3">C</tspan></text>
<path fill-rule="evenodd"  fill="rgb(255, 255, 255)"
 d="M34.999,63.900 L37.600,63.900 L37.600,87.307 L46.52,87.307 L52.554,75.739 L52.554,87.307 L60.356,87.307 L72.59,63.900 L74.659,63.900 L74.659,59.999 L62.957,59.999 L62.957,63.900 L64.907,63.900 L60.356,72.867 L60.356,59.999 L51.254,59.999 L43.451,74.683 L43.451,63.900 L46.52,63.900 L46.52,59.999 L34.999,59.999 L34.999,63.900 Z"/>
<path fill-rule="evenodd"  fill="rgb(123, 182, 246)"
 d="M92.275,28.58 L67.999,28.58 L67.999,3.999 L92.275,28.58 Z"/>
<path fill-rule="evenodd"  fill="rgb(44, 122, 205)"
 d="M0.0,19.999 C0.0,17.790 1.790,15.999 3.999,15.999 L50.999,15.999 C53.209,15.999 54.999,17.790 54.999,19.999 L54.999,39.999 C54.999,42.209 53.209,43.999 50.999,43.999 L3.999,43.999 C1.790,43.999 0.0,42.209 0.0,39.999 L0.0,19.999 Z"/>
<text kerning="auto" font-family="DejaVuSans" fill="rgb(0, 0, 0)" font-size="18px" x="10px" y="38.7140000000001px"><tspan font-size="18px" font-family="Roboto" font-weight="bold" fill="#69A5F3">DO</tspan><tspan font-size="18px" font-family="Roboto" font-weight="bold" fill="#69A5F3">C</tspan></text>
<path fill-rule="evenodd"  fill="rgb(118, 177, 241)"
 d="M39.999,67.917 L41.944,67.917 L41.944,85.422 L48.266,85.422 L53.128,76.771 L53.128,85.422 L58.963,85.422 L67.716,67.917 L69.661,67.917 L69.661,64.999 L60.908,64.999 L60.908,67.917 L62.367,67.917 L58.963,74.623 L58.963,64.999 L52.156,64.999 L46.321,75.981 L46.321,67.917 L48.266,67.917 L48.266,64.999 L39.999,64.999 L39.999,67.917 Z"/>
<path fill-rule="evenodd"  fill="rgb(235, 95, 95)"
 d="M95.769,106.362 L13.999,106.362 L13.999,0.0 L70.216,0.0 L95.769,25.324 L95.769,106.362 Z"/>
<path fill-rule="evenodd"  fill="rgb(255, 171, 171)"
 d="M92.275,28.58 L67.999,28.58 L67.999,3.999 L92.275,28.58 Z"/>
<path fill-rule="evenodd"  fill="rgb(194, 73, 73)"
 d="M0.0,19.999 C0.0,17.790 1.790,15.999 3.999,15.999 L50.999,15.999 C53.209,15.999 54.999,17.790 54.999,19.999 L54.999,39.999 C54.999,42.209 53.209,43.999 50.999,43.999 L3.999,43.999 C1.790,43.999 0.0,42.209 0.0,39.999 L0.0,19.999 Z"/>
<path fill-rule="evenodd"  fill="rgb(255, 171, 171)"
 d="M42.56,33.999 L42.56,35.999 L33.955,35.999 L33.955,23.913 L42.40,23.913 L42.40,25.931 L36.445,25.931 L36.445,28.811 L41.226,28.811 L41.226,30.762 L36.445,30.762 L36.445,33.999 L42.56,33.999 ZM24.874,28.47 L24.874,35.999 L22.384,35.999 L22.384,23.913 L24.874,23.913 L29.730,31.882 L29.730,23.913 L32.212,23.913 L32.212,35.999 L29.722,35.999 L24.874,28.47 ZM18.570,35.435 C17.787,35.922 16.889,36.165 15.876,36.165 C14.875,36.165 13.981,35.925 13.195,35.443 C12.409,34.962 11.801,34.274 11.369,33.381 C10.937,32.487 10.719,31.459 10.713,30.297 L10.713,29.699 C10.713,28.509 10.928,27.462 11.357,26.557 C11.785,25.653 12.392,24.958 13.175,24.474 C13.958,23.990 14.853,23.748 15.860,23.748 C16.867,23.748 17.762,23.990 18.545,24.474 C19.328,24.958 19.934,25.653 20.363,26.557 C20.792,27.462 21.6,28.507 21.6,29.691 L21.6,30.230 C21.6,31.420 20.796,32.463 20.375,33.360 C19.955,34.256 19.353,34.948 18.570,35.435 ZM18.483,29.683 C18.483,28.415 18.256,27.452 17.802,26.794 C17.348,26.135 16.701,25.806 15.860,25.806 C15.24,25.806 14.379,26.131 13.926,26.781 C13.472,27.432 13.242,28.385 13.237,29.641 L13.237,30.230 C13.237,31.464 13.464,32.422 13.917,33.103 C14.371,33.783 15.24,34.123 15.876,34.123 C16.712,34.123 17.354,33.796 17.802,33.140 C18.250,32.484 18.477,31.528 18.483,30.272 L18.483,29.683 Z"/>
<path fill-rule="evenodd"  fill="rgb(255, 171, 171)"
 d="M32.999,68.945 L32.999,60.999 L81.23,60.999 L81.23,68.945 L32.999,68.945 ZM68.999,84.976 L32.999,84.976 L32.999,76.960 L68.999,76.960 L68.999,84.976 Z"/>
</svg>