<svg 
 xmlns="http://www.w3.org/2000/svg"
 xmlns:xlink="http://www.w3.org/1999/xlink"
 width="96px" height="107px">
<path fill-rule="evenodd"  fill="rgb(198, 23, 22)"
 d="M95.769,106.362 L13.999,106.362 L13.999,0.0 L70.216,0.0 L95.769,25.324 L95.769,106.362 Z"/>
<path fill-rule="evenodd"  fill="rgb(255, 127, 127)"
 d="M92.275,28.58 L67.999,28.58 L67.999,3.999 L92.275,28.58 Z"/>
<path fill-rule="evenodd"  fill="rgb(159, 19, 18)"
 d="M0.0,19.999 C0.0,17.790 1.790,15.999 3.999,15.999 L50.999,15.999 C53.209,15.999 54.999,17.790 54.999,19.999 L54.999,39.999 C54.999,42.209 53.209,43.999 50.999,43.999 L3.999,43.999 C1.790,43.999 0.0,42.209 0.0,39.999 L0.0,19.999 Z"/>
<text kerning="auto" font-family="DejaVuSans" fill="rgb(0, 0, 0)" font-size="18px" x="12px" y="36.7140000000001px"><tspan font-size="18px" font-family="Roboto" font-weight="bold" fill="#FF7F7F">PDF</tspan></text>
<path fill-rule="evenodd"  fill="rgb(255, 127, 127)"
 d="M73.922,81.73 C73.922,81.478 73.848,81.856 73.701,82.205 C73.554,82.555 73.333,82.859 73.38,83.117 C72.780,83.448 72.412,83.697 71.933,83.863 C71.455,84.29 70.884,84.111 70.221,84.111 C69.6,84.111 67.533,83.918 65.802,83.531 C64.71,83.145 62.395,82.546 60.775,81.736 C58.86,82.67 55.711,82.417 53.649,82.786 C51.586,83.154 49.745,83.596 48.125,84.111 L47.517,84.332 C45.565,87.684 43.843,90.133 42.352,91.679 C40.860,93.226 39.470,93.999 38.181,93.999 L36.800,93.613 L35.309,92.674 L35.198,92.508 C35.88,92.213 35.23,91.928 35.5,91.652 C34.986,91.376 35.14,91.90 35.88,90.795 C35.235,89.985 35.778,88.973 36.717,87.757 C37.656,86.542 39.65,85.345 40.943,84.167 L43.761,82.620 L46.799,76.930 C47.572,75.310 48.235,73.717 48.788,72.152 C49.340,70.587 49.800,69.123 50.168,67.760 L50.168,67.705 C49.579,65.790 49.174,64.123 48.953,62.705 C48.732,61.288 48.916,59.529 49.506,57.430 C49.616,56.841 49.911,56.288 50.390,55.773 C50.868,55.257 51.402,54.999 51.991,54.999 L52.710,54.999 C53.78,54.999 53.428,55.64 53.759,55.193 C54.91,55.322 54.385,55.515 54.643,55.773 C55.674,56.804 56.70,58.424 55.831,60.634 C55.591,62.844 55.214,64.998 54.698,67.97 L54.588,67.539 C55.214,69.307 55.960,70.881 56.825,72.262 C57.691,73.643 58.620,74.739 59.615,75.549 L62.322,77.372 L66.409,77.151 C68.361,77.151 69.926,77.335 71.105,77.703 C72.283,78.72 73.93,78.624 73.535,79.361 C73.720,79.582 73.848,79.839 73.922,80.134 C73.996,80.429 73.996,80.742 73.922,81.73 ZM41.440,86.487 C40.336,87.481 39.443,88.466 38.761,89.442 C38.80,90.418 37.703,91.201 37.629,91.790 C38.329,91.532 39.139,90.888 40.59,89.856 C40.980,88.825 41.938,87.371 42.932,85.492 L41.440,86.487 ZM52.931,57.99 L52.433,56.988 L52.213,57.320 C51.955,57.982 51.835,58.875 51.853,59.999 C51.872,61.122 52.65,62.383 52.433,63.783 L52.599,63.672 L53.96,61.76 L53.207,60.579 C53.354,59.732 53.409,59.41 53.372,58.507 C53.336,57.973 53.188,57.504 52.931,57.99 ZM57.516,77.924 C56.558,77.114 55.674,76.138 54.864,74.997 C54.54,73.855 53.336,72.584 52.710,71.185 C52.341,72.327 51.890,73.524 51.356,74.776 C50.822,76.28 50.205,77.335 49.506,78.698 L47.959,81.957 L48.290,81.847 C50.279,81.73 52.185,80.456 54.8,79.996 C55.831,79.536 57.424,79.176 58.786,78.919 L57.516,77.924 ZM71.768,80.907 C71.620,80.760 71.142,80.539 70.331,80.244 C69.521,79.950 68.11,79.803 65.802,79.803 C65.654,79.803 65.535,79.821 65.443,79.858 C65.351,79.895 65.231,79.987 65.84,80.134 C66.225,80.613 67.321,80.999 68.370,81.294 C69.420,81.589 70.313,81.736 71.50,81.736 L71.657,81.681 L71.768,81.681 C71.841,81.644 71.906,81.607 71.961,81.570 C72.16,81.533 72.44,81.423 72.44,81.239 L71.768,80.907 Z"/>
</svg>