<svg 
 xmlns="http://www.w3.org/2000/svg"
 xmlns:xlink="http://www.w3.org/1999/xlink"
 width="96px" height="107px">
<path fill-rule="evenodd"  fill="rgb(17, 144, 124)"
 d="M95.769,106.362 L13.999,106.362 L13.999,0.0 L70.216,0.0 L95.769,25.324 L95.769,106.362 Z"/>
<path fill-rule="evenodd"  fill="rgb(55, 210, 186)"
 d="M92.275,28.58 L67.999,28.58 L67.999,3.999 L92.275,28.58 Z"/>
<path fill-rule="evenodd"  fill="rgb(13, 98, 84)"
 d="M0.0,19.999 C0.0,17.790 1.790,15.999 3.999,15.999 L50.999,15.999 C53.209,15.999 54.999,17.790 54.999,19.999 L54.999,39.999 C54.999,42.209 53.209,43.999 50.999,43.999 L3.999,43.999 C1.790,43.999 0.0,42.209 0.0,39.999 L0.0,19.999 Z"/>
<path fill-rule="evenodd"  fill="rgb(55, 210, 186)"
 d="M41.230,30.716 C40.420,31.399 39.298,31.741 37.864,31.741 L35.681,31.741 L35.681,35.999 L33.191,35.999 L33.191,23.913 L37.906,23.913 C38.813,23.913 39.612,24.79 40.301,24.412 C40.990,24.744 41.519,25.215 41.890,25.827 C42.261,26.438 42.446,27.134 42.446,27.914 C42.446,29.99 42.41,30.33 41.230,30.716 ZM39.408,26.495 C39.60,26.130 38.578,25.942 37.964,25.931 L35.681,25.931 L35.681,29.724 L37.906,29.724 C38.564,29.724 39.67,29.569 39.413,29.259 C39.758,28.949 39.931,28.507 39.931,27.931 C39.931,27.339 39.757,26.860 39.408,26.495 ZM28.958,30.820 L24.102,30.820 L24.102,35.999 L21.612,35.999 L21.612,23.913 L24.102,23.913 L24.102,28.811 L28.958,28.811 L28.958,23.913 L31.448,23.913 L31.448,35.999 L28.958,35.999 L28.958,30.820 ZM15.752,31.741 L13.569,31.741 L13.569,35.999 L11.78,35.999 L11.78,23.913 L15.793,23.913 C16.701,23.913 17.499,24.79 18.188,24.412 C18.877,24.744 19.407,25.215 19.778,25.827 C20.148,26.438 20.334,27.134 20.334,27.914 C20.334,29.99 19.929,30.33 19.118,30.716 C18.307,31.399 17.185,31.741 15.752,31.741 ZM17.296,26.495 C16.947,26.130 16.466,25.942 15.851,25.931 L13.569,25.931 L13.569,29.724 L15.793,29.724 C16.452,29.724 16.954,29.569 17.300,29.259 C17.646,28.949 17.819,28.507 17.819,27.931 C17.819,27.339 17.644,26.860 17.296,26.495 Z"/>
<path fill-rule="evenodd"  fill="rgb(55, 210, 186)"
 d="M62.671,86.953 L56.976,81.257 L66.328,71.976 L56.976,62.624 L62.671,56.999 L77.648,71.976 L62.671,86.953 ZM47.976,86.953 L32.999,71.976 L47.976,56.999 L53.671,62.624 L44.320,71.976 L53.671,81.257 L47.976,86.953 Z"/>
</svg>