<svg 
 xmlns="http://www.w3.org/2000/svg"
 xmlns:xlink="http://www.w3.org/1999/xlink"
 width="96px" height="107px">
<path fill-rule="evenodd"  fill="rgb(230, 84, 29)"
 d="M95.769,106.362 L13.999,106.362 L13.999,0.0 L70.216,0.0 L95.769,25.324 L95.769,106.362 Z"/>
<path fill-rule="evenodd"  fill="rgb(255, 166, 132)"
 d="M92.275,28.58 L67.999,28.58 L67.999,3.999 L92.275,28.58 Z"/>
<path fill-rule="evenodd"  fill="rgb(186, 60, 13)"
 d="M0.0,19.999 C0.0,17.790 1.790,15.999 3.999,15.999 L50.999,15.999 C53.209,15.999 54.999,17.790 54.999,19.999 L54.999,39.999 C54.999,42.209 53.209,43.999 50.999,43.999 L3.999,43.999 C1.790,43.999 0.0,42.209 0.0,39.999 L0.0,19.999 Z"/>
<text kerning="auto" font-family="DejaVuSans" fill="rgb(0, 0, 0)" font-size="18px" x="12px" y="36.7140000000001px"><tspan font-size="18px" font-family="Roboto" font-weight="bold" fill="#FFA684">PPT</tspan></text>
<path fill-rule="evenodd"  fill="rgb(255, 166, 132)"
 d="M57.3,69.996 L57.3,53.999 C59.207,53.999 61.281,54.415 63.226,55.247 C65.171,56.80 66.865,57.222 68.306,58.675 C69.748,60.128 70.890,61.822 71.734,63.755 C72.578,65.689 72.999,67.769 72.999,69.996 L57.3,69.996 ZM68.482,78.11 C68.142,79.300 67.662,80.519 67.40,81.667 C66.419,82.816 65.669,83.865 64.790,84.814 C63.912,85.763 62.933,86.601 61.855,87.328 L54.156,74.3 L68.992,74.3 C68.992,75.386 68.822,76.722 68.482,78.11 ZM37.421,77.712 C37.140,76.505 36.999,75.269 36.999,74.3 C36.999,71.777 37.415,69.691 38.247,67.745 C39.79,65.800 40.222,64.107 41.675,62.665 C43.128,61.224 44.822,60.81 46.755,59.238 C48.689,58.394 50.769,57.972 52.996,57.972 L52.996,72.843 L38.652,81.105 C38.113,80.50 37.703,78.919 37.421,77.712 ZM60.97,88.312 C59.42,88.851 57.912,89.267 56.705,89.560 C55.497,89.853 54.261,89.999 52.996,89.999 C51.589,89.999 50.242,89.830 48.953,89.490 C47.663,89.150 46.451,88.664 45.314,88.31 C44.177,87.398 43.128,86.642 42.167,85.763 C41.207,84.884 40.363,83.917 39.636,82.863 L52.644,75.339 L60.97,88.312 Z"/>
</svg>