<svg 
 xmlns="http://www.w3.org/2000/svg"
 xmlns:xlink="http://www.w3.org/1999/xlink"
 width="96px" height="107px">
<path fill-rule="evenodd"  fill="rgb(81, 41, 90)"
 d="M95.769,106.362 L13.999,106.362 L13.999,0.0 L70.216,0.0 L95.769,25.324 L95.769,106.362 Z"/>
<path fill-rule="evenodd"  fill="rgb(235, 122, 255)"
 d="M92.275,28.58 L67.999,28.58 L67.999,3.999 L92.275,28.58 Z"/>
<path fill-rule="evenodd"  fill="rgb(44, 0, 80)"
 d="M0.0,19.999 C0.0,17.790 1.790,15.999 3.999,15.999 L50.999,15.999 C53.209,15.999 54.999,17.790 54.999,19.999 L54.999,39.999 C54.999,42.209 53.209,43.999 50.999,43.999 L3.999,43.999 C1.790,43.999 0.0,42.209 0.0,39.999 L0.0,19.999 Z"/>
<path fill-rule="evenodd"  fill="rgb(225, 113, 251)"
 d="M46.450,35.999 L46.450,32.696 L46.699,26.993 L43.437,35.999 L41.727,35.999 L38.473,27.1 L38.722,32.696 L38.722,35.999 L36.231,35.999 L36.231,23.914 L39.485,23.914 L42.590,32.679 L45.678,23.914 L48.948,23.914 L48.948,35.999 L46.450,35.999 ZM27.77,23.914 L35.162,23.914 L35.162,25.931 L29.567,25.931 L29.567,28.811 L34.348,28.811 L34.348,30.762 L29.567,30.762 L29.567,33.999 L35.179,33.999 L35.179,35.999 L27.77,35.999 L27.77,23.914 ZM21.110,31.575 L19.126,31.575 L19.126,35.999 L16.636,35.999 L16.636,23.914 L21.127,23.914 C22.554,23.914 23.656,24.232 24.430,24.868 C25.205,25.505 25.592,26.404 25.592,27.566 C25.592,28.390 25.414,29.78 25.57,29.629 C24.700,30.179 24.159,30.618 23.434,30.944 L26.49,35.883 L26.49,35.999 L23.376,35.999 L21.110,31.575 ZM22.617,26.420 C22.293,26.94 21.796,25.931 21.127,25.931 L19.126,25.931 L19.126,29.558 L21.135,29.558 C21.760,29.558 22.244,29.399 22.588,29.81 C22.931,28.763 23.102,28.324 23.102,27.765 C23.102,27.195 22.940,26.747 22.617,26.420 ZM10.752,31.741 L8.569,31.741 L8.569,35.999 L6.79,35.999 L6.79,23.914 L10.793,23.914 C11.701,23.914 12.499,24.79 13.188,24.412 C13.877,24.744 14.407,25.215 14.778,25.827 C15.149,26.438 15.334,27.134 15.334,27.914 C15.334,29.99 14.929,30.33 14.118,30.716 C13.307,31.399 12.185,31.741 10.752,31.741 ZM12.296,26.495 C11.947,26.130 11.466,25.942 10.851,25.931 L8.569,25.931 L8.569,29.724 L10.793,29.724 C11.452,29.724 11.954,29.569 12.300,29.259 C12.646,28.949 12.819,28.507 12.819,27.931 C12.819,27.339 12.644,26.860 12.296,26.495 Z"/>
<path fill-rule="evenodd"  fill="rgb(225, 113, 251)"
 d="M66.984,68.999 L66.984,62.3 C66.984,61.464 66.790,60.996 66.404,60.597 C66.17,60.199 65.542,59.999 64.980,59.999 L41.3,59.999 C40.441,59.999 39.966,60.199 39.580,60.597 C39.193,60.996 38.999,61.464 38.999,62.3 L38.999,82.7 C38.999,82.570 39.193,83.44 39.580,83.431 C39.966,83.818 40.441,84.11 41.3,84.11 L64.980,84.11 C65.542,84.11 66.17,83.818 66.404,83.431 C66.790,83.44 66.984,82.570 66.984,82.7 L66.984,75.11 L74.999,83.27 L74.999,61.19 L66.984,68.999 Z"/>
</svg>