<svg 
 xmlns="http://www.w3.org/2000/svg"
 xmlns:xlink="http://www.w3.org/1999/xlink"
 width="96px" height="107px">
<path fill-rule="evenodd"  fill="rgb(0, 60, 74)"
 d="M95.769,106.362 L13.999,106.362 L13.999,0.0 L70.216,0.0 L95.769,25.324 L95.769,106.362 Z"/>
<path fill-rule="evenodd"  fill="rgb(0, 203, 255)"
 d="M92.275,28.58 L67.999,28.58 L67.999,3.999 L92.275,28.58 Z"/>
<path fill-rule="evenodd"  fill="rgb(0, 44, 54)"
 d="M0.0,19.999 C0.0,17.790 1.790,15.999 3.999,15.999 L50.999,15.999 C53.209,15.999 54.999,17.790 54.999,19.999 L54.999,39.999 C54.999,42.209 53.209,43.999 50.999,43.999 L3.999,43.999 C1.790,43.999 0.0,42.209 0.0,39.999 L0.0,19.999 Z"/>
<path fill-rule="evenodd"  fill="rgb(0, 203, 255)"
 d="M34.411,26.615 C34.42,26.290 33.523,26.127 32.855,26.127 C32.211,26.127 31.710,26.264 31.353,26.536 C30.995,26.809 30.816,27.167 30.816,27.613 C30.816,28.29 31.26,28.377 31.445,28.659 C31.864,28.940 32.480,29.204 33.295,29.450 C34.795,29.901 35.888,30.460 36.573,31.128 C37.259,31.796 37.602,32.628 37.602,33.624 C37.602,34.732 37.183,35.601 36.345,36.230 C35.507,36.860 34.379,37.175 32.961,37.175 C31.977,37.175 31.80,36.995 30.272,36.635 C29.463,36.274 28.846,35.781 28.421,35.154 C27.997,34.527 27.784,33.800 27.784,32.974 L30.430,32.974 C30.430,34.386 31.273,35.92 32.961,35.92 C33.588,35.92 34.77,34.965 34.429,34.710 C34.780,34.455 34.956,34.99 34.956,33.642 C34.956,33.144 34.780,32.762 34.429,32.495 C34.77,32.228 33.444,31.947 32.530,31.651 C31.616,31.355 30.893,31.64 30.359,30.777 C28.906,29.992 28.180,28.934 28.180,27.604 C28.180,26.913 28.375,26.296 28.764,25.754 C29.154,25.212 29.713,24.789 30.443,24.484 C31.172,24.179 31.991,24.27 32.899,24.27 C33.813,24.27 34.628,24.192 35.343,24.523 C36.58,24.854 36.613,25.322 37.8,25.925 C37.404,26.529 37.602,27.214 37.602,27.982 L34.965,27.982 C34.965,27.396 34.780,26.940 34.411,26.615 ZM22.90,32.491 L19.779,32.491 L19.779,36.999 L17.142,36.999 L17.142,24.203 L22.134,24.203 C23.95,24.203 23.940,24.378 24.670,24.730 C25.399,25.81 25.960,25.581 26.353,26.228 C26.746,26.876 26.942,27.613 26.942,28.439 C26.942,29.693 26.513,30.682 25.654,31.405 C24.796,32.129 23.608,32.491 22.90,32.491 ZM23.725,26.936 C23.356,26.549 22.846,26.350 22.196,26.338 L19.779,26.338 L19.779,30.355 L22.134,30.355 C22.832,30.355 23.363,30.191 23.729,29.863 C24.96,29.535 24.279,29.66 24.279,28.457 C24.279,27.830 24.94,27.323 23.725,26.936 Z"/>
<path fill-rule="evenodd"  fill="rgb(0, 203, 255)"
 d="M66.984,56.7 L66.984,54.3 C66.984,53.441 66.791,52.966 66.404,52.580 C66.17,52.193 65.542,51.999 64.980,51.999 L40.968,51.999 C40.429,51.999 39.966,52.193 39.579,52.580 C39.193,52.966 38.999,53.441 38.999,54.3 L38.999,61.984 C38.999,62.546 39.193,63.21 39.579,63.408 C39.966,63.794 40.429,63.988 40.968,63.988 L64.980,63.988 C65.542,63.988 66.17,63.794 66.404,63.408 C66.791,63.21 66.984,62.546 66.984,61.984 L66.984,59.980 L68.988,59.980 L68.988,67.996 L48.984,67.996 L48.984,90.3 C48.984,90.542 49.177,91.11 49.564,91.410 C49.951,91.808 50.425,92.7 50.988,92.7 L54.996,92.7 C55.535,92.7 56.3,91.808 56.402,91.410 C56.800,91.11 56.999,90.542 56.999,90.3 L56.999,72.3 L72.996,72.3 L72.996,56.7 L66.984,56.7 Z"/>
</svg>