<svg 
 xmlns="http://www.w3.org/2000/svg"
 xmlns:xlink="http://www.w3.org/1999/xlink"
 width="96px" height="107px">
<path fill-rule="evenodd"  fill="rgb(0, 60, 74)"
 d="M95.769,106.362 L13.999,106.362 L13.999,0.0 L70.216,0.0 L95.769,25.324 L95.769,106.362 Z"/>
<path fill-rule="evenodd"  fill="rgb(0, 203, 255)"
 d="M92.275,28.58 L67.999,28.58 L67.999,3.999 L92.275,28.58 Z"/>
<path fill-rule="evenodd"  fill="rgb(0, 44, 54)"
 d="M0.0,19.999 C0.0,17.790 1.790,15.999 3.999,15.999 L50.999,15.999 C53.209,15.999 54.999,17.790 54.999,19.999 L54.999,39.999 C54.999,42.209 53.209,43.999 50.999,43.999 L3.999,43.999 C1.790,43.999 0.0,42.209 0.0,39.999 L0.0,19.999 Z"/>
<path fill-rule="evenodd"  fill="rgb(0, 203, 255)"
 d="M44.2,34.73 C43.513,34.998 42.823,35.716 41.932,36.226 C41.42,36.736 40.37,36.994 38.918,36.999 L34.954,36.999 L34.954,24.203 L38.891,24.203 C40.16,24.203 41.23,24.456 41.910,24.963 C42.798,25.470 43.491,26.190 43.989,27.125 C44.487,28.60 44.736,29.121 44.736,30.311 L44.736,30.900 C44.736,32.89 44.491,33.147 44.2,34.73 ZM42.64,30.302 C42.64,29.1 41.795,28.16 41.256,27.345 C40.716,26.674 39.928,26.338 38.891,26.338 L37.590,26.338 L37.590,34.881 L38.865,34.881 C39.896,34.881 40.684,34.544 41.229,33.871 C41.774,33.197 42.52,32.233 42.64,30.979 L42.64,30.302 ZM29.295,29.450 C30.795,29.901 31.888,30.460 32.573,31.128 C33.259,31.796 33.602,32.628 33.602,33.624 C33.602,34.732 33.183,35.601 32.345,36.230 C31.507,36.860 30.379,37.175 28.961,37.175 C27.977,37.175 27.80,36.995 26.272,36.635 C25.463,36.274 24.846,35.781 24.421,35.154 C23.997,34.527 23.784,33.800 23.784,32.974 L26.430,32.974 C26.430,34.386 27.274,35.92 28.961,35.92 C29.588,35.92 30.77,34.965 30.429,34.710 C30.780,34.455 30.956,34.99 30.956,33.642 C30.956,33.144 30.780,32.762 30.429,32.495 C30.77,32.228 29.444,31.947 28.530,31.651 C27.616,31.355 26.893,31.64 26.359,30.777 C24.906,29.992 24.180,28.934 24.180,27.604 C24.180,26.913 24.375,26.296 24.764,25.754 C25.154,25.212 25.713,24.788 26.443,24.484 C27.172,24.179 27.991,24.27 28.899,24.27 C29.814,24.27 30.628,24.192 31.343,24.523 C32.58,24.854 32.613,25.322 33.8,25.925 C33.404,26.529 33.602,27.214 33.602,27.982 L30.965,27.982 C30.965,27.396 30.780,26.940 30.411,26.615 C30.42,26.290 29.524,26.127 28.856,26.127 C28.211,26.127 27.710,26.264 27.353,26.536 C26.995,26.809 26.817,27.167 26.817,27.613 C26.817,28.29 27.26,28.377 27.445,28.659 C27.864,28.940 28.481,29.204 29.295,29.450 ZM18.90,32.491 L15.779,32.491 L15.779,36.999 L13.142,36.999 L13.142,24.203 L18.134,24.203 C19.95,24.203 19.940,24.378 20.670,24.730 C21.399,25.81 21.960,25.581 22.353,26.228 C22.746,26.876 22.942,27.613 22.942,28.439 C22.942,29.693 22.513,30.682 21.654,31.405 C20.796,32.129 19.608,32.491 18.90,32.491 ZM19.725,26.936 C19.356,26.549 18.846,26.350 18.196,26.338 L15.779,26.338 L15.779,30.355 L18.134,30.355 C18.831,30.355 19.363,30.191 19.729,29.863 C20.96,29.535 20.279,29.66 20.279,28.457 C20.279,27.830 20.94,27.323 19.725,26.936 Z"/>
<path fill-rule="evenodd"  fill="rgb(0, 203, 255)"
 d="M66.984,56.7 L66.984,54.3 C66.984,53.441 66.791,52.966 66.404,52.580 C66.17,52.193 65.542,51.999 64.980,51.999 L40.968,51.999 C40.429,51.999 39.966,52.193 39.579,52.580 C39.193,52.966 38.999,53.441 38.999,54.3 L38.999,61.984 C38.999,62.546 39.193,63.21 39.579,63.408 C39.966,63.794 40.429,63.988 40.968,63.988 L64.980,63.988 C65.542,63.988 66.17,63.794 66.404,63.408 C66.791,63.21 66.984,62.546 66.984,61.984 L66.984,59.980 L68.988,59.980 L68.988,67.996 L48.984,67.996 L48.984,90.3 C48.984,90.542 49.177,91.11 49.564,91.410 C49.951,91.808 50.425,92.7 50.988,92.7 L54.996,92.7 C55.535,92.7 56.3,91.808 56.402,91.410 C56.800,91.11 56.999,90.542 56.999,90.3 L56.999,72.3 L72.996,72.3 L72.996,56.7 L66.984,56.7 Z"/>
</svg>