<svg 
 xmlns="http://www.w3.org/2000/svg"
 xmlns:xlink="http://www.w3.org/1999/xlink"
 width="96px" height="107px">
<path fill-rule="evenodd"  fill="rgb(120, 131, 164)"
 d="M95.769,106.362 L13.999,106.362 L13.999,0.0 L70.216,0.0 L95.769,25.324 L95.769,106.362 Z"/>
<path fill-rule="evenodd"  fill="rgb(154, 166, 202)"
 d="M92.275,28.58 L67.999,28.58 L67.999,3.999 L92.275,28.58 Z"/>
<path fill-rule="evenodd"  fill="rgb(75, 83, 109)"
 d="M0.0,19.999 C0.0,17.790 1.790,15.999 3.999,15.999 L50.999,15.999 C53.209,15.999 54.999,17.790 54.999,19.999 L54.999,39.999 C54.999,42.209 53.209,43.999 50.999,43.999 L3.999,43.999 C1.790,43.999 0.0,42.209 0.0,39.999 L0.0,19.999 Z"/>
<text kerning="auto" font-family="DejaVuSans" fill="rgb(0, 0, 0)" font-size="17px" x="12px" y="37.841px"><tspan font-size="17px" font-family="Roboto" font-weight="bold" fill="#9AA6CA">PST</tspan></text>
<path fill-rule="evenodd"  fill="rgb(154, 166, 202)"
 d="M73.829,91.564 C73.44,92.349 72.101,92.742 70.999,92.742 L39.7,92.742 C37.906,92.742 36.962,92.349 36.177,91.564 C35.392,90.779 34.999,89.835 34.999,88.734 L34.999,68.730 C34.999,68.3 35.175,67.341 35.527,66.744 C35.878,66.146 36.347,65.671 36.933,65.320 L55.3,53.999 L73.39,65.320 C73.624,65.671 74.99,66.146 74.462,66.744 C74.826,67.341 75.7,68.3 75.7,68.730 L75.7,88.734 C75.7,89.835 74.615,90.779 73.829,91.564 ZM55.3,58.746 L39.7,68.730 L55.3,78.749 L70.999,68.730 L55.3,58.746 ZM70.999,73.441 L55.3,83.460 L39.7,73.441 L39.7,88.734 L70.999,88.734 L70.999,73.441 Z"/>
</svg>