<svg 
 xmlns="http://www.w3.org/2000/svg"
 xmlns:xlink="http://www.w3.org/1999/xlink"
 width="96px" height="107px">
<path fill-rule="evenodd"  fill="rgb(0, 191, 119)"
 d="M95.769,106.362 L13.999,106.362 L13.999,0.0 L70.216,0.0 L95.769,25.324 L95.769,106.362 Z"/>
<path fill-rule="evenodd"  fill="rgb(125, 255, 206)"
 d="M92.275,28.58 L67.999,28.58 L67.999,3.999 L92.275,28.58 Z"/>
<path fill-rule="evenodd"  fill="rgb(13, 98, 84)"
 d="M0.0,19.999 C0.0,17.790 1.790,15.999 3.999,15.999 L50.999,15.999 C53.209,15.999 54.999,17.790 54.999,19.999 L54.999,39.999 C54.999,42.209 53.209,43.999 50.999,43.999 L3.999,43.999 C1.790,43.999 0.0,42.209 0.0,39.999 L0.0,19.999 Z"/>
<path fill-rule="evenodd"  fill="rgb(125, 255, 206)"
 d="M40.350,29.782 C40.970,29.937 41.458,30.250 41.815,30.720 C42.172,31.191 42.351,31.766 42.351,32.447 C42.351,33.609 41.980,34.489 41.238,35.86 C40.497,35.684 39.440,35.988 38.68,35.999 L33.369,35.999 L33.369,23.913 L37.603,23.913 C39.69,23.913 40.182,24.194 40.940,24.756 C41.698,25.318 42.77,26.141 42.77,27.226 C42.77,27.818 41.925,28.339 41.620,28.790 C41.316,29.241 40.893,29.572 40.350,29.782 ZM39.109,26.292 C38.791,26.51 38.289,25.931 37.603,25.931 L35.860,25.931 L35.860,28.977 L37.702,28.977 C38.959,28.955 39.587,28.454 39.587,27.475 C39.587,26.927 39.427,26.532 39.109,26.292 ZM38.142,30.737 L35.860,30.737 L35.860,33.999 L37.993,33.999 C38.579,33.999 39.37,33.859 39.367,33.580 C39.696,33.300 39.860,32.914 39.860,32.422 C39.860,31.315 39.288,30.753 38.142,30.737 ZM27.127,36.165 C25.716,36.165 24.596,35.792 23.766,35.45 C22.936,34.298 22.512,33.271 22.496,31.965 L22.496,23.913 L24.986,23.913 L24.986,31.891 C24.986,32.682 25.175,33.259 25.554,33.621 C25.934,33.984 26.458,34.165 27.127,34.165 C28.528,34.165 29.239,33.429 29.261,31.957 L29.261,23.913 L31.759,23.913 L31.759,31.874 C31.759,33.197 31.346,34.242 30.518,35.12 C29.691,35.781 28.561,36.165 27.127,36.165 ZM16.752,31.741 L14.569,31.741 L14.569,35.999 L12.78,35.999 L12.78,23.913 L16.793,23.913 C17.701,23.913 18.499,24.80 19.188,24.412 C19.877,24.744 20.407,25.215 20.778,25.827 C21.148,26.438 21.334,27.134 21.334,27.914 C21.334,29.99 20.929,30.33 20.118,30.716 C19.307,31.399 18.185,31.741 16.752,31.741 ZM18.296,26.495 C17.947,26.130 17.466,25.942 16.851,25.931 L14.569,25.931 L14.569,29.724 L16.793,29.724 C17.452,29.724 17.954,29.569 18.300,29.259 C18.646,28.949 18.819,28.507 18.819,27.931 C18.819,27.339 18.644,26.860 18.296,26.495 Z"/>
<text kerning="auto" font-family="DejaVuSans" fill="rgb(0, 0, 0)" font-size="36px" x="45px" y="82.062px"><tspan font-size="36px" font-family="Roboto" font-weight="bold" fill="#7DFFCE">P</tspan></text>
</svg>