<svg 
 xmlns="http://www.w3.org/2000/svg"
 xmlns:xlink="http://www.w3.org/1999/xlink"
 width="96px" height="107px">
<path fill-rule="evenodd"  fill="rgb(0, 191, 119)"
 d="M95.769,106.362 L13.999,106.362 L13.999,0.0 L70.216,0.0 L95.769,25.324 L95.769,106.362 Z"/>
<path fill-rule="evenodd"  fill="rgb(125, 255, 206)"
 d="M92.275,28.58 L67.999,28.58 L67.999,3.999 L92.275,28.58 Z"/>
<path fill-rule="evenodd"  fill="rgb(13, 98, 84)"
 d="M0.0,19.999 C0.0,17.790 1.790,15.999 3.999,15.999 L50.999,15.999 C53.209,15.999 54.999,17.790 54.999,19.999 L54.999,39.999 C54.999,42.209 53.209,43.999 50.999,43.999 L3.999,43.999 C1.790,43.999 0.0,42.209 0.0,39.999 L0.0,19.999 Z"/>
<path fill-rule="evenodd"  fill="rgb(125, 255, 206)"
 d="M46.54,36.85 L46.54,30.906 L41.198,30.906 L41.198,36.85 L38.707,36.85 L38.707,23.999 L41.198,23.999 L41.198,28.897 L46.54,28.897 L46.54,23.999 L48.544,23.999 L48.544,36.85 L46.54,36.85 ZM37.272,32.533 C37.272,33.695 36.901,34.575 36.159,35.172 C35.418,35.770 34.361,36.74 32.989,36.85 L28.290,36.85 L28.290,23.999 L32.524,23.999 C33.990,23.999 35.102,24.280 35.861,24.842 C36.619,25.404 36.998,26.227 36.998,27.311 C36.998,27.904 36.846,28.425 36.541,28.876 C36.237,29.327 35.814,29.658 35.271,29.868 C35.891,30.23 36.379,30.336 36.736,30.806 C37.93,31.276 37.272,31.852 37.272,32.533 ZM34.30,26.378 C33.712,26.137 33.210,26.17 32.524,26.17 L30.780,26.17 L30.780,29.63 L32.623,29.63 C33.879,29.41 34.507,28.540 34.507,27.561 C34.507,27.13 34.348,26.618 34.30,26.378 ZM33.63,30.823 L30.780,30.823 L30.780,34.85 L32.914,34.85 C33.500,34.85 33.958,33.945 34.288,33.666 C34.617,33.386 34.781,33.0 34.781,32.508 C34.781,31.401 34.209,30.839 33.63,30.823 ZM22.48,36.251 C20.637,36.251 19.517,35.878 18.687,35.131 C17.856,34.384 17.433,33.357 17.417,32.51 L17.417,23.999 L19.907,23.999 L19.907,31.977 C19.907,32.768 20.96,33.345 20.475,33.707 C20.854,34.70 21.379,34.251 22.48,34.251 C23.448,34.251 24.160,33.515 24.182,32.43 L24.182,23.999 L26.680,23.999 L26.680,31.960 C26.680,33.282 26.267,34.328 25.439,35.98 C24.612,35.867 23.482,36.251 22.48,36.251 ZM11.673,31.827 L9.490,31.827 L9.490,36.85 L6.999,36.85 L6.999,23.999 L11.714,23.999 C12.622,23.999 13.420,24.165 14.109,24.497 C14.798,24.830 15.328,25.301 15.699,25.913 C16.69,26.524 16.255,27.220 16.255,28.0 C16.255,29.185 15.849,30.119 15.39,30.802 C14.228,31.485 13.106,31.827 11.673,31.827 ZM13.217,26.581 C12.868,26.216 12.387,26.28 11.772,26.17 L9.490,26.17 L9.490,29.810 L11.714,29.810 C12.373,29.810 12.875,29.655 13.221,29.345 C13.567,29.35 13.740,28.593 13.740,28.17 C13.740,27.425 13.565,26.946 13.217,26.581 Z"/>
<text kerning="auto" font-family="DejaVuSans" fill="rgb(0, 0, 0)" font-size="36px" x="45px" y="82.062px"><tspan font-size="36px" font-family="Roboto" font-weight="bold" fill="#7DFFCE">P</tspan></text>
</svg>