<svg 
 xmlns="http://www.w3.org/2000/svg"
 xmlns:xlink="http://www.w3.org/1999/xlink"
 width="96px" height="107px">
<path fill-rule="evenodd"  fill="rgb(0, 191, 119)"
 d="M95.769,106.362 L13.999,106.362 L13.999,0.0 L70.216,0.0 L95.769,25.324 L95.769,106.362 Z"/>
<path fill-rule="evenodd"  fill="rgb(125, 255, 206)"
 d="M92.275,28.58 L67.999,28.58 L67.999,3.999 L92.275,28.58 Z"/>
<path fill-rule="evenodd"  fill="rgb(13, 98, 84)"
 d="M0.0,19.999 C0.0,17.790 1.790,15.999 3.999,15.999 L50.999,15.999 C53.209,15.999 54.999,17.790 54.999,19.999 L54.999,39.999 C54.999,42.209 53.209,43.999 50.999,43.999 L3.999,43.999 C1.790,43.999 0.0,42.209 0.0,39.999 L0.0,19.999 Z"/>
<path fill-rule="evenodd"  fill="rgb(125, 255, 206)"
 d="M46.926,36.85 L46.926,32.782 L47.175,27.79 L43.912,36.85 L42.202,36.85 L38.949,27.87 L39.198,32.782 L39.198,36.85 L36.707,36.85 L36.707,23.999 L39.961,23.999 L43.66,32.765 L46.154,23.999 L49.424,23.999 L49.424,36.85 L46.926,36.85 ZM35.272,32.533 C35.272,33.695 34.901,34.575 34.159,35.172 C33.418,35.770 32.361,36.74 30.988,36.85 L26.290,36.85 L26.290,23.999 L30.524,23.999 C31.990,23.999 33.102,24.280 33.860,24.842 C34.619,25.404 34.998,26.227 34.998,27.311 C34.998,27.904 34.846,28.425 34.541,28.876 C34.237,29.327 33.813,29.658 33.271,29.868 C33.891,30.23 34.379,30.336 34.736,30.806 C35.93,31.276 35.272,31.852 35.272,32.533 ZM32.30,26.378 C31.712,26.137 31.210,26.17 30.524,26.17 L28.780,26.17 L28.780,29.63 L30.623,29.63 C31.879,29.41 32.508,28.540 32.508,27.561 C32.508,27.13 32.348,26.618 32.30,26.378 ZM31.63,30.823 L28.780,30.823 L28.780,34.85 L30.914,34.85 C31.500,34.85 31.958,33.945 32.288,33.666 C32.617,33.386 32.781,33.0 32.781,32.508 C32.781,31.401 32.209,30.839 31.63,30.823 ZM20.48,36.251 C18.637,36.251 17.517,35.878 16.687,35.131 C15.857,34.384 15.433,33.357 15.416,32.51 L15.416,23.999 L17.907,23.999 L17.907,31.977 C17.907,32.768 18.96,33.345 18.475,33.707 C18.854,34.70 19.379,34.251 20.48,34.251 C21.448,34.251 22.160,33.515 22.182,32.43 L22.182,23.999 L24.680,23.999 L24.680,31.960 C24.680,33.282 24.267,34.328 23.439,35.98 C22.612,35.867 21.482,36.251 20.48,36.251 ZM9.673,31.827 L7.490,31.827 L7.490,36.85 L4.999,36.85 L4.999,23.999 L9.714,23.999 C10.622,23.999 11.420,24.165 12.109,24.497 C12.798,24.830 13.328,25.301 13.699,25.913 C14.69,26.524 14.255,27.220 14.255,28.0 C14.255,29.185 13.849,30.119 13.39,30.802 C12.228,31.485 11.106,31.827 9.673,31.827 ZM11.217,26.581 C10.868,26.216 10.387,26.28 9.772,26.17 L7.490,26.17 L7.490,29.810 L9.714,29.810 C10.373,29.810 10.875,29.655 11.221,29.345 C11.567,29.35 11.740,28.593 11.740,28.17 C11.740,27.425 11.565,26.946 11.217,26.581 Z"/>
<text kerning="auto" font-family="DejaVuSans" fill="rgb(0, 0, 0)" font-size="36px" x="45px" y="82.062px"><tspan font-size="36px" font-family="Roboto" font-weight="bold" fill="#7DFFCE">P</tspan></text>
</svg>