<svg 
 xmlns="http://www.w3.org/2000/svg"
 xmlns:xlink="http://www.w3.org/1999/xlink"
 width="96px" height="107px">
<path fill-rule="evenodd"  fill="rgb(28, 93, 164)"
 d="M95.769,106.362 L13.999,106.362 L13.999,0.0 L70.216,0.0 L95.769,25.324 L95.769,106.362 Z"/>
<path fill-rule="evenodd"  fill="rgb(123, 182, 246)"
 d="M92.60,27.566 L67.784,27.566 L67.784,3.508 L92.60,27.566 Z"/>
<path fill-rule="evenodd"  fill="rgb(44, 122, 205)"
 d="M0.0,19.999 C0.0,17.790 1.790,15.999 3.999,15.999 L50.999,15.999 C53.209,15.999 54.999,17.790 54.999,19.999 L54.999,39.999 C54.999,42.209 53.209,43.999 50.999,43.999 L3.999,43.999 C1.790,43.999 0.0,42.209 0.0,39.999 L0.0,19.999 Z"/>
<path fill-rule="evenodd"  fill="rgb(123, 182, 246)"
 d="M43.426,36.999 L43.303,35.989 C42.670,36.780 41.856,37.175 40.860,37.175 C39.741,37.175 38.843,36.734 38.166,35.852 C37.489,34.971 37.151,33.745 37.151,32.174 C37.151,30.692 37.483,29.511 38.148,28.632 C38.813,27.753 39.723,27.314 40.877,27.314 C41.803,27.314 42.568,27.660 43.171,28.351 L43.171,23.499 L45.720,23.499 L45.720,36.999 L43.426,36.999 ZM43.171,30.372 C42.855,29.710 42.307,29.379 41.528,29.379 C40.303,29.379 39.691,30.372 39.691,32.359 C39.691,33.249 39.846,33.932 40.157,34.407 C40.467,34.881 40.918,35.119 41.510,35.119 C42.295,35.119 42.849,34.788 43.171,34.125 L43.171,30.372 ZM33.584,36.147 C32.968,36.832 32.169,37.175 31.184,37.175 C30.253,37.175 29.481,36.906 28.868,36.367 C28.256,35.828 27.950,35.148 27.950,34.328 C27.950,33.320 28.323,32.546 29.71,32.7 C29.818,31.468 30.897,31.196 32.309,31.190 L33.478,31.190 L33.478,30.645 C33.478,30.206 33.365,29.854 33.140,29.590 C32.914,29.327 32.558,29.195 32.72,29.195 C31.644,29.195 31.309,29.297 31.66,29.502 C30.822,29.707 30.701,29.989 30.701,30.346 L28.161,30.346 C28.161,29.795 28.331,29.286 28.671,28.817 C29.10,28.348 29.491,27.980 30.112,27.714 C30.733,27.447 31.430,27.314 32.204,27.314 C33.376,27.314 34.306,27.608 34.994,28.197 C35.683,28.786 36.27,29.614 36.27,30.680 L36.27,34.802 C36.33,35.705 36.159,36.387 36.405,36.850 L36.405,36.999 L33.839,36.999 C33.721,36.771 33.636,36.487 33.584,36.147 ZM33.478,32.675 L32.529,32.675 C31.257,32.675 30.581,33.115 30.499,33.994 L30.490,34.143 C30.490,34.459 30.601,34.720 30.824,34.925 C31.47,35.130 31.351,35.233 31.738,35.233 C32.113,35.233 32.459,35.149 32.775,34.982 C33.92,34.815 33.326,34.591 33.478,34.310 L33.478,32.675 ZM22.5,34.565 C22.418,34.940 22.941,35.127 23.574,35.127 C24.553,35.127 25.317,34.773 25.868,34.64 L27.116,35.461 C26.735,36.0 26.220,36.421 25.569,36.723 C24.919,37.24 24.198,37.175 23.407,37.175 C22.13,37.175 20.878,36.747 20.2,35.892 C19.126,35.37 18.688,33.897 18.688,32.473 L18.688,32.227 C18.688,31.272 18.872,30.418 19.241,29.665 C19.610,28.912 20.133,28.332 20.810,27.925 C21.487,27.518 22.259,27.314 23.126,27.314 C24.427,27.314 25.451,27.724 26.198,28.544 C26.945,29.365 27.318,30.528 27.318,32.34 L27.318,33.71 L21.263,33.71 C21.345,33.692 21.592,34.190 22.5,34.565 ZM24.822,31.339 L24.822,31.137 C24.811,30.575 24.658,30.140 24.365,29.832 C24.72,29.524 23.656,29.370 23.117,29.370 C22.613,29.370 22.205,29.540 21.891,29.880 C21.578,30.220 21.377,30.706 21.289,31.339 L24.822,31.339 ZM12.879,32.315 L10.779,32.315 L10.779,36.999 L8.142,36.999 L8.142,24.203 L12.897,24.203 C14.409,24.203 15.575,24.539 16.395,25.213 C17.215,25.887 17.625,26.839 17.625,28.70 C17.625,28.943 17.436,29.671 17.59,30.254 C16.681,30.837 16.108,31.301 15.340,31.647 L18.109,36.876 L18.109,36.999 L15.279,36.999 L12.879,32.315 ZM14.475,26.857 C14.132,26.511 13.606,26.338 12.897,26.338 L10.779,26.338 L10.779,30.179 L12.906,30.179 C13.568,30.179 14.80,30.11 14.444,29.674 C14.807,29.337 14.989,28.872 14.989,28.281 C14.989,27.677 14.817,27.203 14.475,26.857 Z"/>
<path fill-rule="evenodd"  fill="rgb(123, 182, 246)"
 d="M34.999,63.900 L37.600,63.900 L37.600,87.307 L46.52,87.307 L52.554,75.739 L52.554,87.307 L60.356,87.307 L72.59,63.900 L74.659,63.900 L74.659,59.999 L62.957,59.999 L62.957,63.900 L64.907,63.900 L60.356,72.867 L60.356,59.999 L51.254,59.999 L43.451,74.683 L43.451,63.900 L46.52,63.900 L46.52,59.999 L34.999,59.999 L34.999,63.900 Z"/>
</svg>