<svg 
 xmlns="http://www.w3.org/2000/svg"
 xmlns:xlink="http://www.w3.org/1999/xlink"
 width="96px" height="107px">
<path fill-rule="evenodd"  fill="rgb(77, 23, 114)"
 d="M95.769,106.362 L13.999,106.362 L13.999,0.0 L70.216,0.0 L95.769,25.324 L95.769,106.362 Z"/>
<path fill-rule="evenodd"  fill="rgb(213, 18, 250)"
 d="M92.275,28.58 L67.999,28.58 L67.999,3.999 L92.275,28.58 Z"/>
<path fill-rule="evenodd"  fill="rgb(0, 0, 0)"
 d="M0.0,19.999 C0.0,17.790 1.790,15.999 3.999,15.999 L50.999,15.999 C53.209,15.999 54.999,17.790 54.999,19.999 L54.999,39.999 C54.999,42.209 53.209,43.999 50.999,43.999 L3.999,43.999 C1.790,43.999 0.0,42.209 0.0,39.999 L0.0,19.999 Z"/>
<path fill-rule="evenodd"  fill="rgb(213, 18, 250)"
 d="M36.709,31.405 C35.851,32.129 34.663,32.491 33.145,32.491 L30.834,32.491 L30.834,36.999 L28.197,36.999 L28.197,24.203 L33.190,24.203 C34.150,24.203 34.996,24.378 35.725,24.730 C36.455,25.81 37.16,25.581 37.408,26.229 C37.801,26.876 37.997,27.613 37.997,28.439 C37.997,29.693 37.568,30.682 36.709,31.405 ZM34.780,26.936 C34.411,26.549 33.901,26.350 33.251,26.338 L30.834,26.338 L30.834,30.355 L33.190,30.355 C33.887,30.355 34.418,30.191 34.785,29.863 C35.151,29.535 35.334,29.66 35.334,28.457 C35.334,27.830 35.149,27.323 34.780,26.936 ZM21.879,32.315 L19.779,32.315 L19.779,36.999 L17.142,36.999 L17.142,24.203 L21.897,24.203 C23.409,24.203 24.575,24.539 25.395,25.213 C26.215,25.887 26.625,26.839 26.625,28.70 C26.625,28.943 26.436,29.671 26.59,30.254 C25.681,30.837 25.108,31.301 24.340,31.647 L27.109,36.876 L27.109,36.999 L24.279,36.999 L21.879,32.315 ZM23.474,26.857 C23.132,26.511 22.606,26.338 21.897,26.338 L19.779,26.338 L19.779,30.179 L21.906,30.179 C22.568,30.179 23.81,30.11 23.444,29.674 C23.807,29.337 23.989,28.872 23.989,28.281 C23.989,27.677 23.817,27.203 23.474,26.857 Z"/>
<path fill-rule="evenodd"  fill="rgb(213, 18, 250)"
 d="M63.999,88.999 L63.999,64.999 L71.999,64.999 L71.999,88.999 L63.999,88.999 ZM35.999,52.999 L71.999,52.999 L71.999,60.999 L35.999,60.999 L35.999,52.999 ZM59.999,88.999 L35.999,88.999 L35.999,64.999 L59.999,64.999 L59.999,88.999 Z"/>
</svg>