<svg 
 xmlns="http://www.w3.org/2000/svg"
 xmlns:xlink="http://www.w3.org/1999/xlink"
 width="96px" height="107px">
<path fill-rule="evenodd"  fill="rgb(166, 58, 61)"
 d="M95.769,106.362 L13.999,106.362 L13.999,0.0 L70.216,0.0 L95.769,25.324 L95.769,106.362 Z"/>
<path fill-rule="evenodd"  fill="rgb(235, 109, 113)"
 d="M92.275,28.58 L67.999,28.58 L67.999,3.999 L92.275,28.58 Z"/>
<path fill-rule="evenodd"  fill="rgb(92, 28, 30)"
 d="M0.0,19.999 C0.0,17.790 1.790,15.999 3.999,15.999 L50.999,15.999 C53.209,15.999 54.999,17.790 54.999,19.999 L54.999,39.999 C54.999,42.209 53.209,43.999 50.999,43.999 L3.999,43.999 C1.790,43.999 0.0,42.209 0.0,39.999 L0.0,19.999 Z"/>
<path fill-rule="evenodd"  fill="rgb(235, 109, 113)"
 d="M34.403,35.999 L34.403,23.913 L36.893,23.913 L36.893,33.999 L42.180,33.999 L42.180,35.999 L34.403,35.999 ZM30.941,35.178 L32.950,36.755 L31.365,38.158 L28.792,36.91 C28.498,36.141 28.194,36.165 27.878,36.165 C26.877,36.165 25.983,35.925 25.197,35.443 C24.411,34.962 23.803,34.274 23.371,33.381 C22.940,32.487 22.721,31.459 22.715,30.297 L22.715,29.699 C22.715,28.509 22.930,27.462 23.359,26.557 C23.788,25.653 24.393,24.958 25.177,24.474 C25.960,23.990 26.855,23.748 27.862,23.748 C28.869,23.748 29.764,23.990 30.547,24.474 C31.330,24.958 31.936,25.653 32.365,26.557 C32.794,27.462 33.8,28.507 33.8,29.691 L33.8,30.230 C33.8,31.359 32.826,32.340 32.461,33.173 C32.95,34.6 31.589,34.674 30.941,35.178 ZM30.485,29.683 C30.485,28.415 30.258,27.452 29.804,26.794 C29.351,26.135 28.703,25.806 27.862,25.806 C27.26,25.806 26.382,26.131 25.928,26.781 C25.474,27.432 25.244,28.385 25.239,29.641 L25.239,30.230 C25.239,31.464 25.466,32.422 25.919,33.103 C26.373,33.783 27.26,34.123 27.878,34.123 C28.714,34.123 29.356,33.796 29.804,33.140 C30.253,32.484 30.479,31.528 30.485,30.272 L30.485,29.683 ZM17.777,28.869 C19.193,29.295 20.225,29.824 20.873,30.455 C21.520,31.85 21.844,31.871 21.844,32.812 C21.844,33.858 21.448,34.678 20.657,35.273 C19.866,35.868 18.801,36.165 17.461,36.165 C16.532,36.165 15.685,35.995 14.921,35.655 C14.158,35.315 13.575,34.848 13.174,34.256 C12.773,33.664 12.572,32.978 12.572,32.198 L15.71,32.198 C15.71,33.531 15.868,34.198 17.461,34.198 C18.54,34.198 18.516,34.78 18.848,33.837 C19.180,33.596 19.346,33.260 19.346,32.829 C19.346,32.358 19.180,31.997 18.848,31.745 C18.516,31.493 17.918,31.228 17.55,30.948 C16.191,30.669 15.508,30.394 15.4,30.123 C13.632,29.381 12.946,28.382 12.946,27.126 C12.946,26.473 13.130,25.890 13.498,25.379 C13.866,24.867 14.394,24.467 15.83,24.179 C15.772,23.891 16.545,23.748 17.403,23.748 C18.267,23.748 19.36,23.904 19.711,24.216 C20.386,24.529 20.910,24.971 21.284,25.540 C21.657,26.110 21.844,26.758 21.844,27.483 L19.354,27.483 C19.354,26.929 19.180,26.499 18.831,26.192 C18.482,25.885 17.993,25.731 17.362,25.731 C16.753,25.731 16.280,25.860 15.942,26.117 C15.605,26.375 15.436,26.714 15.436,27.134 C15.436,27.527 15.634,27.856 16.29,28.122 C16.425,28.388 17.8,28.637 17.777,28.869 Z"/>
<path fill-rule="evenodd"  fill="rgb(235, 109, 113)"
 d="M74.322,86.35 C73.865,87.347 73.232,88.537 72.423,89.603 C71.615,90.669 70.665,91.589 69.576,92.363 C68.486,93.136 67.296,93.675 66.7,93.980 C64.718,93.675 63.523,93.136 62.421,92.363 C61.320,91.589 60.365,90.669 59.556,89.603 C58.747,88.537 58.120,87.347 57.675,86.35 C57.230,84.722 57.7,83.374 57.7,81.992 L57.7,75.980 L66.7,72.7 L75.7,75.980 L75.7,81.992 C75.7,83.374 74.779,84.722 74.322,86.35 ZM66.7,75.874 L60.980,78.124 L60.980,83.433 C60.980,84.980 61.460,86.392 62.421,87.669 C63.382,88.947 64.578,89.761 66.7,90.113 L66.7,75.874 ZM52.999,72.886 L52.999,77.984 L37.3,77.984 C36.441,77.984 35.966,77.790 35.580,77.404 C35.193,77.17 34.999,76.542 34.999,75.980 L34.999,67.999 C34.999,67.437 35.193,66.962 35.580,66.576 C35.966,66.189 36.441,65.996 37.3,65.996 L68.996,65.996 C69.535,65.996 70.3,66.189 70.402,66.576 C70.800,66.962 70.999,67.437 70.999,67.999 L70.999,69.335 L66.7,67.121 L52.999,72.886 ZM42.980,70.3 L39.7,70.3 L39.7,74.11 L42.980,74.11 L42.980,70.3 ZM48.992,70.3 L46.988,70.3 L46.988,74.11 L48.992,74.11 L48.992,70.3 ZM68.996,61.988 L37.3,61.988 C36.441,61.988 35.966,61.794 35.580,61.408 C35.193,61.21 34.999,60.546 34.999,59.984 L34.999,52.3 C34.999,51.441 35.193,50.966 35.580,50.580 C35.966,50.193 36.441,49.999 37.3,49.999 L68.996,49.999 C69.535,49.999 70.3,50.193 70.402,50.580 C70.800,50.966 70.999,51.441 70.999,52.3 L70.999,59.984 C70.999,60.546 70.800,61.21 70.402,61.408 C70.3,61.794 69.535,61.988 68.996,61.988 ZM42.980,54.7 L39.7,54.7 L39.7,57.980 L42.980,57.980 L42.980,54.7 ZM48.992,54.7 L46.988,54.7 L46.988,57.980 L48.992,57.980 L48.992,54.7 ZM37.3,81.992 L52.999,81.992 C53.23,83.117 53.158,84.224 53.404,85.314 C53.650,86.404 53.984,87.458 54.406,88.478 C54.828,89.497 55.337,90.470 55.935,91.396 C56.533,92.322 57.195,93.183 57.921,93.980 L37.3,93.980 C36.441,93.980 35.966,93.787 35.580,93.400 C35.193,93.13 34.999,92.550 34.999,92.11 L34.999,83.996 C34.999,83.456 35.193,82.988 35.580,82.589 C35.966,82.191 36.441,81.992 37.3,81.992 ZM46.988,90.7 L48.992,90.7 L48.992,85.999 L46.988,85.999 L46.988,90.7 ZM39.7,90.7 L42.980,90.7 L42.980,85.999 L39.7,85.999 L39.7,90.7 Z"/>
</svg>