<svg 
 xmlns="http://www.w3.org/2000/svg"
 xmlns:xlink="http://www.w3.org/1999/xlink"
 width="96px" height="107px">
<path fill-rule="evenodd"  fill="rgb(208, 112, 18)"
 d="M95.769,106.362 L13.999,106.362 L13.999,0.0 L70.216,0.0 L95.769,25.324 L95.769,106.362 Z"/>
<path fill-rule="evenodd"  fill="rgb(255, 173, 93)"
 d="M92.275,28.58 L67.999,28.58 L67.999,3.999 L92.275,28.58 Z"/>
<path fill-rule="evenodd"  fill="rgb(167, 84, 2)"
 d="M0.0,19.999 C0.0,17.790 1.790,15.999 3.999,15.999 L50.999,15.999 C53.209,15.999 54.999,17.790 54.999,19.999 L54.999,39.999 C54.999,42.209 53.209,43.999 50.999,43.999 L3.999,43.999 C1.790,43.999 0.0,42.209 0.0,39.999 L0.0,19.999 Z"/>
<path fill-rule="evenodd"  fill="rgb(255, 173, 93)"
 d="M38.87,32.218 L38.87,30.276 L43.123,30.276 L43.123,35.382 C42.648,35.951 41.977,36.392 41.110,36.705 C40.243,37.18 39.282,37.175 38.227,37.175 C37.120,37.175 36.149,36.933 35.314,36.450 C34.479,35.967 33.834,35.265 33.380,34.345 C32.926,33.425 32.693,32.344 32.681,31.102 L32.681,30.232 C32.681,28.955 32.897,27.849 33.327,26.914 C33.758,25.979 34.379,25.265 35.191,24.769 C36.2,24.274 36.953,24.27 38.43,24.27 C39.560,24.27 40.747,24.389 41.602,25.112 C42.458,25.836 42.964,26.889 43.123,28.272 L40.556,28.272 C40.439,27.540 40.180,27.3 39.778,26.664 C39.377,26.324 38.825,26.154 38.122,26.154 C37.225,26.154 36.543,26.491 36.74,27.164 C35.605,27.838 35.368,28.840 35.362,30.170 L35.362,30.988 C35.362,32.330 35.617,33.343 36.127,34.29 C36.636,34.714 37.383,35.57 38.368,35.57 C39.358,35.57 40.64,34.846 40.486,34.424 L40.486,32.218 L38.87,32.218 ZM25.133,36.999 L20.694,24.203 L23.621,24.203 L26.504,33.827 L29.404,24.203 L32.340,24.203 L27.884,36.999 L25.133,36.999 ZM16.117,29.450 C17.617,29.901 18.709,30.460 19.395,31.128 C20.81,31.796 20.423,32.628 20.423,33.624 C20.423,34.732 20.4,35.601 19.166,36.230 C18.329,36.860 17.201,37.175 15.783,37.175 C14.798,37.175 13.902,36.995 13.93,36.635 C12.285,36.274 11.668,35.781 11.243,35.154 C10.818,34.527 10.606,33.800 10.606,32.974 L13.251,32.974 C13.251,34.386 14.95,35.92 15.783,35.92 C16.410,35.92 16.899,34.965 17.250,34.710 C17.602,34.455 17.778,34.99 17.778,33.642 C17.778,33.144 17.602,32.762 17.250,32.495 C16.899,32.228 16.266,31.947 15.352,31.651 C14.438,31.355 13.714,31.64 13.181,30.777 C11.728,29.992 11.1,28.934 11.1,27.604 C11.1,26.913 11.196,26.296 11.586,25.754 C11.976,25.212 12.535,24.788 13.264,24.484 C13.994,24.179 14.813,24.27 15.721,24.27 C16.635,24.27 17.450,24.192 18.164,24.523 C18.879,24.854 19.434,25.322 19.830,25.925 C20.225,26.529 20.423,27.214 20.423,27.982 L17.787,27.982 C17.787,27.396 17.602,26.940 17.233,26.615 C16.864,26.290 16.345,26.127 15.677,26.127 C15.33,26.127 14.532,26.264 14.174,26.536 C13.817,26.809 13.638,27.167 13.638,27.613 C13.638,28.29 13.848,28.377 14.267,28.659 C14.685,28.940 15.302,29.204 16.117,29.450 Z"/>
<path fill-rule="evenodd"  fill="rgb(255, 173, 93)"
 d="M62.671,86.953 L56.976,81.257 L66.328,71.976 L56.976,62.624 L62.671,56.999 L77.648,71.976 L62.671,86.953 ZM47.976,86.953 L32.999,71.976 L47.976,56.999 L53.671,62.624 L44.320,71.976 L53.671,81.257 L47.976,86.953 Z"/>
</svg>