<svg 
 xmlns="http://www.w3.org/2000/svg"
 xmlns:xlink="http://www.w3.org/1999/xlink"
 width="96px" height="107px">
<path fill-rule="evenodd"  fill="rgb(28, 93, 164)"
 d="M95.769,106.362 L13.999,106.362 L13.999,0.0 L70.216,0.0 L95.769,25.324 L95.769,106.362 Z"/>
<path fill-rule="evenodd"  fill="rgb(123, 182, 246)"
 d="M92.60,27.566 L67.784,27.566 L67.784,3.508 L92.60,27.566 Z"/>
<path fill-rule="evenodd"  fill="rgb(44, 122, 205)"
 d="M0.0,19.999 C0.0,17.790 1.790,15.999 3.999,15.999 L50.999,15.999 C53.209,15.999 54.999,17.790 54.999,19.999 L54.999,39.999 C54.999,42.209 53.209,43.999 50.999,43.999 L3.999,43.999 C1.790,43.999 0.0,42.209 0.0,39.999 L0.0,19.999 Z"/>
<text kerning="auto" font-family="DejaVuSans" fill="rgb(0, 0, 0)" font-size="17px" x="12px" y="36.841px"><tspan font-size="17px" font-family="Roboto" font-weight="bold" fill="#69A5F3">TXT</tspan></text>
<path fill-rule="evenodd"  fill="rgb(123, 182, 246)"
 d="M68.300,57.999 L70.621,66.683 L68.722,67.210 C68.277,66.343 67.820,65.511 67.351,64.714 C66.882,63.917 66.378,63.296 65.839,62.851 C65.300,62.406 64.732,62.148 64.134,62.78 C63.536,62.7 62.933,61.972 62.324,61.972 L57.331,61.972 L57.331,82.995 C57.331,83.488 57.355,83.962 57.402,84.419 C57.449,84.876 57.636,85.234 57.964,85.492 C58.316,85.726 58.796,85.867 59.406,85.913 C60.15,85.960 60.648,85.984 61.304,85.984 L61.304,87.988 L49.316,87.988 L49.316,85.984 C49.995,85.984 50.634,85.960 51.232,85.913 C51.829,85.867 52.304,85.726 52.656,85.492 C52.984,85.234 53.177,84.876 53.236,84.419 C53.294,83.962 53.324,83.488 53.324,82.995 L53.324,61.972 L48.331,61.972 C47.722,61.972 47.113,62.7 46.503,62.78 C45.894,62.148 45.320,62.406 44.781,62.851 C44.265,63.296 43.773,63.917 43.304,64.714 C42.835,65.511 42.378,66.343 41.933,67.210 L39.999,66.683 L42.320,57.999 L68.300,57.999 Z"/>
</svg>