<svg 
 xmlns="http://www.w3.org/2000/svg"
 xmlns:xlink="http://www.w3.org/1999/xlink"
 width="96px" height="107px">
<path fill-rule="evenodd"  fill="rgb(17, 144, 124)"
 d="M95.769,106.362 L13.999,106.362 L13.999,0.0 L70.216,0.0 L95.769,25.324 L95.769,106.362 Z"/>
<path fill-rule="evenodd"  fill="rgb(55, 210, 186)"
 d="M92.275,28.58 L67.999,28.58 L67.999,3.999 L92.275,28.58 Z"/>
<path fill-rule="evenodd"  fill="rgb(13, 98, 84)"
 d="M0.0,19.999 C0.0,17.790 1.790,15.999 3.999,15.999 L50.999,15.999 C53.209,15.999 54.999,17.790 54.999,19.999 L54.999,39.999 C54.999,42.209 53.209,43.999 50.999,43.999 L3.999,43.999 C1.790,43.999 0.0,42.209 0.0,39.999 L0.0,19.999 Z"/>
<path fill-rule="evenodd"  fill="rgb(55, 210, 186)"
 d="M34.253,35.999 L34.253,23.913 L36.743,23.913 L36.743,33.999 L42.31,33.999 L42.31,35.999 L34.253,35.999 ZM28.310,31.575 L26.326,31.575 L26.326,35.999 L23.836,35.999 L23.836,23.913 L28.327,23.913 C29.754,23.913 30.856,24.232 31.630,24.868 C32.405,25.505 32.793,26.404 32.793,27.566 C32.793,28.390 32.614,29.78 32.257,29.629 C31.900,30.179 31.359,30.618 30.634,30.944 L33.249,35.883 L33.249,35.999 L30.576,35.999 L28.310,31.575 ZM29.817,26.420 C29.493,26.94 28.996,25.931 28.327,25.931 L26.326,25.931 L26.326,29.558 L28.335,29.558 C28.960,29.558 29.445,29.399 29.788,29.81 C30.131,28.763 30.302,28.324 30.302,27.765 C30.302,27.195 30.140,26.747 29.817,26.420 ZM17.594,36.165 C16.183,36.165 15.62,35.792 14.232,35.45 C13.402,34.298 12.979,33.271 12.962,31.965 L12.962,23.913 L15.453,23.913 L15.453,31.891 C15.453,32.682 15.642,33.259 16.21,33.621 C16.400,33.984 16.925,34.165 17.594,34.165 C18.994,34.165 19.705,33.429 19.728,31.957 L19.728,23.913 L22.226,23.913 L22.226,31.874 C22.226,33.197 21.812,34.242 20.985,35.12 C20.158,35.781 19.27,36.165 17.594,36.165 Z"/>
<path fill-rule="evenodd"  fill="rgb(55, 210, 186)"
 d="M73.425,79.773 C72.370,82.210 70.941,84.331 69.136,86.136 C67.331,87.941 65.210,89.370 62.773,90.425 C60.335,91.480 57.746,92.7 55.3,92.7 C52.238,92.7 49.642,91.480 47.216,90.425 C44.790,89.370 42.669,87.941 40.853,86.136 C39.37,84.331 37.607,82.210 36.564,79.773 C35.521,77.335 34.999,74.746 34.999,72.3 C34.999,69.238 35.521,66.642 36.564,64.216 C37.607,61.790 39.37,59.669 40.853,57.853 C42.669,56.37 44.790,54.607 47.216,53.564 C49.642,52.521 52.238,51.999 55.3,51.999 C57.746,51.999 60.335,52.521 62.773,53.564 C65.210,54.607 67.331,56.37 69.136,57.853 C70.941,59.669 72.370,61.790 73.425,64.216 C74.480,66.642 75.7,69.238 75.7,72.3 C75.7,74.746 74.480,77.335 73.425,79.773 ZM39.429,68.417 C39.288,68.980 39.183,69.560 39.113,70.158 C39.42,70.755 39.7,71.371 39.7,72.3 C39.7,74.42 39.365,75.970 40.80,77.787 C40.794,79.603 41.779,81.214 43.33,82.621 C44.287,84.27 45.769,85.187 47.480,86.101 C49.191,87.15 51.31,87.601 52.999,87.859 L52.999,83.992 C51.898,83.992 50.954,83.599 50.169,82.814 C49.384,82.29 48.992,81.85 48.992,79.984 L48.992,77.980 L39.429,68.417 ZM70.261,67.169 C69.769,65.634 69.78,64.228 68.187,62.951 C67.296,61.673 66.242,60.537 65.23,59.540 C63.804,58.544 62.456,57.753 60.980,57.167 L60.980,57.976 C60.980,59.78 60.587,60.21 59.802,60.806 C59.17,61.591 58.85,61.984 57.7,61.984 L52.999,61.984 L52.999,65.992 C52.999,66.531 52.800,66.999 52.402,67.398 C52.3,67.796 51.535,67.996 50.995,67.996 L46.988,67.996 L46.988,72.3 L58.976,72.3 C59.538,72.3 60.13,72.197 60.400,72.583 C60.787,72.970 60.980,73.445 60.980,74.7 L60.980,79.984 L62.984,79.984 C63.874,79.984 64.665,80.248 65.357,80.775 C66.48,81.302 66.523,81.964 66.781,82.761 C67.437,82.58 68.23,81.296 68.538,80.476 C69.54,79.656 69.494,78.789 69.857,77.874 C70.220,76.960 70.501,76.11 70.701,75.27 C70.900,74.42 70.999,73.35 70.999,72.3 C70.999,70.316 70.753,68.704 70.261,67.169 Z"/>
</svg>