<svg 
 xmlns="http://www.w3.org/2000/svg"
 xmlns:xlink="http://www.w3.org/1999/xlink"
 width="96px" height="107px">
<path fill-rule="evenodd"  fill="rgb(64, 53, 52)"
 d="M95.769,106.362 L13.999,106.362 L13.999,0.0 L70.216,0.0 L95.769,25.324 L95.769,106.362 Z"/>
<path fill-rule="evenodd"  fill="rgb(229, 190, 186)"
 d="M92.275,28.58 L67.999,28.58 L67.999,3.999 L92.275,28.58 Z"/>
<path fill-rule="evenodd"  fill="rgb(47, 39, 38)"
 d="M0.0,19.999 C0.0,17.790 1.790,15.999 3.999,15.999 L50.999,15.999 C53.209,15.999 54.999,17.790 54.999,19.999 L54.999,39.999 C54.999,42.209 53.209,43.999 50.999,43.999 L3.999,43.999 C1.790,43.999 0.0,42.209 0.0,39.999 L0.0,19.999 Z"/>
<path fill-rule="evenodd"  fill="rgb(229, 190, 186)"
 d="M35.835,25.931 L35.835,29.52 L40.616,29.52 L40.616,31.61 L35.835,31.61 L35.835,35.999 L33.344,35.999 L33.344,23.913 L41.213,23.913 L41.213,25.931 L35.835,25.931 ZM29.16,26.317 C28.642,25.965 28.74,25.790 27.310,25.790 C26.480,25.790 25.859,26.87 25.447,26.682 C25.34,27.277 24.823,28.199 24.812,29.450 L24.812,30.363 C24.812,31.669 25.9,32.624 25.405,33.227 C25.801,33.830 26.425,34.132 27.277,34.132 C28.46,34.132 28.620,33.956 28.999,33.605 C29.378,33.253 29.596,32.710 29.651,31.974 L32.141,31.974 C32.47,33.274 31.567,34.298 30.701,35.45 C29.835,35.792 28.694,36.165 27.277,36.165 C25.727,36.165 24.509,35.644 23.620,34.601 C22.732,33.558 22.288,32.126 22.288,30.305 L22.288,29.566 C22.288,28.404 22.493,27.380 22.902,26.495 C23.312,25.610 23.897,24.930 24.658,24.457 C25.419,23.984 26.303,23.748 27.310,23.748 C28.705,23.748 29.828,24.121 30.680,24.868 C31.532,25.615 32.25,26.664 32.158,28.14 L29.667,28.14 C29.607,27.234 29.389,26.668 29.16,26.317 ZM15.249,35.999 L11.57,23.913 L13.822,23.913 L16.544,33.3 L19.284,23.913 L22.56,23.913 L17.848,35.999 L15.249,35.999 Z"/>
<path fill-rule="evenodd"  fill="rgb(229, 190, 186)"
 d="M77.775,90.173 C76.966,90.982 76.46,91.386 75.15,91.386 L35.7,91.386 C33.953,91.386 33.21,90.982 32.212,90.173 C31.404,89.365 30.999,88.433 30.999,87.378 L30.999,59.359 C30.999,58.328 31.404,57.408 32.212,56.599 C33.21,55.790 33.953,55.386 35.7,55.386 L75.15,55.386 C76.46,55.386 76.966,55.790 77.775,56.599 C78.583,57.408 78.988,58.328 78.988,59.359 L78.988,87.378 C78.988,88.433 78.583,89.365 77.775,90.173 ZM51.249,63.121 C50.77,61.949 48.660,61.363 46.996,61.363 C45.331,61.363 43.913,61.949 42.742,63.121 C41.570,64.292 40.984,65.710 40.984,67.374 C40.984,69.38 41.570,70.456 42.742,71.628 C43.913,72.800 45.331,73.386 46.996,73.386 C48.660,73.386 50.77,72.800 51.249,71.628 C52.421,70.456 53.7,69.38 53.7,67.374 C53.7,65.710 52.421,64.292 51.249,63.121 ZM54.501,78.783 C53.248,78.255 51.935,77.857 50.564,77.587 C49.193,77.318 48.3,77.183 46.996,77.183 C45.988,77.183 44.798,77.318 43.427,77.587 C42.56,77.857 40.744,78.255 39.490,78.783 C38.236,79.310 37.175,79.955 36.308,80.716 C35.441,81.478 35.7,82.363 35.7,83.371 L35.7,85.374 L58.984,85.374 L58.984,83.371 C58.984,82.363 58.550,81.478 57.683,80.716 C56.816,79.955 55.755,79.310 54.501,78.783 ZM73.11,71.382 L73.11,69.378 L58.984,69.378 L58.984,71.382 L73.11,71.382 ZM75.15,61.363 L58.984,61.363 L58.984,63.367 L75.15,63.367 L75.15,61.363 ZM75.15,65.371 L58.984,65.371 L58.984,67.374 L75.15,67.374 L75.15,65.371 Z"/>
</svg>