<svg 
 xmlns="http://www.w3.org/2000/svg"
 xmlns:xlink="http://www.w3.org/1999/xlink"
 width="96px" height="107px">
<path fill-rule="evenodd"  fill="rgb(123, 182, 246)"
 d="M92.275,28.58 L67.999,28.58 L67.999,3.999 L92.275,28.58 Z"/>
<path fill-rule="evenodd"  fill="rgb(44, 122, 205)"
 d="M0.0,19.999 C0.0,17.790 1.790,15.999 3.999,15.999 L50.999,15.999 C53.209,15.999 54.999,17.790 54.999,19.999 L54.999,39.999 C54.999,42.209 53.209,43.999 50.999,43.999 L3.999,43.999 C1.790,43.999 0.0,42.209 0.0,39.999 L0.0,19.999 Z"/>
<text kerning="auto" font-family="DejaVuSans" fill="rgb(0, 0, 0)" font-size="18px" x="10px" y="38.7139999999999px"><tspan font-size="18px" font-family="Roboto" font-weight="bold" fill="#69A5F3">DO</tspan><tspan font-size="18px" font-family="Roboto" font-weight="bold" fill="#69A5F3">C</tspan></text>
<path fill-rule="evenodd"  fill="rgb(118, 177, 241)"
 d="M39.999,67.917 L41.944,67.917 L41.944,85.422 L48.266,85.422 L53.128,76.771 L53.128,85.422 L58.963,85.422 L67.716,67.917 L69.661,67.917 L69.661,64.999 L60.908,64.999 L60.908,67.917 L62.367,67.917 L58.963,74.623 L58.963,64.999 L52.156,64.999 L46.321,75.981 L46.321,67.917 L48.266,67.917 L48.266,64.999 L39.999,64.999 L39.999,67.917 Z"/>
<path fill-rule="evenodd"  fill="rgb(123, 182, 246)"
 d="M92.275,28.58 L67.999,28.58 L67.999,3.999 L92.275,28.58 Z"/>
<path fill-rule="evenodd"  fill="rgb(44, 122, 205)"
 d="M0.0,19.999 C0.0,17.790 1.790,15.999 3.999,15.999 L50.999,15.999 C53.209,15.999 54.999,17.790 54.999,19.999 L54.999,39.999 C54.999,42.209 53.209,43.999 50.999,43.999 L3.999,43.999 C1.790,43.999 0.0,42.209 0.0,39.999 L0.0,19.999 Z"/>
<text kerning="auto" font-family="DejaVuSans" fill="rgb(0, 0, 0)" font-size="18px" x="10px" y="38.7139999999999px"><tspan font-size="18px" font-family="Roboto" font-weight="bold" fill="#69A5F3">DO</tspan><tspan font-size="18px" font-family="Roboto" font-weight="bold" fill="#69A5F3">C</tspan></text>
<path fill-rule="evenodd"  fill="rgb(255, 255, 255)"
 d="M34.999,63.900 L37.600,63.900 L37.600,87.306 L46.52,87.306 L52.554,75.739 L52.554,87.306 L60.356,87.306 L72.59,63.900 L74.659,63.900 L74.659,59.999 L62.957,59.999 L62.957,63.900 L64.907,63.900 L60.356,72.867 L60.356,59.999 L51.254,59.999 L43.451,74.683 L43.451,63.900 L46.52,63.900 L46.52,59.999 L34.999,59.999 L34.999,63.900 Z"/>
<path fill-rule="evenodd"  fill="rgb(123, 182, 246)"
 d="M92.275,28.58 L67.999,28.58 L67.999,3.999 L92.275,28.58 Z"/>
<path fill-rule="evenodd"  fill="rgb(44, 122, 205)"
 d="M0.0,19.999 C0.0,17.790 1.790,15.999 3.999,15.999 L50.999,15.999 C53.209,15.999 54.999,17.790 54.999,19.999 L54.999,39.999 C54.999,42.209 53.209,43.999 50.999,43.999 L3.999,43.999 C1.790,43.999 0.0,42.209 0.0,39.999 L0.0,19.999 Z"/>
<text kerning="auto" font-family="DejaVuSans" fill="rgb(0, 0, 0)" font-size="18px" x="10px" y="38.7139999999999px"><tspan font-size="18px" font-family="Roboto" font-weight="bold" fill="#69A5F3">DO</tspan><tspan font-size="18px" font-family="Roboto" font-weight="bold" fill="#69A5F3">C</tspan></text>
<path fill-rule="evenodd"  fill="rgb(118, 177, 241)"
 d="M39.999,67.917 L41.944,67.917 L41.944,85.422 L48.266,85.422 L53.128,76.771 L53.128,85.422 L58.963,85.422 L67.716,67.917 L69.661,67.917 L69.661,64.999 L60.908,64.999 L60.908,67.917 L62.367,67.917 L58.963,74.623 L58.963,64.999 L52.156,64.999 L46.321,75.981 L46.321,67.917 L48.266,67.917 L48.266,64.999 L39.999,64.999 L39.999,67.917 Z"/>
<path fill-rule="evenodd"  fill="rgb(185, 184, 162)"
 d="M95.769,106.362 L13.999,106.362 L13.999,0.0 L70.216,0.0 L95.769,25.324 L95.769,106.362 Z"/>
<path fill-rule="evenodd"  fill="rgb(226, 224, 193)"
 d="M92.275,28.58 L67.999,28.58 L67.999,3.999 L92.275,28.58 Z"/>
<path fill-rule="evenodd"  fill="rgb(126, 127, 114)"
 d="M0.0,19.999 C0.0,17.790 1.790,15.999 3.999,15.999 L50.999,15.999 C53.209,15.999 54.999,17.790 54.999,19.999 L54.999,39.999 C54.999,42.209 53.209,43.999 50.999,43.999 L3.999,43.999 C1.790,43.999 0.0,42.209 0.0,39.999 L0.0,19.999 Z"/>
<path fill-rule="evenodd"  fill="rgb(226, 224, 193)"
 d="M39.175,25.931 L39.175,35.999 L36.685,35.999 L36.685,25.931 L33.33,25.931 L33.33,23.914 L42.878,23.914 L42.878,25.931 L39.175,25.931 ZM28.459,28.869 C29.876,29.295 30.908,29.824 31.556,30.455 C32.203,31.85 32.527,31.871 32.527,32.812 C32.527,33.858 32.131,34.678 31.340,35.273 C30.549,35.868 29.483,36.165 28.144,36.165 C27.214,36.165 26.368,35.995 25.604,35.655 C24.840,35.315 24.258,34.848 23.857,34.256 C23.456,33.664 23.255,32.978 23.255,32.198 L25.753,32.198 C25.753,33.531 26.550,34.198 28.144,34.198 C28.736,34.198 29.198,34.78 29.530,33.837 C29.862,33.596 30.28,33.260 30.28,32.829 C30.28,32.358 29.862,31.997 29.530,31.745 C29.198,31.494 28.601,31.228 27.737,30.948 C26.874,30.669 26.191,30.394 25.687,30.122 C24.315,29.381 23.628,28.382 23.628,27.126 C23.628,26.473 23.812,25.890 24.181,25.379 C24.549,24.867 25.77,24.467 25.766,24.179 C26.455,23.891 27.228,23.747 28.86,23.747 C28.949,23.747 29.718,23.904 30.394,24.217 C31.69,24.529 31.593,24.970 31.967,25.540 C32.340,26.110 32.527,26.758 32.527,27.483 L30.37,27.483 C30.37,26.929 29.862,26.499 29.514,26.192 C29.165,25.885 28.675,25.731 28.44,25.731 C27.436,25.731 26.963,25.860 26.625,26.117 C26.287,26.375 26.119,26.714 26.119,27.134 C26.119,27.527 26.316,27.856 26.712,28.122 C27.108,28.388 27.690,28.637 28.459,28.869 ZM16.249,35.999 L12.58,23.914 L14.822,23.914 L17.544,33.3 L20.284,23.914 L23.56,23.914 L18.848,35.999 L16.249,35.999 Z"/>
<path fill-rule="evenodd"  fill="rgb(226, 224, 193)"
 d="M35.999,80.999 L46.999,80.999 L46.999,91.999 L35.999,91.999 L35.999,80.999 Z"/>
<path fill-rule="evenodd"  fill="rgb(226, 224, 193)"
 d="M67.2,68.149 L60.885,62.18 C60.448,61.580 60.448,60.924 60.885,60.486 L67.2,54.355 C67.439,53.917 68.94,53.917 68.531,54.355 L74.647,60.486 C75.84,60.924 75.84,61.580 74.647,62.18 L68.531,68.149 C68.94,68.587 67.439,68.587 67.2,68.149 Z"/>
<path fill-rule="evenodd"  fill="rgb(226, 224, 193)"
 d="M41.553,67.820 C45.172,67.820 48.106,64.880 48.106,61.252 C48.106,57.624 45.172,54.684 41.553,54.684 C37.933,54.684 34.999,57.624 34.999,61.252 C34.999,64.880 37.933,67.820 41.553,67.820 Z"/>
<path fill-rule="evenodd"  fill="rgb(226, 224, 193)"
 d="M67.766,92.999 C71.386,92.999 74.320,90.59 74.320,86.431 C74.320,82.803 71.386,79.863 67.766,79.863 C64.147,79.863 61.213,82.803 61.213,86.431 C61.213,90.59 64.147,92.999 67.766,92.999 Z"/>
<path fill-rule="evenodd"  fill="rgb(226, 224, 193)"
 d="M40.317,73.272 L42.635,73.272 L42.635,78.727 L40.317,78.727 L40.317,73.272 Z"/>
<path fill-rule="evenodd"  fill="rgb(226, 224, 193)"
 d="M41.476,69.999 L37.999,74.363 L44.952,74.363 L41.476,69.999 Z"/>
<path fill-rule="evenodd"  fill="rgb(226, 224, 193)"
 d="M49.999,60.333 L55.417,60.333 L55.417,62.666 L49.999,62.666 L49.999,60.333 Z"/>
<path fill-rule="evenodd"  fill="rgb(226, 224, 193)"
 d="M58.668,61.499 L54.334,57.999 L54.334,64.999 L58.668,61.499 Z"/>
<path fill-rule="evenodd"  fill="rgb(226, 224, 193)"
 d="M66.317,69.999 L68.635,69.999 L68.635,75.454 L66.317,75.454 L66.317,69.999 Z"/>
<path fill-rule="evenodd"  fill="rgb(226, 224, 193)"
 d="M67.476,78.727 L70.952,74.363 L63.999,74.363 L67.476,78.727 Z"/>
</svg>