<svg 
 xmlns="http://www.w3.org/2000/svg"
 xmlns:xlink="http://www.w3.org/1999/xlink"
 width="96px" height="107px">
<path fill-rule="evenodd"  fill="rgb(123, 182, 246)"
 d="M92.275,28.58 L67.999,28.58 L67.999,3.999 L92.275,28.58 Z"/>
<path fill-rule="evenodd"  fill="rgb(44, 122, 205)"
 d="M0.0,19.999 C0.0,17.790 1.790,15.999 3.999,15.999 L50.999,15.999 C53.209,15.999 54.999,17.790 54.999,19.999 L54.999,39.999 C54.999,42.209 53.209,43.999 50.999,43.999 L3.999,43.999 C1.790,43.999 0.0,42.209 0.0,39.999 L0.0,19.999 Z"/>
<text kerning="auto" font-family="DejaVuSans" fill="rgb(0, 0, 0)" font-size="18px" x="10px" y="38.7139999999999px"><tspan font-size="18px" font-family="Roboto" font-weight="bold" fill="#69A5F3">DO</tspan><tspan font-size="18px" font-family="Roboto" font-weight="bold" fill="#69A5F3">C</tspan></text>
<path fill-rule="evenodd"  fill="rgb(118, 177, 241)"
 d="M39.999,67.917 L41.944,67.917 L41.944,85.422 L48.266,85.422 L53.128,76.771 L53.128,85.422 L58.963,85.422 L67.716,67.917 L69.661,67.917 L69.661,64.999 L60.908,64.999 L60.908,67.917 L62.367,67.917 L58.963,74.623 L58.963,64.999 L52.156,64.999 L46.321,75.981 L46.321,67.917 L48.266,67.917 L48.266,64.999 L39.999,64.999 L39.999,67.917 Z"/>
<path fill-rule="evenodd"  fill="rgb(123, 182, 246)"
 d="M92.275,28.58 L67.999,28.58 L67.999,3.999 L92.275,28.58 Z"/>
<path fill-rule="evenodd"  fill="rgb(44, 122, 205)"
 d="M0.0,19.999 C0.0,17.790 1.790,15.999 3.999,15.999 L50.999,15.999 C53.209,15.999 54.999,17.790 54.999,19.999 L54.999,39.999 C54.999,42.209 53.209,43.999 50.999,43.999 L3.999,43.999 C1.790,43.999 0.0,42.209 0.0,39.999 L0.0,19.999 Z"/>
<text kerning="auto" font-family="DejaVuSans" fill="rgb(0, 0, 0)" font-size="18px" x="10px" y="38.7139999999999px"><tspan font-size="18px" font-family="Roboto" font-weight="bold" fill="#69A5F3">DO</tspan><tspan font-size="18px" font-family="Roboto" font-weight="bold" fill="#69A5F3">C</tspan></text>
<path fill-rule="evenodd"  fill="rgb(255, 255, 255)"
 d="M34.999,63.900 L37.600,63.900 L37.600,87.306 L46.52,87.306 L52.554,75.739 L52.554,87.306 L60.356,87.306 L72.59,63.900 L74.659,63.900 L74.659,59.999 L62.957,59.999 L62.957,63.900 L64.907,63.900 L60.356,72.867 L60.356,59.999 L51.254,59.999 L43.451,74.683 L43.451,63.900 L46.52,63.900 L46.52,59.999 L34.999,59.999 L34.999,63.900 Z"/>
<path fill-rule="evenodd"  fill="rgb(123, 182, 246)"
 d="M92.275,28.58 L67.999,28.58 L67.999,3.999 L92.275,28.58 Z"/>
<path fill-rule="evenodd"  fill="rgb(44, 122, 205)"
 d="M0.0,19.999 C0.0,17.790 1.790,15.999 3.999,15.999 L50.999,15.999 C53.209,15.999 54.999,17.790 54.999,19.999 L54.999,39.999 C54.999,42.209 53.209,43.999 50.999,43.999 L3.999,43.999 C1.790,43.999 0.0,42.209 0.0,39.999 L0.0,19.999 Z"/>
<text kerning="auto" font-family="DejaVuSans" fill="rgb(0, 0, 0)" font-size="18px" x="10px" y="38.7139999999999px"><tspan font-size="18px" font-family="Roboto" font-weight="bold" fill="#69A5F3">DO</tspan><tspan font-size="18px" font-family="Roboto" font-weight="bold" fill="#69A5F3">C</tspan></text>
<path fill-rule="evenodd"  fill="rgb(118, 177, 241)"
 d="M39.999,67.917 L41.944,67.917 L41.944,85.422 L48.266,85.422 L53.128,76.771 L53.128,85.422 L58.963,85.422 L67.716,67.917 L69.661,67.917 L69.661,64.999 L60.908,64.999 L60.908,67.917 L62.367,67.917 L58.963,74.623 L58.963,64.999 L52.156,64.999 L46.321,75.981 L46.321,67.917 L48.266,67.917 L48.266,64.999 L39.999,64.999 L39.999,67.917 Z"/>
<path fill-rule="evenodd"  fill="rgb(185, 184, 162)"
 d="M95.769,106.362 L13.999,106.362 L13.999,0.0 L70.216,0.0 L95.769,25.324 L95.769,106.362 Z"/>
<path fill-rule="evenodd"  fill="rgb(226, 224, 193)"
 d="M92.275,28.58 L67.999,28.58 L67.999,3.999 L92.275,28.58 Z"/>
<path fill-rule="evenodd"  fill="rgb(126, 127, 114)"
 d="M0.0,19.999 C0.0,17.790 1.790,15.999 3.999,15.999 L50.999,15.999 C53.209,15.999 54.999,17.790 54.999,19.999 L54.999,39.999 C54.999,42.209 53.209,43.999 50.999,43.999 L3.999,43.999 C1.790,43.999 0.0,42.209 0.0,39.999 L0.0,19.999 Z"/>
<path fill-rule="evenodd"  fill="rgb(226, 224, 193)"
 d="M42.392,35.999 L39.495,35.999 L37.171,31.766 L34.847,35.999 L31.950,35.999 L35.561,29.907 L32.41,23.914 L34.905,23.914 L37.171,28.80 L39.437,23.914 L42.301,23.914 L38.781,29.907 L42.392,35.999 ZM28.157,35.999 L25.666,35.999 L25.666,25.931 L22.14,25.931 L22.14,24.34 L22.56,23.914 L31.859,23.914 L31.859,25.931 L28.157,25.931 L28.157,35.999 ZM15.249,35.999 L11.58,23.914 L13.822,23.914 L16.544,33.3 L19.284,23.914 L22.14,23.914 L22.14,24.34 L17.848,35.999 L15.249,35.999 Z"/>
<path fill-rule="evenodd"  fill="rgb(226, 224, 193)"
 d="M35.999,80.999 L46.999,80.999 L46.999,91.999 L35.999,91.999 L35.999,80.999 Z"/>
<path fill-rule="evenodd"  fill="rgb(226, 224, 193)"
 d="M67.2,68.149 L60.885,62.18 C60.448,61.580 60.448,60.924 60.885,60.486 L67.2,54.355 C67.439,53.917 68.94,53.917 68.531,54.355 L74.647,60.486 C75.84,60.924 75.84,61.580 74.647,62.18 L68.531,68.149 C68.94,68.587 67.439,68.587 67.2,68.149 Z"/>
<path fill-rule="evenodd"  fill="rgb(226, 224, 193)"
 d="M41.553,67.820 C45.172,67.820 48.106,64.880 48.106,61.252 C48.106,57.624 45.172,54.684 41.553,54.684 C37.933,54.684 34.999,57.624 34.999,61.252 C34.999,64.880 37.933,67.820 41.553,67.820 Z"/>
<path fill-rule="evenodd"  fill="rgb(226, 224, 193)"
 d="M67.766,92.999 C71.386,92.999 74.320,90.59 74.320,86.431 C74.320,82.803 71.386,79.863 67.766,79.863 C64.147,79.863 61.213,82.803 61.213,86.431 C61.213,90.59 64.147,92.999 67.766,92.999 Z"/>
<path fill-rule="evenodd"  fill="rgb(226, 224, 193)"
 d="M40.317,73.272 L42.635,73.272 L42.635,78.727 L40.317,78.727 L40.317,73.272 Z"/>
<path fill-rule="evenodd"  fill="rgb(226, 224, 193)"
 d="M41.476,69.999 L37.999,74.363 L44.952,74.363 L41.476,69.999 Z"/>
<path fill-rule="evenodd"  fill="rgb(226, 224, 193)"
 d="M49.999,60.333 L55.417,60.333 L55.417,62.666 L49.999,62.666 L49.999,60.333 Z"/>
<path fill-rule="evenodd"  fill="rgb(226, 224, 193)"
 d="M58.668,61.499 L54.334,57.999 L54.334,64.999 L58.668,61.499 Z"/>
<path fill-rule="evenodd"  fill="rgb(226, 224, 193)"
 d="M66.317,69.999 L68.635,69.999 L68.635,75.454 L66.317,75.454 L66.317,69.999 Z"/>
<path fill-rule="evenodd"  fill="rgb(226, 224, 193)"
 d="M67.476,78.727 L70.952,74.363 L63.999,74.363 L67.476,78.727 Z"/>
</svg>