<svg 
 xmlns="http://www.w3.org/2000/svg"
 xmlns:xlink="http://www.w3.org/1999/xlink"
 width="96px" height="107px">
<path fill-rule="evenodd"  fill="rgb(57, 10, 44)"
 d="M95.769,106.362 L13.999,106.362 L13.999,0.0 L70.216,0.0 L95.769,25.324 L95.769,106.362 Z"/>
<path fill-rule="evenodd"  fill="rgb(255, 45, 194)"
 d="M92.275,28.58 L67.999,28.58 L67.999,3.999 L92.275,28.58 Z"/>
<path fill-rule="evenodd"  fill="rgb(0, 0, 0)"
 d="M0.0,19.999 C0.0,17.790 1.790,15.999 3.999,15.999 L50.999,15.999 C53.209,15.999 54.999,17.790 54.999,19.999 L54.999,39.999 C54.999,42.209 53.209,43.999 50.999,43.999 L3.999,43.999 C1.790,43.999 0.0,42.209 0.0,39.999 L0.0,19.999 Z"/>
<path fill-rule="evenodd"  fill="rgb(255, 45, 194)"
 d="M37.193,34.73 C36.704,34.998 36.14,35.716 35.123,36.226 C34.232,36.736 33.228,36.994 32.108,36.999 L28.145,36.999 L28.145,24.203 L32.82,24.203 C33.207,24.203 34.213,24.456 35.101,24.963 C35.989,25.470 36.682,26.190 37.180,27.125 C37.678,28.60 37.927,29.121 37.927,30.311 L37.927,30.900 C37.927,32.89 37.682,33.147 37.193,34.73 ZM35.255,30.302 C35.255,29.1 34.985,28.16 34.446,27.345 C33.907,26.674 33.119,26.338 32.82,26.338 L30.781,26.338 L30.781,34.881 L32.56,34.881 C33.87,34.881 33.875,34.544 34.420,33.871 C34.965,33.197 35.243,32.233 35.255,30.979 L35.255,30.302 ZM24.182,36.999 L21.721,32.517 L19.260,36.999 L16.193,36.999 L20.16,30.548 L16.289,24.203 L19.322,24.203 L21.721,28.615 L24.120,24.203 L27.153,24.203 L23.426,30.548 L27.249,36.999 L24.182,36.999 Z"/>
<path fill-rule="evenodd"  fill="rgb(255, 45, 194)"
 d="M57.3,89.999 L57.3,69.996 L72.999,69.996 L72.999,89.999 L57.3,89.999 ZM57.3,53.999 L72.999,53.999 L72.999,65.988 L57.3,65.988 L57.3,53.999 ZM36.999,77.976 L52.996,77.976 L52.996,89.999 L36.999,89.999 L36.999,77.976 ZM36.999,53.999 L52.996,53.999 L52.996,74.3 L36.999,74.3 L36.999,53.999 Z"/>
</svg>