<svg 
 xmlns="http://www.w3.org/2000/svg"
 xmlns:xlink="http://www.w3.org/1999/xlink"
 width="96px" height="107px">
<path fill-rule="evenodd"  fill="rgb(121, 169, 46)"
 d="M95.769,106.362 L13.999,106.362 L13.999,0.0 L70.216,0.0 L95.769,25.324 L95.769,106.362 Z"/>
<path fill-rule="evenodd"  fill="rgb(153, 205, 72)"
 d="M92.275,28.58 L67.999,28.58 L67.999,3.999 L92.275,28.58 Z"/>
<path fill-rule="evenodd"  fill="rgb(101, 140, 40)"
 d="M0.0,19.999 C0.0,17.790 1.790,15.999 3.999,15.999 L50.999,15.999 C53.209,15.999 54.999,17.790 54.999,19.999 L54.999,39.999 C54.999,42.209 53.209,43.999 50.999,43.999 L3.999,43.999 C1.790,43.999 0.0,42.209 0.0,39.999 L0.0,19.999 Z"/>
<path fill-rule="evenodd"  fill="rgb(153, 205, 72)"
 d="M38.550,26.615 C38.181,26.290 37.663,26.127 36.995,26.127 C36.350,26.127 35.849,26.264 35.492,26.536 C35.134,26.809 34.956,27.167 34.956,27.613 C34.956,28.29 35.165,28.377 35.584,28.659 C36.3,28.940 36.620,29.204 37.434,29.450 C38.934,29.901 40.27,30.460 40.713,31.128 C41.398,31.796 41.741,32.628 41.741,33.624 C41.741,34.732 41.322,35.601 40.484,36.230 C39.646,36.860 38.518,37.175 37.100,37.175 C36.116,37.175 35.219,36.995 34.411,36.635 C33.602,36.274 32.985,35.781 32.561,35.154 C32.136,34.527 31.924,33.800 31.924,32.974 L34.569,32.974 C34.569,34.386 35.413,35.92 37.100,35.92 C37.727,35.92 38.217,34.965 38.568,34.710 C38.920,34.455 39.95,34.99 39.95,33.642 C39.95,33.144 38.920,32.762 38.568,32.495 C38.217,32.228 37.584,31.947 36.670,31.651 C35.756,31.355 35.32,31.64 34.499,30.777 C33.46,29.992 32.319,28.934 32.319,27.604 C32.319,26.913 32.514,26.296 32.903,25.754 C33.293,25.212 33.853,24.788 34.582,24.484 C35.312,24.179 36.130,24.27 37.39,24.27 C37.953,24.27 38.767,24.192 39.482,24.523 C40.197,24.854 40.752,25.322 41.148,25.925 C41.543,26.529 41.741,27.214 41.741,27.982 L39.104,27.982 C39.104,27.396 38.920,26.940 38.550,26.615 ZM23.145,24.203 L25.781,24.203 L25.781,34.881 L31.380,34.881 L31.380,36.999 L23.145,36.999 L23.145,24.203 ZM19.182,36.999 L16.721,32.517 L14.260,36.999 L11.193,36.999 L15.16,30.548 L11.289,24.203 L14.322,24.203 L16.721,28.615 L19.121,24.203 L22.153,24.203 L18.426,30.548 L22.249,36.999 L19.182,36.999 Z"/>
<path fill-rule="evenodd"  fill="rgb(153, 205, 72)"
 d="M73.562,56.999 L59.374,56.999 L59.374,64.124 L62.874,64.124 L55.812,70.62 L48.687,64.124 L52.249,64.124 L52.249,56.999 L37.999,56.999 L37.999,64.124 L41.562,64.124 L52.249,72.999 L41.562,81.874 L37.999,81.874 L37.999,88.999 L52.249,88.999 L52.249,81.874 L48.687,81.874 L55.812,75.937 L62.874,81.874 L59.374,81.874 L59.374,88.999 L73.562,88.999 L73.562,81.874 L69.999,81.874 L59.374,72.999 L69.999,64.124 L73.562,64.124 L73.562,56.999 Z"/>
</svg>