<svg 
 xmlns="http://www.w3.org/2000/svg"
 xmlns:xlink="http://www.w3.org/1999/xlink"
 width="96px" height="107px">
<path fill-rule="evenodd"  fill="rgb(121, 169, 46)"
 d="M95.769,106.362 L13.999,106.362 L13.999,0.0 L70.216,0.0 L95.769,25.324 L95.769,106.362 Z"/>
<path fill-rule="evenodd"  fill="rgb(153, 205, 72)"
 d="M92.275,28.58 L67.999,28.58 L67.999,3.999 L92.275,28.58 Z"/>
<path fill-rule="evenodd"  fill="rgb(101, 140, 40)"
 d="M0.0,19.999 C0.0,17.790 1.790,15.999 3.999,15.999 L50.999,15.999 C53.209,15.999 54.999,17.790 54.999,19.999 L54.999,39.999 C54.999,42.209 53.209,43.999 50.999,43.999 L3.999,43.999 C1.790,43.999 0.0,42.209 0.0,39.999 L0.0,19.999 Z"/>
<path fill-rule="evenodd"  fill="rgb(153, 205, 72)"
 d="M46.274,36.251 L46.274,32.948 L46.523,27.245 L43.261,36.251 L41.551,36.251 L38.297,27.253 L38.546,32.948 L38.546,36.251 L36.55,36.251 L36.55,24.165 L39.309,24.165 L42.414,32.931 L45.502,24.165 L48.772,24.165 L48.772,36.251 L46.274,36.251 ZM30.735,29.121 C32.152,29.547 33.184,30.76 33.831,30.706 C34.479,31.337 34.802,32.123 34.802,33.64 C34.802,34.110 34.407,34.930 33.615,35.525 C32.824,36.120 31.759,36.417 30.420,36.417 C29.490,36.417 28.643,36.247 27.880,35.907 C27.116,35.567 26.533,35.100 26.132,34.508 C25.731,33.916 25.530,33.230 25.530,32.450 L28.29,32.450 C28.29,33.783 28.826,34.450 30.420,34.450 C31.12,34.450 31.474,34.330 31.806,34.89 C32.138,33.848 32.304,33.512 32.304,33.81 C32.304,32.610 32.138,32.249 31.806,31.997 C31.474,31.745 30.876,31.480 30.13,31.200 C29.150,30.921 28.466,30.646 27.963,30.374 C26.590,29.633 25.904,28.634 25.904,27.378 C25.904,26.725 26.88,26.142 26.456,25.631 C26.824,25.119 27.352,24.719 28.41,24.431 C28.730,24.143 29.504,23.999 30.362,23.999 C31.225,23.999 31.994,24.156 32.669,24.468 C33.344,24.781 33.869,25.222 34.242,25.792 C34.616,26.362 34.802,27.10 34.802,27.735 L32.312,27.735 C32.312,27.181 32.138,26.751 31.789,26.444 C31.441,26.137 30.951,25.983 30.320,25.983 C29.711,25.983 29.238,26.112 28.901,26.369 C28.563,26.627 28.394,26.966 28.394,27.386 C28.394,27.779 28.592,28.108 28.988,28.374 C29.383,28.640 29.966,28.889 30.735,29.121 ZM17.263,24.165 L19.753,24.165 L19.753,34.251 L25.41,34.251 L25.41,36.251 L17.263,36.251 L17.263,24.165 ZM13.545,36.251 L11.221,32.18 L8.896,36.251 L5.999,36.251 L9.610,30.159 L6.91,24.165 L8.954,24.165 L11.221,28.332 L13.487,24.165 L16.350,24.165 L12.831,30.159 L16.442,36.251 L13.545,36.251 Z"/>
<path fill-rule="evenodd"  fill="rgb(153, 205, 72)"
 d="M73.562,56.999 L59.374,56.999 L59.374,64.124 L62.874,64.124 L55.812,70.62 L48.687,64.124 L52.249,64.124 L52.249,56.999 L37.999,56.999 L37.999,64.124 L41.562,64.124 L52.249,72.999 L41.562,81.874 L37.999,81.874 L37.999,88.999 L52.249,88.999 L52.249,81.874 L48.687,81.874 L55.812,75.937 L62.874,81.874 L59.374,81.874 L59.374,88.999 L73.562,88.999 L73.562,81.874 L69.999,81.874 L59.374,72.999 L69.999,64.124 L73.562,64.124 L73.562,56.999 Z"/>
</svg>