<svg 
 xmlns="http://www.w3.org/2000/svg"
 xmlns:xlink="http://www.w3.org/1999/xlink"
 width="96px" height="107px">
<path fill-rule="evenodd"  fill="rgb(121, 169, 46)"
 d="M95.769,106.362 L13.999,106.362 L13.999,0.0 L70.216,0.0 L95.769,25.324 L95.769,106.362 Z"/>
<path fill-rule="evenodd"  fill="rgb(153, 205, 72)"
 d="M92.275,28.58 L67.999,28.58 L67.999,3.999 L92.275,28.58 Z"/>
<path fill-rule="evenodd"  fill="rgb(101, 140, 40)"
 d="M0.0,19.999 C0.0,17.790 1.790,15.999 3.999,15.999 L50.999,15.999 C53.209,15.999 54.999,17.790 54.999,19.999 L54.999,39.999 C54.999,42.209 53.209,43.999 50.999,43.999 L3.999,43.999 C1.790,43.999 0.0,42.209 0.0,39.999 L0.0,19.999 Z"/>
<path fill-rule="evenodd"  fill="rgb(153, 205, 72)"
 d="M47.601,36.251 L44.704,36.251 L42.380,32.18 L40.56,36.251 L37.159,36.251 L40.770,30.159 L37.250,24.165 L40.114,24.165 L42.380,28.332 L44.646,24.165 L47.510,24.165 L43.991,30.159 L47.601,36.251 ZM32.735,29.121 C34.152,29.547 35.184,30.76 35.831,30.706 C36.479,31.337 36.802,32.123 36.802,33.64 C36.802,34.110 36.407,34.930 35.615,35.525 C34.824,36.120 33.759,36.417 32.420,36.417 C31.490,36.417 30.643,36.247 29.880,35.907 C29.116,35.567 28.534,35.100 28.132,34.508 C27.731,33.916 27.530,33.230 27.530,32.450 L30.29,32.450 C30.29,33.783 30.826,34.450 32.420,34.450 C33.12,34.450 33.474,34.330 33.806,34.89 C34.138,33.848 34.304,33.512 34.304,33.81 C34.304,32.610 34.138,32.249 33.806,31.997 C33.474,31.745 32.876,31.480 32.13,31.200 C31.150,30.921 30.466,30.646 29.963,30.374 C28.590,29.633 27.904,28.634 27.904,27.378 C27.904,26.725 28.88,26.142 28.456,25.631 C28.824,25.119 29.352,24.719 30.41,24.431 C30.730,24.143 31.504,23.999 32.361,23.999 C33.225,23.999 33.994,24.156 34.669,24.468 C35.344,24.781 35.869,25.222 36.242,25.792 C36.616,26.362 36.802,27.10 36.802,27.735 L34.312,27.735 C34.312,27.181 34.138,26.751 33.789,26.444 C33.441,26.137 32.951,25.983 32.320,25.983 C31.711,25.983 31.238,26.112 30.900,26.369 C30.563,26.627 30.394,26.966 30.394,27.386 C30.394,27.779 30.592,28.108 30.988,28.374 C31.383,28.640 31.966,28.889 32.735,29.121 ZM19.263,24.165 L21.754,24.165 L21.754,34.251 L27.41,34.251 L27.41,36.251 L19.263,36.251 L19.263,24.165 ZM15.545,36.251 L13.221,32.18 L10.896,36.251 L7.999,36.251 L11.610,30.159 L8.91,24.165 L10.955,24.165 L13.221,28.332 L15.487,24.165 L18.351,24.165 L14.831,30.159 L18.442,36.251 L15.545,36.251 Z"/>
<path fill-rule="evenodd"  fill="rgb(153, 205, 72)"
 d="M73.562,56.999 L59.374,56.999 L59.374,64.124 L62.874,64.124 L55.812,70.62 L48.687,64.124 L52.249,64.124 L52.249,56.999 L37.999,56.999 L37.999,64.124 L41.562,64.124 L52.249,72.999 L41.562,81.874 L37.999,81.874 L37.999,88.999 L52.249,88.999 L52.249,81.874 L48.687,81.874 L55.812,75.937 L62.874,81.874 L59.374,81.874 L59.374,88.999 L73.562,88.999 L73.562,81.874 L69.999,81.874 L59.374,72.999 L69.999,64.124 L73.562,64.124 L73.562,56.999 Z"/>
</svg>