<svg 
 xmlns="http://www.w3.org/2000/svg"
 xmlns:xlink="http://www.w3.org/1999/xlink"
 width="96px" height="107px">
<path fill-rule="evenodd"  fill="rgb(17, 144, 124)"
 d="M95.769,106.362 L13.999,106.362 L13.999,0.0 L70.216,0.0 L95.769,25.324 L95.769,106.362 Z"/>
<path fill-rule="evenodd"  fill="rgb(55, 210, 186)"
 d="M92.275,28.58 L67.999,28.58 L67.999,3.999 L92.275,28.58 Z"/>
<path fill-rule="evenodd"  fill="rgb(13, 98, 84)"
 d="M0.0,19.999 C0.0,17.790 1.790,15.999 3.999,15.999 L50.999,15.999 C53.209,15.999 54.999,17.790 54.999,19.999 L54.999,39.999 C54.999,42.209 53.209,43.999 50.999,43.999 L3.999,43.999 C1.790,43.999 0.0,42.209 0.0,39.999 L0.0,19.999 Z"/>
<path fill-rule="evenodd"  fill="rgb(55, 210, 186)"
 d="M36.906,35.999 L36.906,23.914 L39.396,23.914 L39.396,33.999 L44.683,33.999 L44.683,35.999 L36.906,35.999 ZM32.664,32.696 L32.913,26.993 L29.651,35.999 L27.941,35.999 L24.687,27.1 L24.936,32.696 L24.936,35.999 L22.446,35.999 L22.446,23.914 L25.700,23.914 L28.804,32.679 L31.892,23.914 L35.163,23.914 L35.163,35.999 L32.664,35.999 L32.664,32.696 ZM18.728,35.999 L16.403,31.766 L14.79,35.999 L11.182,35.999 L14.793,29.907 L11.273,23.914 L14.137,23.914 L16.403,28.81 L18.669,23.914 L21.533,23.914 L18.14,29.907 L21.624,35.999 L18.728,35.999 Z"/>
<path fill-rule="evenodd"  fill="rgb(55, 210, 186)"
 d="M62.671,86.953 L56.976,81.257 L66.328,71.976 L56.976,62.624 L62.671,56.999 L77.648,71.976 L62.671,86.953 ZM47.976,86.953 L32.999,71.976 L47.976,56.999 L53.671,62.624 L44.320,71.976 L53.671,81.257 L47.976,86.953 Z"/>
</svg>