<svg 
 xmlns="http://www.w3.org/2000/svg"
 xmlns:xlink="http://www.w3.org/1999/xlink"
 width="98px" height="110px">
<defs>
<filter filterUnits="userSpaceOnUse" id="Filter_0" x="13px" y="0px" width="85px" height="110px"  >
    <feOffset in="SourceAlpha" dx="0" dy="0" />
    <feGaussianBlur result="blurOut" stdDeviation="1.414" />
    <feFlood flood-color="rgb(0, 0, 0)" result="floodOut" />
    <feComposite operator="atop" in="floodOut" in2="blurOut" />
    <feComponentTransfer><feFuncA type="linear" slope="0.5"/></feComponentTransfer>
    <feMerge>
    <feMergeNode/>
    <feMergeNode in="SourceGraphic"/>
  </feMerge>
</filter>

</defs>
<g filter="url(#Filter_0)">
<path fill-rule="evenodd"  fill="rgb(255, 255, 255)"
 d="M95.769,107.362 L13.999,107.362 L13.999,0.999 L70.216,0.999 L95.769,26.324 L95.769,107.362 Z"/>
</g>
<path fill-rule="evenodd"  fill="rgb(88, 88, 88)"
 d="M92.275,29.58 L67.999,29.58 L67.999,4.999 L92.275,29.58 Z"/>
<path fill-rule="evenodd"  fill="rgb(88, 88, 88)"
 d="M0.0,20.999 C0.0,18.790 1.790,16.999 3.999,16.999 L50.999,16.999 C53.209,16.999 54.999,18.790 54.999,20.999 L54.999,40.999 C54.999,43.209 53.209,44.999 50.999,44.999 L3.999,44.999 C1.790,44.999 0.0,43.209 0.0,40.999 L0.0,20.999 Z"/>
<path fill-rule="evenodd"  fill="rgb(255, 255, 255)"
 d="M37.511,31.716 C36.700,32.399 35.578,32.741 34.145,32.741 L31.962,32.741 L31.962,36.999 L29.471,36.999 L29.471,24.913 L34.186,24.913 C35.94,24.913 35.892,25.80 36.581,25.412 C37.270,25.744 37.800,26.215 38.171,26.827 C38.541,27.438 38.727,28.134 38.727,28.915 C38.727,30.99 38.321,31.33 37.511,31.716 ZM35.689,27.495 C35.340,27.130 34.859,26.942 34.244,26.931 L31.962,26.931 L31.962,30.724 L34.186,30.724 C34.845,30.724 35.347,30.569 35.693,30.259 C36.39,29.949 36.212,29.507 36.212,28.931 C36.212,28.339 36.37,27.860 35.689,27.495 ZM25.106,24.913 L27.596,24.913 L27.596,36.999 L25.106,36.999 L25.106,24.913 ZM14.605,35.539 L20.582,26.931 L14.614,26.931 L14.614,24.913 L23.678,24.913 L23.678,26.341 L17.718,34.999 L23.811,34.999 L23.811,36.999 L14.605,36.999 L14.605,35.539 Z"/>
<path fill-rule="evenodd"  fill="rgb(88, 88, 88)"
 d="M51.999,71.999 L58.999,71.999 L58.999,74.999 L51.999,74.999 L51.999,71.999 Z"/>
<path fill-rule="evenodd"  fill="rgb(88, 88, 88)"
 d="M51.999,59.999 L58.999,59.999 L58.999,62.999 L51.999,62.999 L51.999,59.999 Z"/>
<path fill-rule="evenodd"  fill="rgb(88, 88, 88)"
 d="M51.999,49.999 L58.999,49.999 L58.999,52.999 L51.999,52.999 L51.999,49.999 Z"/>
<path fill-rule="evenodd"  fill="rgb(88, 88, 88)"
 d="M54.999,99.999 C51.130,99.999 47.999,97.167 47.999,93.666 C47.999,90.499 51.499,85.749 51.499,80.999 L58.499,80.999 C58.499,85.749 61.999,90.499 61.999,93.666 C61.999,97.167 58.869,99.999 54.999,99.999 ZM54.999,90.499 C53.65,90.499 51.499,91.916 51.499,93.666 C51.499,95.416 53.65,96.833 54.999,96.833 C56.934,96.833 58.499,95.416 58.499,93.666 C58.499,91.916 56.934,90.499 54.999,90.499 Z"/>
</svg>